G04 #@! TF.GenerationSoftware,KiCad,Pcbnew,(5.1.4)-1*
G04 #@! TF.CreationDate,2020-09-06T16:49:47-04:00*
G04 #@! TF.ProjectId,DC_LOAD_V02,44435f4c-4f41-4445-9f56-30322e6b6963,rev?*
G04 #@! TF.SameCoordinates,Original*
G04 #@! TF.FileFunction,Legend,Top*
G04 #@! TF.FilePolarity,Positive*
%FSLAX46Y46*%
G04 Gerber Fmt 4.6, Leading zero omitted, Abs format (unit mm)*
G04 Created by KiCad (PCBNEW (5.1.4)-1) date 2020-09-06 16:49:47*
%MOMM*%
%LPD*%
G04 APERTURE LIST*
%ADD10C,0.200000*%
%ADD11C,0.300000*%
%ADD12C,0.150000*%
%ADD13C,0.100000*%
%ADD14C,0.120000*%
%ADD15C,0.010000*%
%ADD16C,0.254000*%
%ADD17C,0.150000*%
%ADD18C,0.200000*%
G04 APERTURE END LIST*
%LPD*%
D10*
X212007714Y-83143714D02*
X212922000Y-83143714D01*
X212464857Y-83600857D02*
X212464857Y-82686571D01*
X214122000Y-83600857D02*
X213436285Y-83600857D01*
X213779142Y-83600857D02*
X213779142Y-82400857D01*
X213664857Y-82572285D01*
X213550571Y-82686571D01*
X213436285Y-82743714D01*
X214579142Y-82515142D02*
X214636285Y-82458000D01*
X214750571Y-82400857D01*
X215036285Y-82400857D01*
X215150571Y-82458000D01*
X215207714Y-82515142D01*
X215264857Y-82629428D01*
X215264857Y-82743714D01*
X215207714Y-82915142D01*
X214522000Y-83600857D01*
X215264857Y-83600857D01*
X215607714Y-82400857D02*
X216007714Y-83600857D01*
X216407714Y-82400857D01*
X257029142Y-74253714D02*
X257943428Y-74253714D01*
X257486285Y-74710857D02*
X257486285Y-73796571D01*
X259086285Y-73510857D02*
X258514857Y-73510857D01*
X258457714Y-74082285D01*
X258514857Y-74025142D01*
X258629142Y-73968000D01*
X258914857Y-73968000D01*
X259029142Y-74025142D01*
X259086285Y-74082285D01*
X259143428Y-74196571D01*
X259143428Y-74482285D01*
X259086285Y-74596571D01*
X259029142Y-74653714D01*
X258914857Y-74710857D01*
X258629142Y-74710857D01*
X258514857Y-74653714D01*
X258457714Y-74596571D01*
X259486285Y-73510857D02*
X259886285Y-74710857D01*
X260286285Y-73510857D01*
X192894285Y-171789714D02*
X193808571Y-171789714D01*
X193351428Y-172246857D02*
X193351428Y-171332571D01*
X194951428Y-172246857D02*
X194380000Y-172246857D01*
X194380000Y-171046857D01*
X195580000Y-171046857D02*
X195808571Y-171046857D01*
X195922857Y-171104000D01*
X196037142Y-171218285D01*
X196094285Y-171446857D01*
X196094285Y-171846857D01*
X196037142Y-172075428D01*
X195922857Y-172189714D01*
X195808571Y-172246857D01*
X195580000Y-172246857D01*
X195465714Y-172189714D01*
X195351428Y-172075428D01*
X195294285Y-171846857D01*
X195294285Y-171446857D01*
X195351428Y-171218285D01*
X195465714Y-171104000D01*
X195580000Y-171046857D01*
X196551428Y-171904000D02*
X197122857Y-171904000D01*
X196437142Y-172246857D02*
X196837142Y-171046857D01*
X197237142Y-172246857D01*
X197637142Y-172246857D02*
X197637142Y-171046857D01*
X197922857Y-171046857D01*
X198094285Y-171104000D01*
X198208571Y-171218285D01*
X198265714Y-171332571D01*
X198322857Y-171561142D01*
X198322857Y-171732571D01*
X198265714Y-171961142D01*
X198208571Y-172075428D01*
X198094285Y-172189714D01*
X197922857Y-172246857D01*
X197637142Y-172246857D01*
X232318285Y-63331714D02*
X233232571Y-63331714D01*
X232775428Y-63788857D02*
X232775428Y-62874571D01*
X233746857Y-63731714D02*
X233918285Y-63788857D01*
X234204000Y-63788857D01*
X234318285Y-63731714D01*
X234375428Y-63674571D01*
X234432571Y-63560285D01*
X234432571Y-63446000D01*
X234375428Y-63331714D01*
X234318285Y-63274571D01*
X234204000Y-63217428D01*
X233975428Y-63160285D01*
X233861142Y-63103142D01*
X233804000Y-63046000D01*
X233746857Y-62931714D01*
X233746857Y-62817428D01*
X233804000Y-62703142D01*
X233861142Y-62646000D01*
X233975428Y-62588857D01*
X234261142Y-62588857D01*
X234432571Y-62646000D01*
X234946857Y-63788857D02*
X234946857Y-62588857D01*
X235346857Y-63446000D01*
X235746857Y-62588857D01*
X235746857Y-63788857D01*
X236318285Y-63788857D02*
X236318285Y-62588857D01*
X236775428Y-62588857D01*
X236889714Y-62646000D01*
X236946857Y-62703142D01*
X237004000Y-62817428D01*
X237004000Y-62988857D01*
X236946857Y-63103142D01*
X236889714Y-63160285D01*
X236775428Y-63217428D01*
X236318285Y-63217428D01*
X237461142Y-63731714D02*
X237632571Y-63788857D01*
X237918285Y-63788857D01*
X238032571Y-63731714D01*
X238089714Y-63674571D01*
X238146857Y-63560285D01*
X238146857Y-63446000D01*
X238089714Y-63331714D01*
X238032571Y-63274571D01*
X237918285Y-63217428D01*
X237689714Y-63160285D01*
X237575428Y-63103142D01*
X237518285Y-63046000D01*
X237461142Y-62931714D01*
X237461142Y-62817428D01*
X237518285Y-62703142D01*
X237575428Y-62646000D01*
X237689714Y-62588857D01*
X237975428Y-62588857D01*
X238146857Y-62646000D01*
D11*
X219431790Y-95494361D02*
X219431790Y-93494361D01*
X219907980Y-93494361D01*
X220193695Y-93589600D01*
X220384171Y-93780076D01*
X220479409Y-93970552D01*
X220574647Y-94351504D01*
X220574647Y-94637219D01*
X220479409Y-95018171D01*
X220384171Y-95208647D01*
X220193695Y-95399123D01*
X219907980Y-95494361D01*
X219431790Y-95494361D01*
X222574647Y-95303885D02*
X222479409Y-95399123D01*
X222193695Y-95494361D01*
X222003219Y-95494361D01*
X221717504Y-95399123D01*
X221527028Y-95208647D01*
X221431790Y-95018171D01*
X221336552Y-94637219D01*
X221336552Y-94351504D01*
X221431790Y-93970552D01*
X221527028Y-93780076D01*
X221717504Y-93589600D01*
X222003219Y-93494361D01*
X222193695Y-93494361D01*
X222479409Y-93589600D01*
X222574647Y-93684838D01*
X225907980Y-95494361D02*
X224955600Y-95494361D01*
X224955600Y-93494361D01*
X226955600Y-93494361D02*
X227336552Y-93494361D01*
X227527028Y-93589600D01*
X227717504Y-93780076D01*
X227812742Y-94161028D01*
X227812742Y-94827695D01*
X227717504Y-95208647D01*
X227527028Y-95399123D01*
X227336552Y-95494361D01*
X226955600Y-95494361D01*
X226765123Y-95399123D01*
X226574647Y-95208647D01*
X226479409Y-94827695D01*
X226479409Y-94161028D01*
X226574647Y-93780076D01*
X226765123Y-93589600D01*
X226955600Y-93494361D01*
X228574647Y-94922933D02*
X229527028Y-94922933D01*
X228384171Y-95494361D02*
X229050838Y-93494361D01*
X229717504Y-95494361D01*
X230384171Y-95494361D02*
X230384171Y-93494361D01*
X230860361Y-93494361D01*
X231146076Y-93589600D01*
X231336552Y-93780076D01*
X231431790Y-93970552D01*
X231527028Y-94351504D01*
X231527028Y-94637219D01*
X231431790Y-95018171D01*
X231336552Y-95208647D01*
X231146076Y-95399123D01*
X230860361Y-95494361D01*
X230384171Y-95494361D01*
X233622266Y-93494361D02*
X234288933Y-95494361D01*
X234955600Y-93494361D01*
X236003219Y-93494361D02*
X236193695Y-93494361D01*
X236384171Y-93589600D01*
X236479409Y-93684838D01*
X236574647Y-93875314D01*
X236669885Y-94256266D01*
X236669885Y-94732457D01*
X236574647Y-95113409D01*
X236479409Y-95303885D01*
X236384171Y-95399123D01*
X236193695Y-95494361D01*
X236003219Y-95494361D01*
X235812742Y-95399123D01*
X235717504Y-95303885D01*
X235622266Y-95113409D01*
X235527028Y-94732457D01*
X235527028Y-94256266D01*
X235622266Y-93875314D01*
X235717504Y-93684838D01*
X235812742Y-93589600D01*
X236003219Y-93494361D01*
X237431790Y-93684838D02*
X237527028Y-93589600D01*
X237717504Y-93494361D01*
X238193695Y-93494361D01*
X238384171Y-93589600D01*
X238479409Y-93684838D01*
X238574647Y-93875314D01*
X238574647Y-94065790D01*
X238479409Y-94351504D01*
X237336552Y-95494361D01*
X238574647Y-95494361D01*
D12*
X233680000Y-160020000D02*
G75*
G03X233680000Y-160020000I-254000J0D01*
G01*
D13*
G36*
X233680000Y-160020000D02*
G01*
X233426000Y-160274000D01*
X233172000Y-160020000D01*
X233426000Y-159766000D01*
X233680000Y-160020000D01*
G37*
X233680000Y-160020000D02*
X233426000Y-160274000D01*
X233172000Y-160020000D01*
X233426000Y-159766000D01*
X233680000Y-160020000D01*
D10*
X217170095Y-66182857D02*
X218693904Y-66182857D01*
X222250095Y-66182857D02*
X223773904Y-66182857D01*
X223012000Y-66944761D02*
X223012000Y-65420952D01*
X208280095Y-175148857D02*
X209803904Y-175148857D01*
X203200095Y-175148857D02*
X204723904Y-175148857D01*
X203962000Y-175910761D02*
X203962000Y-174386952D01*
D12*
X71120000Y-59690000D02*
X71120000Y-181610000D01*
X171450000Y-59690000D02*
X171450000Y-181610000D01*
X71120000Y-181610000D02*
X171450000Y-181610000D01*
X71120000Y-59690000D02*
X171450000Y-59690000D01*
D14*
X195260000Y-169672000D02*
G75*
G03X195260000Y-169672000I-950000J0D01*
G01*
X258760000Y-72390000D02*
G75*
G03X258760000Y-72390000I-950000J0D01*
G01*
X213548000Y-81280000D02*
G75*
G03X213548000Y-81280000I-950000J0D01*
G01*
X235138000Y-61214000D02*
G75*
G03X235138000Y-61214000I-950000J0D01*
G01*
D15*
G36*
X88734198Y-117738874D02*
G01*
X88808595Y-117767893D01*
X88871846Y-117817658D01*
X88874186Y-117820094D01*
X88883295Y-117834122D01*
X88904177Y-117869112D01*
X88936164Y-117923880D01*
X88978587Y-117997244D01*
X89030780Y-118088022D01*
X89092072Y-118195029D01*
X89161798Y-118317084D01*
X89239287Y-118453003D01*
X89323874Y-118601604D01*
X89414888Y-118761704D01*
X89511663Y-118932119D01*
X89613530Y-119111668D01*
X89719820Y-119299166D01*
X89829867Y-119493432D01*
X89943002Y-119693282D01*
X90058557Y-119897533D01*
X90175863Y-120105003D01*
X90294254Y-120314509D01*
X90413059Y-120524868D01*
X90531613Y-120734896D01*
X90649245Y-120943412D01*
X90765290Y-121149232D01*
X90879077Y-121351173D01*
X90989940Y-121548053D01*
X91097210Y-121738688D01*
X91200219Y-121921896D01*
X91298299Y-122096494D01*
X91390781Y-122261299D01*
X91476999Y-122415128D01*
X91556284Y-122556798D01*
X91627967Y-122685126D01*
X91691381Y-122798930D01*
X91745857Y-122897027D01*
X91790728Y-122978234D01*
X91825325Y-123041367D01*
X91848981Y-123085244D01*
X91860439Y-123107450D01*
X91889854Y-123194660D01*
X91895243Y-123280709D01*
X91877696Y-123362252D01*
X91838303Y-123435944D01*
X91778155Y-123498441D01*
X91720892Y-123535532D01*
X91652999Y-123571000D01*
X88641374Y-123570703D01*
X85629750Y-123570406D01*
X85566750Y-123535778D01*
X85495252Y-123483321D01*
X85441918Y-123416795D01*
X85408176Y-123340374D01*
X85395452Y-123258234D01*
X85405172Y-123174550D01*
X85424739Y-123120150D01*
X85434387Y-123101750D01*
X85455757Y-123062594D01*
X85488180Y-123003867D01*
X85530989Y-122926756D01*
X85583515Y-122832449D01*
X85623435Y-122760928D01*
X86703350Y-122760928D01*
X86711938Y-122822358D01*
X86738422Y-122868883D01*
X86773606Y-122898581D01*
X86779246Y-122901960D01*
X86786234Y-122905015D01*
X86795818Y-122907761D01*
X86809246Y-122910214D01*
X86827764Y-122912393D01*
X86852621Y-122914312D01*
X86885063Y-122915989D01*
X86926339Y-122917439D01*
X86977696Y-122918680D01*
X87040380Y-122919728D01*
X87115641Y-122920599D01*
X87204724Y-122921310D01*
X87308878Y-122921878D01*
X87429350Y-122922318D01*
X87567387Y-122922648D01*
X87724238Y-122922883D01*
X87901149Y-122923041D01*
X88099367Y-122923137D01*
X88320141Y-122923189D01*
X88564718Y-122923212D01*
X88637730Y-122923216D01*
X88890667Y-122923209D01*
X89119440Y-122923157D01*
X89325286Y-122923045D01*
X89509441Y-122922859D01*
X89673141Y-122922587D01*
X89817622Y-122922213D01*
X89944122Y-122921726D01*
X90053875Y-122921110D01*
X90148118Y-122920352D01*
X90228089Y-122919439D01*
X90295022Y-122918357D01*
X90350154Y-122917092D01*
X90394722Y-122915631D01*
X90429962Y-122913959D01*
X90457110Y-122912064D01*
X90477402Y-122909932D01*
X90492075Y-122907548D01*
X90502364Y-122904900D01*
X90508365Y-122902537D01*
X90551617Y-122869432D01*
X90578579Y-122823031D01*
X90589139Y-122769588D01*
X90583186Y-122715358D01*
X90560607Y-122666594D01*
X90521292Y-122629551D01*
X90513315Y-122625064D01*
X90495214Y-122622219D01*
X90453465Y-122619571D01*
X90389816Y-122617120D01*
X90306017Y-122614868D01*
X90203819Y-122612814D01*
X90084971Y-122610958D01*
X89951222Y-122609302D01*
X89804323Y-122607846D01*
X89646024Y-122606590D01*
X89478074Y-122605534D01*
X89302222Y-122604680D01*
X89120219Y-122604026D01*
X88933815Y-122603574D01*
X88744759Y-122603325D01*
X88554801Y-122603278D01*
X88365690Y-122603433D01*
X88179178Y-122603793D01*
X87997012Y-122604355D01*
X87820943Y-122605122D01*
X87652722Y-122606094D01*
X87494096Y-122607270D01*
X87346818Y-122608652D01*
X87212635Y-122610240D01*
X87093298Y-122612033D01*
X86990557Y-122614034D01*
X86906161Y-122616241D01*
X86841861Y-122618656D01*
X86799406Y-122621278D01*
X86780545Y-122624109D01*
X86780355Y-122624200D01*
X86734716Y-122660961D01*
X86708983Y-122712909D01*
X86703350Y-122760928D01*
X85623435Y-122760928D01*
X85645091Y-122722131D01*
X85715048Y-122596990D01*
X85792720Y-122458212D01*
X85877438Y-122306984D01*
X85968533Y-122144493D01*
X86065339Y-121971925D01*
X86167187Y-121790467D01*
X86273410Y-121601306D01*
X86383339Y-121405628D01*
X86496307Y-121204621D01*
X86611646Y-120999471D01*
X86708814Y-120826699D01*
X87509962Y-120826699D01*
X87521887Y-120960154D01*
X87557971Y-121090380D01*
X87618370Y-121215611D01*
X87620326Y-121218886D01*
X87647082Y-121258626D01*
X87685107Y-121309023D01*
X87728313Y-121362193D01*
X87753352Y-121391197D01*
X87831564Y-121487708D01*
X87887716Y-121576940D01*
X87922990Y-121661854D01*
X87938572Y-121745408D01*
X87935646Y-121830562D01*
X87933893Y-121842365D01*
X87911093Y-121926857D01*
X87870487Y-122017675D01*
X87815631Y-122107406D01*
X87790525Y-122141294D01*
X87759087Y-122183634D01*
X87741196Y-122215497D01*
X87733242Y-122245139D01*
X87731600Y-122276107D01*
X87742514Y-122336644D01*
X87772123Y-122384836D01*
X87815724Y-122418224D01*
X87868616Y-122434352D01*
X87926097Y-122430762D01*
X87981149Y-122406537D01*
X88012785Y-122378381D01*
X88051411Y-122332728D01*
X88093138Y-122275035D01*
X88134077Y-122210758D01*
X88170338Y-122145352D01*
X88177276Y-122131406D01*
X88229071Y-122002182D01*
X88257173Y-121874725D01*
X88262518Y-121744598D01*
X88261817Y-121730933D01*
X88249368Y-121626999D01*
X88223600Y-121530121D01*
X88182435Y-121435809D01*
X88123794Y-121339568D01*
X88045599Y-121236906D01*
X88018267Y-121204476D01*
X87958422Y-121132382D01*
X87914213Y-121072664D01*
X87882675Y-121020402D01*
X87860839Y-120970678D01*
X87845741Y-120918573D01*
X87845678Y-120918299D01*
X87835911Y-120821460D01*
X87842335Y-120771402D01*
X88270646Y-120771402D01*
X88271680Y-120897356D01*
X88295563Y-121020743D01*
X88342874Y-121143047D01*
X88414189Y-121265753D01*
X88510086Y-121390346D01*
X88512288Y-121392902D01*
X88576867Y-121470940D01*
X88624570Y-121537233D01*
X88657836Y-121596535D01*
X88679100Y-121653599D01*
X88690798Y-121713180D01*
X88693951Y-121747364D01*
X88695625Y-121806699D01*
X88691300Y-121859802D01*
X88679260Y-121911002D01*
X88657786Y-121964629D01*
X88625161Y-122025011D01*
X88579666Y-122096478D01*
X88522713Y-122178935D01*
X88493829Y-122238303D01*
X88489237Y-122296883D01*
X88507995Y-122350964D01*
X88549164Y-122396836D01*
X88583402Y-122418455D01*
X88620312Y-122435160D01*
X88648064Y-122439413D01*
X88679049Y-122432208D01*
X88692798Y-122427221D01*
X88744030Y-122396533D01*
X88800082Y-122341489D01*
X88860477Y-122262574D01*
X88874258Y-122242120D01*
X88941511Y-122121321D01*
X88989378Y-121993966D01*
X89016702Y-121864677D01*
X89022326Y-121738080D01*
X89016228Y-121674416D01*
X88994708Y-121571278D01*
X88960731Y-121475803D01*
X88911695Y-121382933D01*
X88844994Y-121287608D01*
X88772418Y-121200821D01*
X88700718Y-121112844D01*
X88649515Y-121032070D01*
X88616691Y-120954140D01*
X88600127Y-120874692D01*
X88597570Y-120841063D01*
X89029525Y-120841063D01*
X89030515Y-120865900D01*
X89042985Y-120976220D01*
X89070067Y-121078384D01*
X89113808Y-121176833D01*
X89176258Y-121276009D01*
X89259463Y-121380354D01*
X89276708Y-121399922D01*
X89321441Y-121453749D01*
X89364038Y-121511470D01*
X89398323Y-121564447D01*
X89411273Y-121588174D01*
X89432208Y-121633569D01*
X89444539Y-121671093D01*
X89450436Y-121710948D01*
X89452067Y-121763337D01*
X89452061Y-121780032D01*
X89450423Y-121840058D01*
X89444593Y-121885518D01*
X89432429Y-121927160D01*
X89414048Y-121970800D01*
X89385541Y-122025361D01*
X89350437Y-122081708D01*
X89323945Y-122117902D01*
X89285152Y-122167517D01*
X89260786Y-122204632D01*
X89247797Y-122235178D01*
X89243132Y-122265083D01*
X89242900Y-122275395D01*
X89254019Y-122334454D01*
X89284055Y-122382265D01*
X89328025Y-122416180D01*
X89380944Y-122433548D01*
X89437830Y-122431722D01*
X89493151Y-122408413D01*
X89534956Y-122371769D01*
X89580912Y-122316052D01*
X89627910Y-122246530D01*
X89672840Y-122168470D01*
X89712592Y-122087139D01*
X89744056Y-122007804D01*
X89759026Y-121958100D01*
X89773894Y-121873076D01*
X89779480Y-121778566D01*
X89775807Y-121684750D01*
X89762902Y-121601808D01*
X89758087Y-121583450D01*
X89714844Y-121470575D01*
X89652166Y-121357517D01*
X89575518Y-121253570D01*
X89506766Y-121170964D01*
X89453625Y-121102955D01*
X89414161Y-121045772D01*
X89386442Y-120995644D01*
X89368533Y-120948799D01*
X89358503Y-120901468D01*
X89354418Y-120849878D01*
X89354001Y-120821450D01*
X89359434Y-120745903D01*
X89377063Y-120673423D01*
X89408880Y-120599360D01*
X89456876Y-120519064D01*
X89522156Y-120429036D01*
X89550753Y-120381656D01*
X89560334Y-120334748D01*
X89560400Y-120329981D01*
X89550000Y-120264671D01*
X89519952Y-120214759D01*
X89471976Y-120181918D01*
X89407797Y-120167822D01*
X89392992Y-120167400D01*
X89365299Y-120168853D01*
X89342656Y-120175667D01*
X89319084Y-120191521D01*
X89288602Y-120220094D01*
X89260818Y-120248727D01*
X89195428Y-120327744D01*
X89138654Y-120420804D01*
X89124378Y-120448752D01*
X89077881Y-120553201D01*
X89047783Y-120648021D01*
X89032270Y-120741285D01*
X89029525Y-120841063D01*
X88597570Y-120841063D01*
X88597548Y-120840775D01*
X88601954Y-120745151D01*
X88624674Y-120654985D01*
X88667425Y-120565908D01*
X88731919Y-120473551D01*
X88750661Y-120450607D01*
X88790635Y-120389081D01*
X88805613Y-120329282D01*
X88795843Y-120270123D01*
X88793264Y-120263597D01*
X88759655Y-120213000D01*
X88710349Y-120181548D01*
X88647773Y-120170587D01*
X88627291Y-120171450D01*
X88591551Y-120176334D01*
X88564456Y-120186740D01*
X88537773Y-120207417D01*
X88503582Y-120242768D01*
X88419704Y-120350993D01*
X88351652Y-120473850D01*
X88302176Y-120605097D01*
X88274026Y-120738491D01*
X88270646Y-120771402D01*
X87842335Y-120771402D01*
X87848933Y-120719992D01*
X87883633Y-120617863D01*
X87938900Y-120519043D01*
X87968928Y-120478282D01*
X87998210Y-120440111D01*
X88022512Y-120405979D01*
X88034397Y-120387042D01*
X88048796Y-120335906D01*
X88042090Y-120283585D01*
X88017728Y-120235391D01*
X87979159Y-120196636D01*
X87929832Y-120172633D01*
X87891812Y-120167447D01*
X87842312Y-120174038D01*
X87796891Y-120195658D01*
X87751213Y-120235219D01*
X87700944Y-120295634D01*
X87700791Y-120295838D01*
X87617612Y-120424582D01*
X87557979Y-120557149D01*
X87522044Y-120691776D01*
X87509962Y-120826699D01*
X86708814Y-120826699D01*
X86728687Y-120791364D01*
X86846764Y-120581488D01*
X86965207Y-120371029D01*
X87083350Y-120161174D01*
X87200525Y-119953109D01*
X87316062Y-119748022D01*
X87429296Y-119547098D01*
X87539557Y-119351525D01*
X87646178Y-119162490D01*
X87748490Y-118981179D01*
X87845827Y-118808779D01*
X87937520Y-118646477D01*
X88022901Y-118495458D01*
X88101302Y-118356911D01*
X88172056Y-118232022D01*
X88234495Y-118121977D01*
X88287950Y-118027963D01*
X88331754Y-117951167D01*
X88365239Y-117892776D01*
X88387737Y-117853976D01*
X88398580Y-117835955D01*
X88399182Y-117835087D01*
X88449757Y-117787575D01*
X88517313Y-117752507D01*
X88595332Y-117732686D01*
X88645318Y-117729278D01*
X88734198Y-117738874D01*
X88734198Y-117738874D01*
G37*
X88734198Y-117738874D02*
X88808595Y-117767893D01*
X88871846Y-117817658D01*
X88874186Y-117820094D01*
X88883295Y-117834122D01*
X88904177Y-117869112D01*
X88936164Y-117923880D01*
X88978587Y-117997244D01*
X89030780Y-118088022D01*
X89092072Y-118195029D01*
X89161798Y-118317084D01*
X89239287Y-118453003D01*
X89323874Y-118601604D01*
X89414888Y-118761704D01*
X89511663Y-118932119D01*
X89613530Y-119111668D01*
X89719820Y-119299166D01*
X89829867Y-119493432D01*
X89943002Y-119693282D01*
X90058557Y-119897533D01*
X90175863Y-120105003D01*
X90294254Y-120314509D01*
X90413059Y-120524868D01*
X90531613Y-120734896D01*
X90649245Y-120943412D01*
X90765290Y-121149232D01*
X90879077Y-121351173D01*
X90989940Y-121548053D01*
X91097210Y-121738688D01*
X91200219Y-121921896D01*
X91298299Y-122096494D01*
X91390781Y-122261299D01*
X91476999Y-122415128D01*
X91556284Y-122556798D01*
X91627967Y-122685126D01*
X91691381Y-122798930D01*
X91745857Y-122897027D01*
X91790728Y-122978234D01*
X91825325Y-123041367D01*
X91848981Y-123085244D01*
X91860439Y-123107450D01*
X91889854Y-123194660D01*
X91895243Y-123280709D01*
X91877696Y-123362252D01*
X91838303Y-123435944D01*
X91778155Y-123498441D01*
X91720892Y-123535532D01*
X91652999Y-123571000D01*
X88641374Y-123570703D01*
X85629750Y-123570406D01*
X85566750Y-123535778D01*
X85495252Y-123483321D01*
X85441918Y-123416795D01*
X85408176Y-123340374D01*
X85395452Y-123258234D01*
X85405172Y-123174550D01*
X85424739Y-123120150D01*
X85434387Y-123101750D01*
X85455757Y-123062594D01*
X85488180Y-123003867D01*
X85530989Y-122926756D01*
X85583515Y-122832449D01*
X85623435Y-122760928D01*
X86703350Y-122760928D01*
X86711938Y-122822358D01*
X86738422Y-122868883D01*
X86773606Y-122898581D01*
X86779246Y-122901960D01*
X86786234Y-122905015D01*
X86795818Y-122907761D01*
X86809246Y-122910214D01*
X86827764Y-122912393D01*
X86852621Y-122914312D01*
X86885063Y-122915989D01*
X86926339Y-122917439D01*
X86977696Y-122918680D01*
X87040380Y-122919728D01*
X87115641Y-122920599D01*
X87204724Y-122921310D01*
X87308878Y-122921878D01*
X87429350Y-122922318D01*
X87567387Y-122922648D01*
X87724238Y-122922883D01*
X87901149Y-122923041D01*
X88099367Y-122923137D01*
X88320141Y-122923189D01*
X88564718Y-122923212D01*
X88637730Y-122923216D01*
X88890667Y-122923209D01*
X89119440Y-122923157D01*
X89325286Y-122923045D01*
X89509441Y-122922859D01*
X89673141Y-122922587D01*
X89817622Y-122922213D01*
X89944122Y-122921726D01*
X90053875Y-122921110D01*
X90148118Y-122920352D01*
X90228089Y-122919439D01*
X90295022Y-122918357D01*
X90350154Y-122917092D01*
X90394722Y-122915631D01*
X90429962Y-122913959D01*
X90457110Y-122912064D01*
X90477402Y-122909932D01*
X90492075Y-122907548D01*
X90502364Y-122904900D01*
X90508365Y-122902537D01*
X90551617Y-122869432D01*
X90578579Y-122823031D01*
X90589139Y-122769588D01*
X90583186Y-122715358D01*
X90560607Y-122666594D01*
X90521292Y-122629551D01*
X90513315Y-122625064D01*
X90495214Y-122622219D01*
X90453465Y-122619571D01*
X90389816Y-122617120D01*
X90306017Y-122614868D01*
X90203819Y-122612814D01*
X90084971Y-122610958D01*
X89951222Y-122609302D01*
X89804323Y-122607846D01*
X89646024Y-122606590D01*
X89478074Y-122605534D01*
X89302222Y-122604680D01*
X89120219Y-122604026D01*
X88933815Y-122603574D01*
X88744759Y-122603325D01*
X88554801Y-122603278D01*
X88365690Y-122603433D01*
X88179178Y-122603793D01*
X87997012Y-122604355D01*
X87820943Y-122605122D01*
X87652722Y-122606094D01*
X87494096Y-122607270D01*
X87346818Y-122608652D01*
X87212635Y-122610240D01*
X87093298Y-122612033D01*
X86990557Y-122614034D01*
X86906161Y-122616241D01*
X86841861Y-122618656D01*
X86799406Y-122621278D01*
X86780545Y-122624109D01*
X86780355Y-122624200D01*
X86734716Y-122660961D01*
X86708983Y-122712909D01*
X86703350Y-122760928D01*
X85623435Y-122760928D01*
X85645091Y-122722131D01*
X85715048Y-122596990D01*
X85792720Y-122458212D01*
X85877438Y-122306984D01*
X85968533Y-122144493D01*
X86065339Y-121971925D01*
X86167187Y-121790467D01*
X86273410Y-121601306D01*
X86383339Y-121405628D01*
X86496307Y-121204621D01*
X86611646Y-120999471D01*
X86708814Y-120826699D01*
X87509962Y-120826699D01*
X87521887Y-120960154D01*
X87557971Y-121090380D01*
X87618370Y-121215611D01*
X87620326Y-121218886D01*
X87647082Y-121258626D01*
X87685107Y-121309023D01*
X87728313Y-121362193D01*
X87753352Y-121391197D01*
X87831564Y-121487708D01*
X87887716Y-121576940D01*
X87922990Y-121661854D01*
X87938572Y-121745408D01*
X87935646Y-121830562D01*
X87933893Y-121842365D01*
X87911093Y-121926857D01*
X87870487Y-122017675D01*
X87815631Y-122107406D01*
X87790525Y-122141294D01*
X87759087Y-122183634D01*
X87741196Y-122215497D01*
X87733242Y-122245139D01*
X87731600Y-122276107D01*
X87742514Y-122336644D01*
X87772123Y-122384836D01*
X87815724Y-122418224D01*
X87868616Y-122434352D01*
X87926097Y-122430762D01*
X87981149Y-122406537D01*
X88012785Y-122378381D01*
X88051411Y-122332728D01*
X88093138Y-122275035D01*
X88134077Y-122210758D01*
X88170338Y-122145352D01*
X88177276Y-122131406D01*
X88229071Y-122002182D01*
X88257173Y-121874725D01*
X88262518Y-121744598D01*
X88261817Y-121730933D01*
X88249368Y-121626999D01*
X88223600Y-121530121D01*
X88182435Y-121435809D01*
X88123794Y-121339568D01*
X88045599Y-121236906D01*
X88018267Y-121204476D01*
X87958422Y-121132382D01*
X87914213Y-121072664D01*
X87882675Y-121020402D01*
X87860839Y-120970678D01*
X87845741Y-120918573D01*
X87845678Y-120918299D01*
X87835911Y-120821460D01*
X87842335Y-120771402D01*
X88270646Y-120771402D01*
X88271680Y-120897356D01*
X88295563Y-121020743D01*
X88342874Y-121143047D01*
X88414189Y-121265753D01*
X88510086Y-121390346D01*
X88512288Y-121392902D01*
X88576867Y-121470940D01*
X88624570Y-121537233D01*
X88657836Y-121596535D01*
X88679100Y-121653599D01*
X88690798Y-121713180D01*
X88693951Y-121747364D01*
X88695625Y-121806699D01*
X88691300Y-121859802D01*
X88679260Y-121911002D01*
X88657786Y-121964629D01*
X88625161Y-122025011D01*
X88579666Y-122096478D01*
X88522713Y-122178935D01*
X88493829Y-122238303D01*
X88489237Y-122296883D01*
X88507995Y-122350964D01*
X88549164Y-122396836D01*
X88583402Y-122418455D01*
X88620312Y-122435160D01*
X88648064Y-122439413D01*
X88679049Y-122432208D01*
X88692798Y-122427221D01*
X88744030Y-122396533D01*
X88800082Y-122341489D01*
X88860477Y-122262574D01*
X88874258Y-122242120D01*
X88941511Y-122121321D01*
X88989378Y-121993966D01*
X89016702Y-121864677D01*
X89022326Y-121738080D01*
X89016228Y-121674416D01*
X88994708Y-121571278D01*
X88960731Y-121475803D01*
X88911695Y-121382933D01*
X88844994Y-121287608D01*
X88772418Y-121200821D01*
X88700718Y-121112844D01*
X88649515Y-121032070D01*
X88616691Y-120954140D01*
X88600127Y-120874692D01*
X88597570Y-120841063D01*
X89029525Y-120841063D01*
X89030515Y-120865900D01*
X89042985Y-120976220D01*
X89070067Y-121078384D01*
X89113808Y-121176833D01*
X89176258Y-121276009D01*
X89259463Y-121380354D01*
X89276708Y-121399922D01*
X89321441Y-121453749D01*
X89364038Y-121511470D01*
X89398323Y-121564447D01*
X89411273Y-121588174D01*
X89432208Y-121633569D01*
X89444539Y-121671093D01*
X89450436Y-121710948D01*
X89452067Y-121763337D01*
X89452061Y-121780032D01*
X89450423Y-121840058D01*
X89444593Y-121885518D01*
X89432429Y-121927160D01*
X89414048Y-121970800D01*
X89385541Y-122025361D01*
X89350437Y-122081708D01*
X89323945Y-122117902D01*
X89285152Y-122167517D01*
X89260786Y-122204632D01*
X89247797Y-122235178D01*
X89243132Y-122265083D01*
X89242900Y-122275395D01*
X89254019Y-122334454D01*
X89284055Y-122382265D01*
X89328025Y-122416180D01*
X89380944Y-122433548D01*
X89437830Y-122431722D01*
X89493151Y-122408413D01*
X89534956Y-122371769D01*
X89580912Y-122316052D01*
X89627910Y-122246530D01*
X89672840Y-122168470D01*
X89712592Y-122087139D01*
X89744056Y-122007804D01*
X89759026Y-121958100D01*
X89773894Y-121873076D01*
X89779480Y-121778566D01*
X89775807Y-121684750D01*
X89762902Y-121601808D01*
X89758087Y-121583450D01*
X89714844Y-121470575D01*
X89652166Y-121357517D01*
X89575518Y-121253570D01*
X89506766Y-121170964D01*
X89453625Y-121102955D01*
X89414161Y-121045772D01*
X89386442Y-120995644D01*
X89368533Y-120948799D01*
X89358503Y-120901468D01*
X89354418Y-120849878D01*
X89354001Y-120821450D01*
X89359434Y-120745903D01*
X89377063Y-120673423D01*
X89408880Y-120599360D01*
X89456876Y-120519064D01*
X89522156Y-120429036D01*
X89550753Y-120381656D01*
X89560334Y-120334748D01*
X89560400Y-120329981D01*
X89550000Y-120264671D01*
X89519952Y-120214759D01*
X89471976Y-120181918D01*
X89407797Y-120167822D01*
X89392992Y-120167400D01*
X89365299Y-120168853D01*
X89342656Y-120175667D01*
X89319084Y-120191521D01*
X89288602Y-120220094D01*
X89260818Y-120248727D01*
X89195428Y-120327744D01*
X89138654Y-120420804D01*
X89124378Y-120448752D01*
X89077881Y-120553201D01*
X89047783Y-120648021D01*
X89032270Y-120741285D01*
X89029525Y-120841063D01*
X88597570Y-120841063D01*
X88597548Y-120840775D01*
X88601954Y-120745151D01*
X88624674Y-120654985D01*
X88667425Y-120565908D01*
X88731919Y-120473551D01*
X88750661Y-120450607D01*
X88790635Y-120389081D01*
X88805613Y-120329282D01*
X88795843Y-120270123D01*
X88793264Y-120263597D01*
X88759655Y-120213000D01*
X88710349Y-120181548D01*
X88647773Y-120170587D01*
X88627291Y-120171450D01*
X88591551Y-120176334D01*
X88564456Y-120186740D01*
X88537773Y-120207417D01*
X88503582Y-120242768D01*
X88419704Y-120350993D01*
X88351652Y-120473850D01*
X88302176Y-120605097D01*
X88274026Y-120738491D01*
X88270646Y-120771402D01*
X87842335Y-120771402D01*
X87848933Y-120719992D01*
X87883633Y-120617863D01*
X87938900Y-120519043D01*
X87968928Y-120478282D01*
X87998210Y-120440111D01*
X88022512Y-120405979D01*
X88034397Y-120387042D01*
X88048796Y-120335906D01*
X88042090Y-120283585D01*
X88017728Y-120235391D01*
X87979159Y-120196636D01*
X87929832Y-120172633D01*
X87891812Y-120167447D01*
X87842312Y-120174038D01*
X87796891Y-120195658D01*
X87751213Y-120235219D01*
X87700944Y-120295634D01*
X87700791Y-120295838D01*
X87617612Y-120424582D01*
X87557979Y-120557149D01*
X87522044Y-120691776D01*
X87509962Y-120826699D01*
X86708814Y-120826699D01*
X86728687Y-120791364D01*
X86846764Y-120581488D01*
X86965207Y-120371029D01*
X87083350Y-120161174D01*
X87200525Y-119953109D01*
X87316062Y-119748022D01*
X87429296Y-119547098D01*
X87539557Y-119351525D01*
X87646178Y-119162490D01*
X87748490Y-118981179D01*
X87845827Y-118808779D01*
X87937520Y-118646477D01*
X88022901Y-118495458D01*
X88101302Y-118356911D01*
X88172056Y-118232022D01*
X88234495Y-118121977D01*
X88287950Y-118027963D01*
X88331754Y-117951167D01*
X88365239Y-117892776D01*
X88387737Y-117853976D01*
X88398580Y-117835955D01*
X88399182Y-117835087D01*
X88449757Y-117787575D01*
X88517313Y-117752507D01*
X88595332Y-117732686D01*
X88645318Y-117729278D01*
X88734198Y-117738874D01*
G36*
X228718000Y-97619979D02*
G01*
X228771517Y-97620268D01*
X228814487Y-97620783D01*
X228847837Y-97621555D01*
X228872494Y-97622611D01*
X228889386Y-97623981D01*
X228899439Y-97625692D01*
X228903484Y-97627641D01*
X228905946Y-97635283D01*
X228910339Y-97653764D01*
X228916384Y-97681722D01*
X228923802Y-97717793D01*
X228932314Y-97760613D01*
X228941640Y-97808818D01*
X228951502Y-97861046D01*
X228953907Y-97873971D01*
X228963894Y-97926948D01*
X228973483Y-97976215D01*
X228982386Y-98020408D01*
X228990316Y-98058167D01*
X228996986Y-98088131D01*
X229002106Y-98108936D01*
X229005391Y-98119222D01*
X229005872Y-98119972D01*
X229014233Y-98124831D01*
X229032343Y-98133371D01*
X229058366Y-98144850D01*
X229090464Y-98158525D01*
X229126801Y-98173654D01*
X229165540Y-98189497D01*
X229204844Y-98205311D01*
X229242876Y-98220353D01*
X229277800Y-98233883D01*
X229307778Y-98245157D01*
X229330974Y-98253435D01*
X229345551Y-98257974D01*
X229349108Y-98258610D01*
X229359088Y-98255057D01*
X229377861Y-98244886D01*
X229404231Y-98228830D01*
X229437003Y-98207619D01*
X229474979Y-98181986D01*
X229480201Y-98178391D01*
X229520222Y-98150781D01*
X229562890Y-98121345D01*
X229605064Y-98092248D01*
X229643608Y-98065657D01*
X229675382Y-98043737D01*
X229677950Y-98041965D01*
X229706469Y-98022773D01*
X229732136Y-98006398D01*
X229752933Y-97994061D01*
X229766842Y-97986979D01*
X229771010Y-97985759D01*
X229778172Y-97990050D01*
X229792723Y-98002140D01*
X229813489Y-98020858D01*
X229839298Y-98045029D01*
X229868976Y-98073480D01*
X229901350Y-98105039D01*
X229935247Y-98138533D01*
X229969493Y-98172788D01*
X230002916Y-98206631D01*
X230034343Y-98238889D01*
X230062599Y-98268389D01*
X230086513Y-98293959D01*
X230104911Y-98314424D01*
X230116619Y-98328612D01*
X230120478Y-98335200D01*
X230117062Y-98342790D01*
X230107345Y-98359325D01*
X230092123Y-98383575D01*
X230072191Y-98414314D01*
X230048343Y-98450313D01*
X230021377Y-98490345D01*
X229993937Y-98530495D01*
X229964311Y-98573643D01*
X229936563Y-98614230D01*
X229911571Y-98650962D01*
X229890211Y-98682541D01*
X229873361Y-98707672D01*
X229861897Y-98725059D01*
X229856918Y-98733000D01*
X229846440Y-98751604D01*
X229920977Y-98925197D01*
X229940661Y-98970424D01*
X229958996Y-99011369D01*
X229975334Y-99046669D01*
X229989026Y-99074960D01*
X229999425Y-99094878D01*
X230005884Y-99105060D01*
X230006836Y-99105943D01*
X230015356Y-99108666D01*
X230034651Y-99113286D01*
X230063287Y-99119506D01*
X230099832Y-99127033D01*
X230142852Y-99135570D01*
X230190916Y-99144825D01*
X230242590Y-99154501D01*
X230244501Y-99154853D01*
X230296095Y-99164495D01*
X230343972Y-99173680D01*
X230386731Y-99182120D01*
X230422965Y-99189528D01*
X230451273Y-99195617D01*
X230470250Y-99200099D01*
X230478493Y-99202687D01*
X230478596Y-99202760D01*
X230480655Y-99207221D01*
X230482346Y-99217649D01*
X230483696Y-99234969D01*
X230484735Y-99260109D01*
X230485490Y-99293996D01*
X230485992Y-99337557D01*
X230486268Y-99391719D01*
X230486347Y-99453228D01*
X230486347Y-99697548D01*
X230472394Y-99703477D01*
X230463122Y-99705970D01*
X230443169Y-99710338D01*
X230414066Y-99716280D01*
X230377340Y-99723494D01*
X230334522Y-99731679D01*
X230287141Y-99740533D01*
X230250702Y-99747217D01*
X230189945Y-99758334D01*
X230140272Y-99767592D01*
X230100552Y-99775259D01*
X230069651Y-99781601D01*
X230046435Y-99786887D01*
X230029772Y-99791383D01*
X230018528Y-99795357D01*
X230011570Y-99799077D01*
X230007765Y-99802811D01*
X230006667Y-99804820D01*
X229992786Y-99837851D01*
X229977287Y-99875858D01*
X229960773Y-99917246D01*
X229943848Y-99960420D01*
X229927116Y-100003785D01*
X229911182Y-100045746D01*
X229896649Y-100084709D01*
X229884121Y-100119078D01*
X229874202Y-100147258D01*
X229867496Y-100167655D01*
X229864608Y-100178673D01*
X229864599Y-100179991D01*
X229869870Y-100189998D01*
X229880194Y-100206599D01*
X229893397Y-100226308D01*
X229894212Y-100227482D01*
X229947479Y-100304370D01*
X229993681Y-100371627D01*
X230032780Y-100429199D01*
X230064739Y-100477029D01*
X230089522Y-100515064D01*
X230107093Y-100543247D01*
X230117415Y-100561524D01*
X230120478Y-100569523D01*
X230116205Y-100576452D01*
X230104166Y-100590804D01*
X230085528Y-100611407D01*
X230061462Y-100637087D01*
X230033134Y-100666669D01*
X230001714Y-100698980D01*
X229968370Y-100732846D01*
X229934270Y-100767094D01*
X229900584Y-100800549D01*
X229868479Y-100832039D01*
X229839124Y-100860388D01*
X229813688Y-100884423D01*
X229793340Y-100902971D01*
X229779247Y-100914858D01*
X229772655Y-100918913D01*
X229765447Y-100915510D01*
X229749261Y-100905825D01*
X229725309Y-100890648D01*
X229694802Y-100870769D01*
X229658952Y-100846977D01*
X229618970Y-100820060D01*
X229577498Y-100791789D01*
X229534714Y-100762612D01*
X229494932Y-100735794D01*
X229459358Y-100712122D01*
X229429195Y-100692385D01*
X229405649Y-100677372D01*
X229389922Y-100667870D01*
X229383279Y-100664665D01*
X229374912Y-100667443D01*
X229357796Y-100675090D01*
X229334089Y-100686578D01*
X229305952Y-100700877D01*
X229292194Y-100708073D01*
X229254983Y-100727267D01*
X229227068Y-100740484D01*
X229207129Y-100748154D01*
X229193841Y-100750706D01*
X229185883Y-100748571D01*
X229182446Y-100743730D01*
X229179626Y-100736827D01*
X229172452Y-100719417D01*
X229161318Y-100692451D01*
X229146617Y-100656881D01*
X229128743Y-100613657D01*
X229108089Y-100563732D01*
X229085049Y-100508056D01*
X229060016Y-100447579D01*
X229033382Y-100383255D01*
X229016902Y-100343459D01*
X228989603Y-100277322D01*
X228963831Y-100214455D01*
X228939964Y-100155808D01*
X228918381Y-100102330D01*
X228899460Y-100054972D01*
X228883579Y-100014686D01*
X228871117Y-99982420D01*
X228862451Y-99959125D01*
X228857961Y-99945752D01*
X228857430Y-99942884D01*
X228863615Y-99936260D01*
X228877896Y-99924699D01*
X228897951Y-99910001D01*
X228915056Y-99898221D01*
X228976040Y-99853366D01*
X229026456Y-99807236D01*
X229068116Y-99757819D01*
X229102832Y-99703100D01*
X229118721Y-99671927D01*
X229144340Y-99608024D01*
X229159913Y-99544163D01*
X229166404Y-99476054D01*
X229166718Y-99458537D01*
X229161215Y-99378531D01*
X229144345Y-99302555D01*
X229116712Y-99231396D01*
X229078919Y-99165841D01*
X229031571Y-99106678D01*
X228975271Y-99054694D01*
X228910624Y-99010676D01*
X228838232Y-98975411D01*
X228781025Y-98955700D01*
X228757934Y-98950190D01*
X228731985Y-98946605D01*
X228700057Y-98944652D01*
X228659027Y-98944038D01*
X228657001Y-98944038D01*
X228608977Y-98945015D01*
X228569041Y-98948453D01*
X228532997Y-98955118D01*
X228496647Y-98965779D01*
X228457585Y-98980475D01*
X228392095Y-99013393D01*
X228331179Y-99056767D01*
X228276413Y-99109016D01*
X228229373Y-99168562D01*
X228191636Y-99233826D01*
X228180956Y-99257634D01*
X228157456Y-99329631D01*
X228144786Y-99405141D01*
X228143046Y-99481796D01*
X228152335Y-99557229D01*
X228166235Y-99610466D01*
X228185340Y-99661637D01*
X228208322Y-99708094D01*
X228236427Y-99751300D01*
X228270900Y-99792715D01*
X228312986Y-99833803D01*
X228363933Y-99876026D01*
X228424985Y-99920845D01*
X228439033Y-99930604D01*
X228449605Y-99941601D01*
X228450281Y-99955809D01*
X228450044Y-99956941D01*
X228447109Y-99965327D01*
X228439805Y-99984177D01*
X228428533Y-100012507D01*
X228413693Y-100049334D01*
X228395686Y-100093672D01*
X228374913Y-100144537D01*
X228351773Y-100200945D01*
X228326667Y-100261911D01*
X228299996Y-100326452D01*
X228285762Y-100360808D01*
X228253418Y-100438687D01*
X228225417Y-100505823D01*
X228201425Y-100562961D01*
X228181111Y-100610847D01*
X228164144Y-100650226D01*
X228150190Y-100681842D01*
X228138919Y-100706441D01*
X228129999Y-100724768D01*
X228123097Y-100737568D01*
X228117882Y-100745587D01*
X228114021Y-100749569D01*
X228112263Y-100750324D01*
X228102473Y-100748172D01*
X228084152Y-100740941D01*
X228059571Y-100729640D01*
X228031002Y-100715282D01*
X228018146Y-100708466D01*
X227988782Y-100693026D01*
X227962675Y-100679996D01*
X227942036Y-100670425D01*
X227929072Y-100665364D01*
X227926386Y-100664835D01*
X227919028Y-100668292D01*
X227902719Y-100678051D01*
X227878675Y-100693317D01*
X227848116Y-100713293D01*
X227812260Y-100737184D01*
X227772324Y-100764193D01*
X227731800Y-100791959D01*
X227689209Y-100821162D01*
X227649633Y-100847998D01*
X227614274Y-100871672D01*
X227584336Y-100891393D01*
X227561021Y-100906367D01*
X227545533Y-100915802D01*
X227539155Y-100918913D01*
X227533023Y-100914661D01*
X227519170Y-100902539D01*
X227498592Y-100883497D01*
X227472288Y-100858486D01*
X227441255Y-100828456D01*
X227406490Y-100794358D01*
X227368991Y-100757142D01*
X227360548Y-100748705D01*
X227322714Y-100710667D01*
X227287704Y-100675111D01*
X227256483Y-100643043D01*
X227230014Y-100615469D01*
X227209261Y-100593394D01*
X227195187Y-100577825D01*
X227188757Y-100569767D01*
X227188467Y-100569120D01*
X227191136Y-100560881D01*
X227199804Y-100544651D01*
X227213243Y-100522515D01*
X227230224Y-100496563D01*
X227237008Y-100486630D01*
X227281372Y-100422365D01*
X227319150Y-100367561D01*
X227350833Y-100321494D01*
X227376912Y-100283440D01*
X227397880Y-100252675D01*
X227414227Y-100228475D01*
X227426444Y-100210117D01*
X227435025Y-100196876D01*
X227440459Y-100188029D01*
X227443193Y-100182950D01*
X227444238Y-100177232D01*
X227443169Y-100167915D01*
X227439591Y-100153831D01*
X227433107Y-100133813D01*
X227423320Y-100106693D01*
X227409833Y-100071306D01*
X227392249Y-100026484D01*
X227376790Y-99987613D01*
X227358718Y-99942687D01*
X227341814Y-99901309D01*
X227326693Y-99864934D01*
X227313969Y-99835018D01*
X227304258Y-99813015D01*
X227298174Y-99800382D01*
X227296702Y-99798051D01*
X227289052Y-99795175D01*
X227270616Y-99790430D01*
X227242818Y-99784119D01*
X227207083Y-99776544D01*
X227164835Y-99768008D01*
X227117500Y-99758813D01*
X227069280Y-99749773D01*
X227018116Y-99740256D01*
X226970396Y-99731210D01*
X226927598Y-99722927D01*
X226891201Y-99715702D01*
X226862682Y-99709827D01*
X226843520Y-99705595D01*
X226835407Y-99703397D01*
X226821454Y-99697548D01*
X226821454Y-99453228D01*
X226821544Y-99388241D01*
X226821832Y-99334728D01*
X226822348Y-99291762D01*
X226823119Y-99258415D01*
X226824175Y-99233762D01*
X226825544Y-99216873D01*
X226827255Y-99206823D01*
X226829206Y-99202779D01*
X226836890Y-99200297D01*
X226855378Y-99195912D01*
X226883266Y-99189909D01*
X226919149Y-99182577D01*
X226961625Y-99174201D01*
X227009288Y-99165068D01*
X227060736Y-99155464D01*
X227063300Y-99154992D01*
X227115151Y-99145298D01*
X227163501Y-99135969D01*
X227206906Y-99127306D01*
X227243923Y-99119609D01*
X227273106Y-99113178D01*
X227293013Y-99108315D01*
X227302198Y-99105320D01*
X227302295Y-99105261D01*
X227308842Y-99096757D01*
X227319574Y-99077161D01*
X227334256Y-99046966D01*
X227352652Y-99006667D01*
X227374527Y-98956759D01*
X227388125Y-98924997D01*
X227409302Y-98874914D01*
X227425916Y-98834940D01*
X227438409Y-98803837D01*
X227447224Y-98780368D01*
X227452804Y-98763293D01*
X227455592Y-98751376D01*
X227456032Y-98743379D01*
X227454838Y-98738621D01*
X227449933Y-98730367D01*
X227438828Y-98713142D01*
X227422356Y-98688192D01*
X227401350Y-98656764D01*
X227376642Y-98620103D01*
X227349065Y-98579454D01*
X227320104Y-98537016D01*
X227290665Y-98493806D01*
X227263436Y-98453459D01*
X227239223Y-98417201D01*
X227218834Y-98386256D01*
X227203076Y-98361852D01*
X227192758Y-98345212D01*
X227188692Y-98337588D01*
X227189801Y-98332430D01*
X227195393Y-98323519D01*
X227206111Y-98310153D01*
X227222597Y-98291633D01*
X227245492Y-98267258D01*
X227275438Y-98236326D01*
X227313078Y-98198137D01*
X227355377Y-98155669D01*
X227397560Y-98113758D01*
X227435621Y-98076527D01*
X227468787Y-98044698D01*
X227496287Y-98018995D01*
X227517350Y-98000140D01*
X227531202Y-97988856D01*
X227536714Y-97985759D01*
X227545332Y-97989136D01*
X227562250Y-97998519D01*
X227585623Y-98012782D01*
X227613603Y-98030801D01*
X227642176Y-98049969D01*
X227679452Y-98075456D01*
X227722982Y-98105239D01*
X227768793Y-98136596D01*
X227812911Y-98166809D01*
X227841495Y-98186395D01*
X227874012Y-98208241D01*
X227903806Y-98227434D01*
X227929120Y-98242907D01*
X227948200Y-98253597D01*
X227959292Y-98258436D01*
X227960494Y-98258610D01*
X227971616Y-98256238D01*
X227991898Y-98249622D01*
X228019545Y-98239517D01*
X228052761Y-98226677D01*
X228089751Y-98211855D01*
X228128719Y-98195805D01*
X228167869Y-98179280D01*
X228205407Y-98163035D01*
X228239536Y-98147823D01*
X228268461Y-98134397D01*
X228290387Y-98123512D01*
X228303519Y-98115921D01*
X228306336Y-98113433D01*
X228309239Y-98104527D01*
X228314004Y-98084856D01*
X228320334Y-98055866D01*
X228327930Y-98019005D01*
X228336494Y-97975720D01*
X228345728Y-97927457D01*
X228355334Y-97875665D01*
X228355613Y-97874138D01*
X228365173Y-97822224D01*
X228374268Y-97773752D01*
X228382612Y-97730177D01*
X228389919Y-97692953D01*
X228395903Y-97663535D01*
X228400280Y-97643377D01*
X228402763Y-97633934D01*
X228402800Y-97633842D01*
X228408689Y-97619890D01*
X228653008Y-97619890D01*
X228718000Y-97619979D01*
X228718000Y-97619979D01*
G37*
X228718000Y-97619979D02*
X228771517Y-97620268D01*
X228814487Y-97620783D01*
X228847837Y-97621555D01*
X228872494Y-97622611D01*
X228889386Y-97623981D01*
X228899439Y-97625692D01*
X228903484Y-97627641D01*
X228905946Y-97635283D01*
X228910339Y-97653764D01*
X228916384Y-97681722D01*
X228923802Y-97717793D01*
X228932314Y-97760613D01*
X228941640Y-97808818D01*
X228951502Y-97861046D01*
X228953907Y-97873971D01*
X228963894Y-97926948D01*
X228973483Y-97976215D01*
X228982386Y-98020408D01*
X228990316Y-98058167D01*
X228996986Y-98088131D01*
X229002106Y-98108936D01*
X229005391Y-98119222D01*
X229005872Y-98119972D01*
X229014233Y-98124831D01*
X229032343Y-98133371D01*
X229058366Y-98144850D01*
X229090464Y-98158525D01*
X229126801Y-98173654D01*
X229165540Y-98189497D01*
X229204844Y-98205311D01*
X229242876Y-98220353D01*
X229277800Y-98233883D01*
X229307778Y-98245157D01*
X229330974Y-98253435D01*
X229345551Y-98257974D01*
X229349108Y-98258610D01*
X229359088Y-98255057D01*
X229377861Y-98244886D01*
X229404231Y-98228830D01*
X229437003Y-98207619D01*
X229474979Y-98181986D01*
X229480201Y-98178391D01*
X229520222Y-98150781D01*
X229562890Y-98121345D01*
X229605064Y-98092248D01*
X229643608Y-98065657D01*
X229675382Y-98043737D01*
X229677950Y-98041965D01*
X229706469Y-98022773D01*
X229732136Y-98006398D01*
X229752933Y-97994061D01*
X229766842Y-97986979D01*
X229771010Y-97985759D01*
X229778172Y-97990050D01*
X229792723Y-98002140D01*
X229813489Y-98020858D01*
X229839298Y-98045029D01*
X229868976Y-98073480D01*
X229901350Y-98105039D01*
X229935247Y-98138533D01*
X229969493Y-98172788D01*
X230002916Y-98206631D01*
X230034343Y-98238889D01*
X230062599Y-98268389D01*
X230086513Y-98293959D01*
X230104911Y-98314424D01*
X230116619Y-98328612D01*
X230120478Y-98335200D01*
X230117062Y-98342790D01*
X230107345Y-98359325D01*
X230092123Y-98383575D01*
X230072191Y-98414314D01*
X230048343Y-98450313D01*
X230021377Y-98490345D01*
X229993937Y-98530495D01*
X229964311Y-98573643D01*
X229936563Y-98614230D01*
X229911571Y-98650962D01*
X229890211Y-98682541D01*
X229873361Y-98707672D01*
X229861897Y-98725059D01*
X229856918Y-98733000D01*
X229846440Y-98751604D01*
X229920977Y-98925197D01*
X229940661Y-98970424D01*
X229958996Y-99011369D01*
X229975334Y-99046669D01*
X229989026Y-99074960D01*
X229999425Y-99094878D01*
X230005884Y-99105060D01*
X230006836Y-99105943D01*
X230015356Y-99108666D01*
X230034651Y-99113286D01*
X230063287Y-99119506D01*
X230099832Y-99127033D01*
X230142852Y-99135570D01*
X230190916Y-99144825D01*
X230242590Y-99154501D01*
X230244501Y-99154853D01*
X230296095Y-99164495D01*
X230343972Y-99173680D01*
X230386731Y-99182120D01*
X230422965Y-99189528D01*
X230451273Y-99195617D01*
X230470250Y-99200099D01*
X230478493Y-99202687D01*
X230478596Y-99202760D01*
X230480655Y-99207221D01*
X230482346Y-99217649D01*
X230483696Y-99234969D01*
X230484735Y-99260109D01*
X230485490Y-99293996D01*
X230485992Y-99337557D01*
X230486268Y-99391719D01*
X230486347Y-99453228D01*
X230486347Y-99697548D01*
X230472394Y-99703477D01*
X230463122Y-99705970D01*
X230443169Y-99710338D01*
X230414066Y-99716280D01*
X230377340Y-99723494D01*
X230334522Y-99731679D01*
X230287141Y-99740533D01*
X230250702Y-99747217D01*
X230189945Y-99758334D01*
X230140272Y-99767592D01*
X230100552Y-99775259D01*
X230069651Y-99781601D01*
X230046435Y-99786887D01*
X230029772Y-99791383D01*
X230018528Y-99795357D01*
X230011570Y-99799077D01*
X230007765Y-99802811D01*
X230006667Y-99804820D01*
X229992786Y-99837851D01*
X229977287Y-99875858D01*
X229960773Y-99917246D01*
X229943848Y-99960420D01*
X229927116Y-100003785D01*
X229911182Y-100045746D01*
X229896649Y-100084709D01*
X229884121Y-100119078D01*
X229874202Y-100147258D01*
X229867496Y-100167655D01*
X229864608Y-100178673D01*
X229864599Y-100179991D01*
X229869870Y-100189998D01*
X229880194Y-100206599D01*
X229893397Y-100226308D01*
X229894212Y-100227482D01*
X229947479Y-100304370D01*
X229993681Y-100371627D01*
X230032780Y-100429199D01*
X230064739Y-100477029D01*
X230089522Y-100515064D01*
X230107093Y-100543247D01*
X230117415Y-100561524D01*
X230120478Y-100569523D01*
X230116205Y-100576452D01*
X230104166Y-100590804D01*
X230085528Y-100611407D01*
X230061462Y-100637087D01*
X230033134Y-100666669D01*
X230001714Y-100698980D01*
X229968370Y-100732846D01*
X229934270Y-100767094D01*
X229900584Y-100800549D01*
X229868479Y-100832039D01*
X229839124Y-100860388D01*
X229813688Y-100884423D01*
X229793340Y-100902971D01*
X229779247Y-100914858D01*
X229772655Y-100918913D01*
X229765447Y-100915510D01*
X229749261Y-100905825D01*
X229725309Y-100890648D01*
X229694802Y-100870769D01*
X229658952Y-100846977D01*
X229618970Y-100820060D01*
X229577498Y-100791789D01*
X229534714Y-100762612D01*
X229494932Y-100735794D01*
X229459358Y-100712122D01*
X229429195Y-100692385D01*
X229405649Y-100677372D01*
X229389922Y-100667870D01*
X229383279Y-100664665D01*
X229374912Y-100667443D01*
X229357796Y-100675090D01*
X229334089Y-100686578D01*
X229305952Y-100700877D01*
X229292194Y-100708073D01*
X229254983Y-100727267D01*
X229227068Y-100740484D01*
X229207129Y-100748154D01*
X229193841Y-100750706D01*
X229185883Y-100748571D01*
X229182446Y-100743730D01*
X229179626Y-100736827D01*
X229172452Y-100719417D01*
X229161318Y-100692451D01*
X229146617Y-100656881D01*
X229128743Y-100613657D01*
X229108089Y-100563732D01*
X229085049Y-100508056D01*
X229060016Y-100447579D01*
X229033382Y-100383255D01*
X229016902Y-100343459D01*
X228989603Y-100277322D01*
X228963831Y-100214455D01*
X228939964Y-100155808D01*
X228918381Y-100102330D01*
X228899460Y-100054972D01*
X228883579Y-100014686D01*
X228871117Y-99982420D01*
X228862451Y-99959125D01*
X228857961Y-99945752D01*
X228857430Y-99942884D01*
X228863615Y-99936260D01*
X228877896Y-99924699D01*
X228897951Y-99910001D01*
X228915056Y-99898221D01*
X228976040Y-99853366D01*
X229026456Y-99807236D01*
X229068116Y-99757819D01*
X229102832Y-99703100D01*
X229118721Y-99671927D01*
X229144340Y-99608024D01*
X229159913Y-99544163D01*
X229166404Y-99476054D01*
X229166718Y-99458537D01*
X229161215Y-99378531D01*
X229144345Y-99302555D01*
X229116712Y-99231396D01*
X229078919Y-99165841D01*
X229031571Y-99106678D01*
X228975271Y-99054694D01*
X228910624Y-99010676D01*
X228838232Y-98975411D01*
X228781025Y-98955700D01*
X228757934Y-98950190D01*
X228731985Y-98946605D01*
X228700057Y-98944652D01*
X228659027Y-98944038D01*
X228657001Y-98944038D01*
X228608977Y-98945015D01*
X228569041Y-98948453D01*
X228532997Y-98955118D01*
X228496647Y-98965779D01*
X228457585Y-98980475D01*
X228392095Y-99013393D01*
X228331179Y-99056767D01*
X228276413Y-99109016D01*
X228229373Y-99168562D01*
X228191636Y-99233826D01*
X228180956Y-99257634D01*
X228157456Y-99329631D01*
X228144786Y-99405141D01*
X228143046Y-99481796D01*
X228152335Y-99557229D01*
X228166235Y-99610466D01*
X228185340Y-99661637D01*
X228208322Y-99708094D01*
X228236427Y-99751300D01*
X228270900Y-99792715D01*
X228312986Y-99833803D01*
X228363933Y-99876026D01*
X228424985Y-99920845D01*
X228439033Y-99930604D01*
X228449605Y-99941601D01*
X228450281Y-99955809D01*
X228450044Y-99956941D01*
X228447109Y-99965327D01*
X228439805Y-99984177D01*
X228428533Y-100012507D01*
X228413693Y-100049334D01*
X228395686Y-100093672D01*
X228374913Y-100144537D01*
X228351773Y-100200945D01*
X228326667Y-100261911D01*
X228299996Y-100326452D01*
X228285762Y-100360808D01*
X228253418Y-100438687D01*
X228225417Y-100505823D01*
X228201425Y-100562961D01*
X228181111Y-100610847D01*
X228164144Y-100650226D01*
X228150190Y-100681842D01*
X228138919Y-100706441D01*
X228129999Y-100724768D01*
X228123097Y-100737568D01*
X228117882Y-100745587D01*
X228114021Y-100749569D01*
X228112263Y-100750324D01*
X228102473Y-100748172D01*
X228084152Y-100740941D01*
X228059571Y-100729640D01*
X228031002Y-100715282D01*
X228018146Y-100708466D01*
X227988782Y-100693026D01*
X227962675Y-100679996D01*
X227942036Y-100670425D01*
X227929072Y-100665364D01*
X227926386Y-100664835D01*
X227919028Y-100668292D01*
X227902719Y-100678051D01*
X227878675Y-100693317D01*
X227848116Y-100713293D01*
X227812260Y-100737184D01*
X227772324Y-100764193D01*
X227731800Y-100791959D01*
X227689209Y-100821162D01*
X227649633Y-100847998D01*
X227614274Y-100871672D01*
X227584336Y-100891393D01*
X227561021Y-100906367D01*
X227545533Y-100915802D01*
X227539155Y-100918913D01*
X227533023Y-100914661D01*
X227519170Y-100902539D01*
X227498592Y-100883497D01*
X227472288Y-100858486D01*
X227441255Y-100828456D01*
X227406490Y-100794358D01*
X227368991Y-100757142D01*
X227360548Y-100748705D01*
X227322714Y-100710667D01*
X227287704Y-100675111D01*
X227256483Y-100643043D01*
X227230014Y-100615469D01*
X227209261Y-100593394D01*
X227195187Y-100577825D01*
X227188757Y-100569767D01*
X227188467Y-100569120D01*
X227191136Y-100560881D01*
X227199804Y-100544651D01*
X227213243Y-100522515D01*
X227230224Y-100496563D01*
X227237008Y-100486630D01*
X227281372Y-100422365D01*
X227319150Y-100367561D01*
X227350833Y-100321494D01*
X227376912Y-100283440D01*
X227397880Y-100252675D01*
X227414227Y-100228475D01*
X227426444Y-100210117D01*
X227435025Y-100196876D01*
X227440459Y-100188029D01*
X227443193Y-100182950D01*
X227444238Y-100177232D01*
X227443169Y-100167915D01*
X227439591Y-100153831D01*
X227433107Y-100133813D01*
X227423320Y-100106693D01*
X227409833Y-100071306D01*
X227392249Y-100026484D01*
X227376790Y-99987613D01*
X227358718Y-99942687D01*
X227341814Y-99901309D01*
X227326693Y-99864934D01*
X227313969Y-99835018D01*
X227304258Y-99813015D01*
X227298174Y-99800382D01*
X227296702Y-99798051D01*
X227289052Y-99795175D01*
X227270616Y-99790430D01*
X227242818Y-99784119D01*
X227207083Y-99776544D01*
X227164835Y-99768008D01*
X227117500Y-99758813D01*
X227069280Y-99749773D01*
X227018116Y-99740256D01*
X226970396Y-99731210D01*
X226927598Y-99722927D01*
X226891201Y-99715702D01*
X226862682Y-99709827D01*
X226843520Y-99705595D01*
X226835407Y-99703397D01*
X226821454Y-99697548D01*
X226821454Y-99453228D01*
X226821544Y-99388241D01*
X226821832Y-99334728D01*
X226822348Y-99291762D01*
X226823119Y-99258415D01*
X226824175Y-99233762D01*
X226825544Y-99216873D01*
X226827255Y-99206823D01*
X226829206Y-99202779D01*
X226836890Y-99200297D01*
X226855378Y-99195912D01*
X226883266Y-99189909D01*
X226919149Y-99182577D01*
X226961625Y-99174201D01*
X227009288Y-99165068D01*
X227060736Y-99155464D01*
X227063300Y-99154992D01*
X227115151Y-99145298D01*
X227163501Y-99135969D01*
X227206906Y-99127306D01*
X227243923Y-99119609D01*
X227273106Y-99113178D01*
X227293013Y-99108315D01*
X227302198Y-99105320D01*
X227302295Y-99105261D01*
X227308842Y-99096757D01*
X227319574Y-99077161D01*
X227334256Y-99046966D01*
X227352652Y-99006667D01*
X227374527Y-98956759D01*
X227388125Y-98924997D01*
X227409302Y-98874914D01*
X227425916Y-98834940D01*
X227438409Y-98803837D01*
X227447224Y-98780368D01*
X227452804Y-98763293D01*
X227455592Y-98751376D01*
X227456032Y-98743379D01*
X227454838Y-98738621D01*
X227449933Y-98730367D01*
X227438828Y-98713142D01*
X227422356Y-98688192D01*
X227401350Y-98656764D01*
X227376642Y-98620103D01*
X227349065Y-98579454D01*
X227320104Y-98537016D01*
X227290665Y-98493806D01*
X227263436Y-98453459D01*
X227239223Y-98417201D01*
X227218834Y-98386256D01*
X227203076Y-98361852D01*
X227192758Y-98345212D01*
X227188692Y-98337588D01*
X227189801Y-98332430D01*
X227195393Y-98323519D01*
X227206111Y-98310153D01*
X227222597Y-98291633D01*
X227245492Y-98267258D01*
X227275438Y-98236326D01*
X227313078Y-98198137D01*
X227355377Y-98155669D01*
X227397560Y-98113758D01*
X227435621Y-98076527D01*
X227468787Y-98044698D01*
X227496287Y-98018995D01*
X227517350Y-98000140D01*
X227531202Y-97988856D01*
X227536714Y-97985759D01*
X227545332Y-97989136D01*
X227562250Y-97998519D01*
X227585623Y-98012782D01*
X227613603Y-98030801D01*
X227642176Y-98049969D01*
X227679452Y-98075456D01*
X227722982Y-98105239D01*
X227768793Y-98136596D01*
X227812911Y-98166809D01*
X227841495Y-98186395D01*
X227874012Y-98208241D01*
X227903806Y-98227434D01*
X227929120Y-98242907D01*
X227948200Y-98253597D01*
X227959292Y-98258436D01*
X227960494Y-98258610D01*
X227971616Y-98256238D01*
X227991898Y-98249622D01*
X228019545Y-98239517D01*
X228052761Y-98226677D01*
X228089751Y-98211855D01*
X228128719Y-98195805D01*
X228167869Y-98179280D01*
X228205407Y-98163035D01*
X228239536Y-98147823D01*
X228268461Y-98134397D01*
X228290387Y-98123512D01*
X228303519Y-98115921D01*
X228306336Y-98113433D01*
X228309239Y-98104527D01*
X228314004Y-98084856D01*
X228320334Y-98055866D01*
X228327930Y-98019005D01*
X228336494Y-97975720D01*
X228345728Y-97927457D01*
X228355334Y-97875665D01*
X228355613Y-97874138D01*
X228365173Y-97822224D01*
X228374268Y-97773752D01*
X228382612Y-97730177D01*
X228389919Y-97692953D01*
X228395903Y-97663535D01*
X228400280Y-97643377D01*
X228402763Y-97633934D01*
X228402800Y-97633842D01*
X228408689Y-97619890D01*
X228653008Y-97619890D01*
X228718000Y-97619979D01*
D12*
X202946000Y-162306000D02*
X202946000Y-158242000D01*
X208026000Y-158242000D02*
X208026000Y-162306000D01*
X202946000Y-162306000D02*
X203073000Y-162306000D01*
X208026000Y-162306000D02*
X207879000Y-162306000D01*
X208026000Y-158242000D02*
X207879000Y-158242000D01*
X202946000Y-158242000D02*
X203073000Y-158242000D01*
D13*
G36*
X202819000Y-162687000D02*
G01*
X202946000Y-162560000D01*
X203073000Y-162687000D01*
X202946000Y-162814000D01*
X202819000Y-162687000D01*
G37*
X202819000Y-162687000D02*
X202946000Y-162560000D01*
X203073000Y-162687000D01*
X202946000Y-162814000D01*
X202819000Y-162687000D01*
D14*
X203073000Y-162687000D02*
G75*
G03X203073000Y-162687000I-127000J0D01*
G01*
D12*
X186944000Y-135930000D02*
X186436000Y-135930000D01*
X186436000Y-135930000D02*
X186436000Y-120690000D01*
X186436000Y-120690000D02*
X186944000Y-120690000D01*
X190500000Y-135930000D02*
X189992000Y-135930000D01*
X190500000Y-120690000D02*
X190500000Y-135930000D01*
X189992000Y-120690000D02*
X190500000Y-120690000D01*
X242316000Y-112522000D02*
X242316000Y-109474000D01*
X239268000Y-112522000D02*
X239268000Y-109474000D01*
X242316000Y-112522000D02*
X242167000Y-112522000D01*
X242316000Y-109474000D02*
X242167000Y-109474000D01*
X239268000Y-109474000D02*
X239417000Y-109474000D01*
X239268000Y-112522000D02*
X239417000Y-112522000D01*
D14*
X239522000Y-112903000D02*
G75*
G03X239522000Y-112903000I-127000J0D01*
G01*
D13*
G36*
X239268000Y-112903000D02*
G01*
X239395000Y-112776000D01*
X239522000Y-112903000D01*
X239395000Y-113030000D01*
X239268000Y-112903000D01*
G37*
X239268000Y-112903000D02*
X239395000Y-112776000D01*
X239522000Y-112903000D01*
X239395000Y-113030000D01*
X239268000Y-112903000D01*
D12*
X186944000Y-161290000D02*
X186436000Y-161290000D01*
X186436000Y-161290000D02*
X186436000Y-146050000D01*
X186436000Y-146050000D02*
X186944000Y-146050000D01*
X190500000Y-161290000D02*
X189992000Y-161290000D01*
X190500000Y-146050000D02*
X190500000Y-161290000D01*
X189992000Y-146050000D02*
X190500000Y-146050000D01*
X240411000Y-75565000D02*
X238633000Y-75565000D01*
X238633000Y-75565000D02*
X238633000Y-72263000D01*
X238633000Y-72263000D02*
X240411000Y-72263000D01*
X240411000Y-72263000D02*
X240411000Y-75565000D01*
X248793000Y-72263000D02*
X250571000Y-72263000D01*
X250571000Y-72263000D02*
X250571000Y-75565000D01*
X250571000Y-75565000D02*
X248793000Y-75565000D01*
X248793000Y-75565000D02*
X248793000Y-72263000D01*
X251333000Y-75565000D02*
X251333000Y-72263000D01*
X253111000Y-75565000D02*
X251333000Y-75565000D01*
X253111000Y-72263000D02*
X253111000Y-75565000D01*
X251333000Y-72263000D02*
X253111000Y-72263000D01*
X235585000Y-118491000D02*
X232283000Y-118491000D01*
X235585000Y-116713000D02*
X235585000Y-118491000D01*
X232283000Y-116713000D02*
X235585000Y-116713000D01*
X232283000Y-118491000D02*
X232283000Y-116713000D01*
X231775000Y-116713000D02*
X231775000Y-118491000D01*
X231775000Y-118491000D02*
X228473000Y-118491000D01*
X228473000Y-118491000D02*
X228473000Y-116713000D01*
X228473000Y-116713000D02*
X231775000Y-116713000D01*
X239776000Y-120015000D02*
X236474000Y-120015000D01*
X239776000Y-118237000D02*
X239776000Y-120015000D01*
X236474000Y-118237000D02*
X239776000Y-118237000D01*
X236474000Y-120015000D02*
X236474000Y-118237000D01*
X239776000Y-122301000D02*
X236474000Y-122301000D01*
X239776000Y-120523000D02*
X239776000Y-122301000D01*
X236474000Y-120523000D02*
X239776000Y-120523000D01*
X236474000Y-122301000D02*
X236474000Y-120523000D01*
X236474000Y-124587000D02*
X236474000Y-122809000D01*
X236474000Y-122809000D02*
X239776000Y-122809000D01*
X239776000Y-122809000D02*
X239776000Y-124587000D01*
X239776000Y-124587000D02*
X236474000Y-124587000D01*
X220472000Y-112014000D02*
X220472000Y-115316000D01*
X218694000Y-112014000D02*
X220472000Y-112014000D01*
X218694000Y-115316000D02*
X218694000Y-112014000D01*
X220472000Y-115316000D02*
X218694000Y-115316000D01*
X218821000Y-154051000D02*
X220599000Y-154051000D01*
X220599000Y-154051000D02*
X220599000Y-157353000D01*
X220599000Y-157353000D02*
X218821000Y-157353000D01*
X218821000Y-157353000D02*
X218821000Y-154051000D01*
X238658400Y-109321600D02*
X238658400Y-112623600D01*
X236880400Y-109321600D02*
X238658400Y-109321600D01*
X236880400Y-112623600D02*
X236880400Y-109321600D01*
X238658400Y-112623600D02*
X236880400Y-112623600D01*
X236372400Y-112623600D02*
X234594400Y-112623600D01*
X234594400Y-112623600D02*
X234594400Y-109321600D01*
X234594400Y-109321600D02*
X236372400Y-109321600D01*
X236372400Y-109321600D02*
X236372400Y-112623600D01*
X204597000Y-156083000D02*
X202819000Y-156083000D01*
X202819000Y-156083000D02*
X202819000Y-152781000D01*
X202819000Y-152781000D02*
X204597000Y-152781000D01*
X204597000Y-152781000D02*
X204597000Y-156083000D01*
X200025000Y-88265000D02*
X201803000Y-88265000D01*
X201803000Y-88265000D02*
X201803000Y-91567000D01*
X201803000Y-91567000D02*
X200025000Y-91567000D01*
X200025000Y-91567000D02*
X200025000Y-88265000D01*
X200025000Y-141732000D02*
X200025000Y-138430000D01*
X201803000Y-141732000D02*
X200025000Y-141732000D01*
X201803000Y-138430000D02*
X201803000Y-141732000D01*
X200025000Y-138430000D02*
X201803000Y-138430000D01*
X207899000Y-145669000D02*
X207899000Y-148971000D01*
X206121000Y-145669000D02*
X207899000Y-145669000D01*
X206121000Y-148971000D02*
X206121000Y-145669000D01*
X207899000Y-148971000D02*
X206121000Y-148971000D01*
X251333000Y-138557000D02*
X251333000Y-141859000D01*
X249555000Y-138557000D02*
X251333000Y-138557000D01*
X249555000Y-141859000D02*
X249555000Y-138557000D01*
X251333000Y-141859000D02*
X249555000Y-141859000D01*
X243205000Y-138557000D02*
X244983000Y-138557000D01*
X244983000Y-138557000D02*
X244983000Y-141859000D01*
X244983000Y-141859000D02*
X243205000Y-141859000D01*
X243205000Y-141859000D02*
X243205000Y-138557000D01*
X226822000Y-67310000D02*
X231394000Y-67310000D01*
X231394000Y-67310000D02*
X231394000Y-60198000D01*
X231394000Y-60198000D02*
X226822000Y-60198000D01*
X226822000Y-60198000D02*
X226822000Y-67310000D01*
X256159000Y-66675000D02*
X254381000Y-66675000D01*
X254381000Y-66675000D02*
X254381000Y-63373000D01*
X254381000Y-63373000D02*
X256159000Y-63373000D01*
X256159000Y-63373000D02*
X256159000Y-66675000D01*
X245491000Y-145161000D02*
X245491000Y-148463000D01*
X243713000Y-145161000D02*
X245491000Y-145161000D01*
X243713000Y-148463000D02*
X243713000Y-145161000D01*
X245491000Y-148463000D02*
X243713000Y-148463000D01*
X179832000Y-156464000D02*
X172720000Y-156464000D01*
X179832000Y-161036000D02*
X179832000Y-156464000D01*
X172720000Y-161036000D02*
X179832000Y-161036000D01*
X172720000Y-156464000D02*
X172720000Y-161036000D01*
X172720000Y-131064000D02*
X172720000Y-135636000D01*
X172720000Y-135636000D02*
X179832000Y-135636000D01*
X179832000Y-135636000D02*
X179832000Y-131064000D01*
X179832000Y-131064000D02*
X172720000Y-131064000D01*
X179832000Y-105664000D02*
X172720000Y-105664000D01*
X179832000Y-110236000D02*
X179832000Y-105664000D01*
X172720000Y-110236000D02*
X179832000Y-110236000D01*
X172720000Y-105664000D02*
X172720000Y-110236000D01*
X172720000Y-80264000D02*
X172720000Y-84836000D01*
X172720000Y-84836000D02*
X179832000Y-84836000D01*
X179832000Y-84836000D02*
X179832000Y-80264000D01*
X179832000Y-80264000D02*
X172720000Y-80264000D01*
X222885000Y-112014000D02*
X222885000Y-115316000D01*
X221107000Y-112014000D02*
X222885000Y-112014000D01*
X221107000Y-115316000D02*
X221107000Y-112014000D01*
X222885000Y-115316000D02*
X221107000Y-115316000D01*
X221361000Y-157353000D02*
X221361000Y-154051000D01*
X223139000Y-157353000D02*
X221361000Y-157353000D01*
X223139000Y-154051000D02*
X223139000Y-157353000D01*
X221361000Y-154051000D02*
X223139000Y-154051000D01*
X234086400Y-109321600D02*
X234086400Y-112623600D01*
X232308400Y-109321600D02*
X234086400Y-109321600D01*
X232308400Y-112623600D02*
X232308400Y-109321600D01*
X234086400Y-112623600D02*
X232308400Y-112623600D01*
X205359000Y-156083000D02*
X205359000Y-152781000D01*
X207137000Y-156083000D02*
X205359000Y-156083000D01*
X207137000Y-152781000D02*
X207137000Y-156083000D01*
X205359000Y-152781000D02*
X207137000Y-152781000D01*
X199263000Y-88265000D02*
X199263000Y-91567000D01*
X197485000Y-88265000D02*
X199263000Y-88265000D01*
X197485000Y-91567000D02*
X197485000Y-88265000D01*
X199263000Y-91567000D02*
X197485000Y-91567000D01*
X199263000Y-141732000D02*
X197485000Y-141732000D01*
X197485000Y-141732000D02*
X197485000Y-138430000D01*
X197485000Y-138430000D02*
X199263000Y-138430000D01*
X199263000Y-138430000D02*
X199263000Y-141732000D01*
X202182000Y-148844000D02*
X200687000Y-148844000D01*
X202182000Y-145796000D02*
X200687000Y-145796000D01*
X202182000Y-145796000D02*
X202182000Y-146726000D01*
X202182000Y-148844000D02*
X202182000Y-147914000D01*
X200687000Y-146939000D02*
X200687000Y-147701000D01*
X200687000Y-135255000D02*
X200687000Y-136017000D01*
X202182000Y-137160000D02*
X202182000Y-136230000D01*
X202182000Y-134112000D02*
X202182000Y-135042000D01*
X202182000Y-134112000D02*
X200687000Y-134112000D01*
X202182000Y-137160000D02*
X200687000Y-137160000D01*
X200687000Y-96647000D02*
X200687000Y-97409000D01*
X202182000Y-98552000D02*
X202182000Y-97622000D01*
X202182000Y-95504000D02*
X202182000Y-96434000D01*
X202182000Y-95504000D02*
X200687000Y-95504000D01*
X202182000Y-98552000D02*
X200687000Y-98552000D01*
X202182000Y-86868000D02*
X200687000Y-86868000D01*
X202182000Y-83820000D02*
X200687000Y-83820000D01*
X202182000Y-83820000D02*
X202182000Y-84750000D01*
X202182000Y-86868000D02*
X202182000Y-85938000D01*
X200687000Y-84963000D02*
X200687000Y-85725000D01*
X253619000Y-66675000D02*
X251841000Y-66675000D01*
X251841000Y-66675000D02*
X251841000Y-63373000D01*
X251841000Y-63373000D02*
X253619000Y-63373000D01*
X253619000Y-63373000D02*
X253619000Y-66675000D01*
X246634000Y-125349000D02*
X246634000Y-127127000D01*
X246634000Y-127127000D02*
X243332000Y-127127000D01*
X243332000Y-127127000D02*
X243332000Y-125349000D01*
X243332000Y-125349000D02*
X246634000Y-125349000D01*
X234315000Y-122809000D02*
X234315000Y-124587000D01*
X234315000Y-124587000D02*
X231013000Y-124587000D01*
X231013000Y-124587000D02*
X231013000Y-122809000D01*
X231013000Y-122809000D02*
X234315000Y-122809000D01*
X241427000Y-145161000D02*
X243205000Y-145161000D01*
X243205000Y-145161000D02*
X243205000Y-148463000D01*
X243205000Y-148463000D02*
X241427000Y-148463000D01*
X241427000Y-148463000D02*
X241427000Y-145161000D01*
X226395036Y-132519728D02*
X228729902Y-130184862D01*
X227652272Y-133776964D02*
X226395036Y-132519728D01*
X229987138Y-131442098D02*
X227652272Y-133776964D01*
X228729902Y-130184862D02*
X229987138Y-131442098D01*
X243332000Y-129413000D02*
X243332000Y-127635000D01*
X243332000Y-127635000D02*
X246634000Y-127635000D01*
X246634000Y-127635000D02*
X246634000Y-129413000D01*
X246634000Y-129413000D02*
X243332000Y-129413000D01*
X246634000Y-131699000D02*
X243332000Y-131699000D01*
X246634000Y-129921000D02*
X246634000Y-131699000D01*
X243332000Y-129921000D02*
X246634000Y-129921000D01*
X243332000Y-131699000D02*
X243332000Y-129921000D01*
X246634000Y-119507000D02*
X243332000Y-119507000D01*
X246634000Y-117729000D02*
X246634000Y-119507000D01*
X243332000Y-117729000D02*
X246634000Y-117729000D01*
X243332000Y-119507000D02*
X243332000Y-117729000D01*
X246634000Y-122047000D02*
X243332000Y-122047000D01*
X246634000Y-120269000D02*
X246634000Y-122047000D01*
X243332000Y-120269000D02*
X246634000Y-120269000D01*
X243332000Y-122047000D02*
X243332000Y-120269000D01*
X246507000Y-116967000D02*
X243205000Y-116967000D01*
X246507000Y-115189000D02*
X246507000Y-116967000D01*
X243205000Y-115189000D02*
X246507000Y-115189000D01*
X243205000Y-116967000D02*
X243205000Y-115189000D01*
X212979000Y-116713000D02*
X214757000Y-116713000D01*
X214757000Y-116713000D02*
X214757000Y-120015000D01*
X214757000Y-120015000D02*
X212979000Y-120015000D01*
X212979000Y-120015000D02*
X212979000Y-116713000D01*
X212725000Y-154051000D02*
X214503000Y-154051000D01*
X214503000Y-154051000D02*
X214503000Y-157353000D01*
X214503000Y-157353000D02*
X212725000Y-157353000D01*
X212725000Y-157353000D02*
X212725000Y-154051000D01*
X205105000Y-167767000D02*
X203327000Y-167767000D01*
X203327000Y-167767000D02*
X203327000Y-164465000D01*
X203327000Y-164465000D02*
X205105000Y-164465000D01*
X205105000Y-164465000D02*
X205105000Y-167767000D01*
X207645000Y-164465000D02*
X207645000Y-167767000D01*
X205867000Y-164465000D02*
X207645000Y-164465000D01*
X205867000Y-167767000D02*
X205867000Y-164465000D01*
X207645000Y-167767000D02*
X205867000Y-167767000D01*
X208407000Y-164465000D02*
X210185000Y-164465000D01*
X210185000Y-164465000D02*
X210185000Y-167767000D01*
X210185000Y-167767000D02*
X208407000Y-167767000D01*
X208407000Y-167767000D02*
X208407000Y-164465000D01*
X202565000Y-167767000D02*
X200787000Y-167767000D01*
X200787000Y-167767000D02*
X200787000Y-164465000D01*
X200787000Y-164465000D02*
X202565000Y-164465000D01*
X202565000Y-164465000D02*
X202565000Y-167767000D01*
X203581000Y-145669000D02*
X205359000Y-145669000D01*
X205359000Y-145669000D02*
X205359000Y-148971000D01*
X205359000Y-148971000D02*
X203581000Y-148971000D01*
X203581000Y-148971000D02*
X203581000Y-145669000D01*
X205437500Y-133985000D02*
X205437500Y-137287000D01*
X203659500Y-133985000D02*
X205437500Y-133985000D01*
X203659500Y-137287000D02*
X203659500Y-133985000D01*
X205437500Y-137287000D02*
X203659500Y-137287000D01*
X203581000Y-98679000D02*
X203581000Y-95377000D01*
X205359000Y-98679000D02*
X203581000Y-98679000D01*
X205359000Y-95377000D02*
X205359000Y-98679000D01*
X203581000Y-95377000D02*
X205359000Y-95377000D01*
X205359000Y-86995000D02*
X203581000Y-86995000D01*
X203581000Y-86995000D02*
X203581000Y-83693000D01*
X203581000Y-83693000D02*
X205359000Y-83693000D01*
X205359000Y-83693000D02*
X205359000Y-86995000D01*
X251841000Y-138557000D02*
X253619000Y-138557000D01*
X253619000Y-138557000D02*
X253619000Y-141859000D01*
X253619000Y-141859000D02*
X251841000Y-141859000D01*
X251841000Y-141859000D02*
X251841000Y-138557000D01*
X245491000Y-141859000D02*
X245491000Y-138557000D01*
X247269000Y-141859000D02*
X245491000Y-141859000D01*
X247269000Y-138557000D02*
X247269000Y-141859000D01*
X245491000Y-138557000D02*
X247269000Y-138557000D01*
X232537000Y-138303000D02*
X235839000Y-138303000D01*
X232537000Y-140081000D02*
X232537000Y-138303000D01*
X235839000Y-140081000D02*
X232537000Y-140081000D01*
X235839000Y-138303000D02*
X235839000Y-140081000D01*
X251587000Y-111125000D02*
X251587000Y-114427000D01*
X249809000Y-111125000D02*
X251587000Y-111125000D01*
X249809000Y-114427000D02*
X249809000Y-111125000D01*
X251587000Y-114427000D02*
X249809000Y-114427000D01*
X209677000Y-125778500D02*
X207899000Y-125778500D01*
X207899000Y-125778500D02*
X207899000Y-122476500D01*
X207899000Y-122476500D02*
X209677000Y-122476500D01*
X209677000Y-122476500D02*
X209677000Y-125778500D01*
X209677000Y-111300500D02*
X209677000Y-114602500D01*
X207899000Y-111300500D02*
X209677000Y-111300500D01*
X207899000Y-114602500D02*
X207899000Y-111300500D01*
X209677000Y-114602500D02*
X207899000Y-114602500D01*
X209423000Y-120190500D02*
X207645000Y-120190500D01*
X207645000Y-120190500D02*
X207645000Y-116888500D01*
X207645000Y-116888500D02*
X209423000Y-116888500D01*
X209423000Y-116888500D02*
X209423000Y-120190500D01*
X209677000Y-105712500D02*
X209677000Y-109014500D01*
X207899000Y-105712500D02*
X209677000Y-105712500D01*
X207899000Y-109014500D02*
X207899000Y-105712500D01*
X209677000Y-109014500D02*
X207899000Y-109014500D01*
X245745000Y-108458000D02*
X245745000Y-110708000D01*
X255397000Y-109855000D02*
G75*
G03X255397000Y-109855000I-635000J0D01*
G01*
X254381000Y-110236000D02*
X255143000Y-109474000D01*
X255651000Y-108458000D02*
X255651000Y-106208000D01*
X255651000Y-110708000D02*
X245745000Y-110708000D01*
X255651000Y-106208000D02*
X245745000Y-106208000D01*
X245745000Y-108458000D02*
X245745000Y-106208000D01*
X255651000Y-108458000D02*
X255651000Y-110708000D01*
X247650000Y-124798000D02*
X243332000Y-124798000D01*
X247650000Y-124798000D02*
X247650000Y-122598000D01*
X243332000Y-124798000D02*
X243332000Y-122598000D01*
X247650000Y-122598000D02*
X243332000Y-122598000D01*
X241300000Y-71120000D02*
X241300000Y-67564000D01*
X247904000Y-71120000D02*
X247904000Y-67564000D01*
X247904000Y-67564000D02*
X241300000Y-67564000D01*
X241300000Y-71120000D02*
X247904000Y-71120000D01*
D14*
X241583981Y-71755000D02*
G75*
G03X241583981Y-71755000I-283981J0D01*
G01*
D13*
G36*
X241046000Y-71755000D02*
G01*
X241300000Y-71501000D01*
X241554000Y-71755000D01*
X241300000Y-72009000D01*
X241046000Y-71755000D01*
G37*
X241046000Y-71755000D02*
X241300000Y-71501000D01*
X241554000Y-71755000D01*
X241300000Y-72009000D01*
X241046000Y-71755000D01*
G36*
X215138000Y-118237000D02*
G01*
X215265000Y-118110000D01*
X215392000Y-118237000D01*
X215265000Y-118364000D01*
X215138000Y-118237000D01*
G37*
X215138000Y-118237000D02*
X215265000Y-118110000D01*
X215392000Y-118237000D01*
X215265000Y-118364000D01*
X215138000Y-118237000D01*
D14*
X215392000Y-118237000D02*
G75*
G03X215392000Y-118237000I-127000J0D01*
G01*
D12*
X218162000Y-114832000D02*
X217932000Y-114832000D01*
X218162000Y-117832000D02*
X217932000Y-117832000D01*
X215162000Y-114832000D02*
X215392000Y-114832000D01*
X215162000Y-117832000D02*
X215392000Y-117832000D01*
X215162000Y-114832000D02*
X215162000Y-117832000D01*
X218162000Y-114832000D02*
X218162000Y-117832000D01*
X218162000Y-154202000D02*
X218162000Y-157202000D01*
X215162000Y-154202000D02*
X215162000Y-157202000D01*
X215162000Y-157202000D02*
X215392000Y-157202000D01*
X215162000Y-154202000D02*
X215392000Y-154202000D01*
X218162000Y-157202000D02*
X217932000Y-157202000D01*
X218162000Y-154202000D02*
X217932000Y-154202000D01*
D14*
X215392000Y-157607000D02*
G75*
G03X215392000Y-157607000I-127000J0D01*
G01*
D13*
G36*
X215138000Y-157607000D02*
G01*
X215265000Y-157480000D01*
X215392000Y-157607000D01*
X215265000Y-157734000D01*
X215138000Y-157607000D01*
G37*
X215138000Y-157607000D02*
X215265000Y-157480000D01*
X215392000Y-157607000D01*
X215265000Y-157734000D01*
X215138000Y-157607000D01*
D12*
X251385000Y-135001000D02*
X252401000Y-135001000D01*
X253417000Y-135001000D02*
X253417000Y-137033000D01*
X250369000Y-135001000D02*
X250369000Y-137033000D01*
X253417000Y-135001000D02*
X253293000Y-135001000D01*
X250369000Y-135001000D02*
X250493000Y-135001000D01*
X250369000Y-137033000D02*
X250493000Y-137033000D01*
X253417000Y-137033000D02*
X253293000Y-137033000D01*
D14*
X250496000Y-137414000D02*
G75*
G03X250496000Y-137414000I-127000J0D01*
G01*
D13*
G36*
X250242000Y-137414000D02*
G01*
X250369000Y-137287000D01*
X250496000Y-137414000D01*
X250369000Y-137541000D01*
X250242000Y-137414000D01*
G37*
X250242000Y-137414000D02*
X250369000Y-137287000D01*
X250496000Y-137414000D01*
X250369000Y-137541000D01*
X250242000Y-137414000D01*
G36*
X243967000Y-137414000D02*
G01*
X244094000Y-137287000D01*
X244221000Y-137414000D01*
X244094000Y-137541000D01*
X243967000Y-137414000D01*
G37*
X243967000Y-137414000D02*
X244094000Y-137287000D01*
X244221000Y-137414000D01*
X244094000Y-137541000D01*
X243967000Y-137414000D01*
D14*
X244221000Y-137414000D02*
G75*
G03X244221000Y-137414000I-127000J0D01*
G01*
D12*
X247142000Y-137033000D02*
X247018000Y-137033000D01*
X244094000Y-137033000D02*
X244218000Y-137033000D01*
X244094000Y-135001000D02*
X244218000Y-135001000D01*
X247142000Y-135001000D02*
X247018000Y-135001000D01*
X244094000Y-135001000D02*
X244094000Y-137033000D01*
X247142000Y-135001000D02*
X247142000Y-137033000D01*
X245110000Y-135001000D02*
X246126000Y-135001000D01*
X228727000Y-118900000D02*
X235394500Y-118900000D01*
X228727000Y-122400000D02*
X235394500Y-122400000D01*
X235394500Y-118900000D02*
X235394500Y-122400000D01*
X228727000Y-118900000D02*
X228727000Y-122400000D01*
X189992000Y-95290000D02*
X190500000Y-95290000D01*
X190500000Y-95290000D02*
X190500000Y-110530000D01*
X190500000Y-110530000D02*
X189992000Y-110530000D01*
X186436000Y-95290000D02*
X186944000Y-95290000D01*
X186436000Y-110530000D02*
X186436000Y-95290000D01*
X186944000Y-110530000D02*
X186436000Y-110530000D01*
X189992000Y-69890000D02*
X190500000Y-69890000D01*
X190500000Y-69890000D02*
X190500000Y-85130000D01*
X190500000Y-85130000D02*
X189992000Y-85130000D01*
X186436000Y-69890000D02*
X186944000Y-69890000D01*
X186436000Y-85130000D02*
X186436000Y-69890000D01*
X186944000Y-85130000D02*
X186436000Y-85130000D01*
X206121000Y-137287000D02*
X206121000Y-133985000D01*
X207899000Y-137287000D02*
X206121000Y-137287000D01*
X207899000Y-133985000D02*
X207899000Y-137287000D01*
X206121000Y-133985000D02*
X207899000Y-133985000D01*
X207899000Y-98679000D02*
X206121000Y-98679000D01*
X206121000Y-98679000D02*
X206121000Y-95377000D01*
X206121000Y-95377000D02*
X207899000Y-95377000D01*
X207899000Y-95377000D02*
X207899000Y-98679000D01*
X206121000Y-86995000D02*
X206121000Y-83693000D01*
X207899000Y-86995000D02*
X206121000Y-86995000D01*
X207899000Y-83693000D02*
X207899000Y-86995000D01*
X206121000Y-83693000D02*
X207899000Y-83693000D01*
X174244000Y-175514000D02*
X174244000Y-174600000D01*
X174244000Y-181000000D02*
X174244000Y-180086000D01*
X197144000Y-181000000D02*
X197144000Y-180086000D01*
X197144000Y-175514000D02*
X197144000Y-174600000D01*
X197144000Y-174600000D02*
X174244000Y-174600000D01*
X174244000Y-181000000D02*
X197144000Y-181000000D01*
X215392000Y-181102000D02*
X213868000Y-181102000D01*
X216916000Y-181102000D02*
X218440000Y-181102000D01*
X215392000Y-181610000D02*
X215392000Y-181102000D01*
X216916000Y-181610000D02*
X216916000Y-181102000D01*
X218440000Y-176022000D02*
X217678000Y-176022000D01*
X213868000Y-176022000D02*
X214630000Y-176022000D01*
X218440000Y-181102000D02*
X218440000Y-176022000D01*
X213868000Y-181102000D02*
X213868000Y-176022000D01*
X216916000Y-181610000D02*
X215392000Y-181610000D01*
X264668000Y-149098000D02*
X264668000Y-150622000D01*
X264668000Y-147574000D02*
X264668000Y-146050000D01*
X265176000Y-149098000D02*
X264668000Y-149098000D01*
X265176000Y-147574000D02*
X264668000Y-147574000D01*
X259588000Y-146050000D02*
X259588000Y-146812000D01*
X259588000Y-150622000D02*
X259588000Y-149860000D01*
X264668000Y-146050000D02*
X259588000Y-146050000D01*
X264668000Y-150622000D02*
X259588000Y-150622000D01*
X265176000Y-147574000D02*
X265176000Y-149098000D01*
X259588000Y-132334000D02*
X259588000Y-133096000D01*
X265176000Y-133858000D02*
X264668000Y-133858000D01*
X265176000Y-133858000D02*
X265176000Y-136906000D01*
X259588000Y-138430000D02*
X259588000Y-137668000D01*
X265176000Y-136906000D02*
X264668000Y-136906000D01*
X264668000Y-133858000D02*
X264668000Y-132334000D01*
X264668000Y-136906000D02*
X264668000Y-138430000D01*
X264668000Y-138430000D02*
X259588000Y-138430000D01*
X264668000Y-132334000D02*
X259588000Y-132334000D01*
X264668000Y-118618000D02*
X259588000Y-118618000D01*
X264668000Y-124714000D02*
X259588000Y-124714000D01*
X264668000Y-123190000D02*
X264668000Y-124714000D01*
X264668000Y-120142000D02*
X264668000Y-118618000D01*
X265176000Y-123190000D02*
X264668000Y-123190000D01*
X259588000Y-124714000D02*
X259588000Y-123952000D01*
X265176000Y-120142000D02*
X265176000Y-123190000D01*
X265176000Y-120142000D02*
X264668000Y-120142000D01*
X259588000Y-118618000D02*
X259588000Y-119380000D01*
X265176000Y-164338000D02*
X264668000Y-164338000D01*
X264668000Y-158242000D02*
X259588000Y-158242000D01*
X259588000Y-165862000D02*
X259588000Y-165100000D01*
X265176000Y-159766000D02*
X264668000Y-159766000D01*
X259588000Y-158242000D02*
X259588000Y-159004000D01*
X265176000Y-159766000D02*
X265176000Y-164338000D01*
X264668000Y-165862000D02*
X259588000Y-165862000D01*
X264668000Y-164338000D02*
X264668000Y-165862000D01*
X264668000Y-159766000D02*
X264668000Y-158242000D01*
X198120000Y-60198000D02*
X196596000Y-60198000D01*
X202692000Y-60198000D02*
X204216000Y-60198000D01*
X204216000Y-60198000D02*
X204216000Y-65278000D01*
X198120000Y-59690000D02*
X202692000Y-59690000D01*
X196596000Y-65278000D02*
X197358000Y-65278000D01*
X198120000Y-59690000D02*
X198120000Y-60198000D01*
X204216000Y-65278000D02*
X203454000Y-65278000D01*
X196596000Y-60198000D02*
X196596000Y-65278000D01*
X202692000Y-59690000D02*
X202692000Y-60198000D01*
X222504000Y-181610000D02*
X222504000Y-181102000D01*
X228600000Y-181102000D02*
X228600000Y-176022000D01*
X220980000Y-176022000D02*
X221742000Y-176022000D01*
X227076000Y-181610000D02*
X227076000Y-181102000D01*
X228600000Y-176022000D02*
X227838000Y-176022000D01*
X227076000Y-181610000D02*
X222504000Y-181610000D01*
X220980000Y-181102000D02*
X220980000Y-176022000D01*
X222504000Y-181102000D02*
X220980000Y-181102000D01*
X227076000Y-181102000D02*
X228600000Y-181102000D01*
X237236000Y-181102000D02*
X238760000Y-181102000D01*
X232664000Y-181102000D02*
X231140000Y-181102000D01*
X231140000Y-181102000D02*
X231140000Y-176022000D01*
X237236000Y-181610000D02*
X232664000Y-181610000D01*
X238760000Y-176022000D02*
X237998000Y-176022000D01*
X237236000Y-181610000D02*
X237236000Y-181102000D01*
X231140000Y-176022000D02*
X231902000Y-176022000D01*
X238760000Y-181102000D02*
X238760000Y-176022000D01*
X232664000Y-181610000D02*
X232664000Y-181102000D01*
X247396000Y-181102000D02*
X248920000Y-181102000D01*
X242824000Y-181102000D02*
X241300000Y-181102000D01*
X241300000Y-181102000D02*
X241300000Y-176022000D01*
X247396000Y-181610000D02*
X242824000Y-181610000D01*
X248920000Y-176022000D02*
X248158000Y-176022000D01*
X247396000Y-181610000D02*
X247396000Y-181102000D01*
X241300000Y-176022000D02*
X242062000Y-176022000D01*
X248920000Y-181102000D02*
X248920000Y-176022000D01*
X242824000Y-181610000D02*
X242824000Y-181102000D01*
X199263000Y-145669000D02*
X199263000Y-148971000D01*
X197485000Y-145669000D02*
X199263000Y-145669000D01*
X197485000Y-148971000D02*
X197485000Y-145669000D01*
X199263000Y-148971000D02*
X197485000Y-148971000D01*
X197485000Y-133985000D02*
X199263000Y-133985000D01*
X199263000Y-133985000D02*
X199263000Y-137287000D01*
X199263000Y-137287000D02*
X197485000Y-137287000D01*
X197485000Y-137287000D02*
X197485000Y-133985000D01*
X199263000Y-95377000D02*
X199263000Y-98679000D01*
X197485000Y-95377000D02*
X199263000Y-95377000D01*
X197485000Y-98679000D02*
X197485000Y-95377000D01*
X199263000Y-98679000D02*
X197485000Y-98679000D01*
X197485000Y-83693000D02*
X199263000Y-83693000D01*
X199263000Y-83693000D02*
X199263000Y-86995000D01*
X199263000Y-86995000D02*
X197485000Y-86995000D01*
X197485000Y-86995000D02*
X197485000Y-83693000D01*
X239649000Y-134493000D02*
X239649000Y-134112000D01*
X232283000Y-134493000D02*
X232283000Y-134112000D01*
X232283000Y-127127000D02*
X232283000Y-127508000D01*
X232283000Y-127127000D02*
X232664000Y-127127000D01*
X232283000Y-134493000D02*
X232666000Y-134493000D01*
X239649000Y-134493000D02*
X239268000Y-134493000D01*
X239649000Y-127127000D02*
X239268000Y-127127000D01*
X239649000Y-127127000D02*
X239649000Y-127508000D01*
X239574605Y-126619000D02*
G75*
G03X239574605Y-126619000I-179605J0D01*
G01*
D13*
G36*
X239574605Y-126619000D02*
G01*
X239395000Y-126798605D01*
X239215395Y-126619000D01*
X239395000Y-126439395D01*
X239574605Y-126619000D01*
G37*
X239574605Y-126619000D02*
X239395000Y-126798605D01*
X239215395Y-126619000D01*
X239395000Y-126439395D01*
X239574605Y-126619000D01*
D12*
X221615000Y-69469000D02*
X224917000Y-69469000D01*
X221615000Y-71247000D02*
X221615000Y-69469000D01*
X224917000Y-71247000D02*
X221615000Y-71247000D01*
X224917000Y-69469000D02*
X224917000Y-71247000D01*
X231730437Y-80044000D02*
X230666000Y-81108437D01*
X235121563Y-80044000D02*
X236186000Y-81108437D01*
X235121563Y-80044000D02*
X234315000Y-80044000D01*
X231730437Y-80044000D02*
X232537000Y-80044000D01*
X230666000Y-81108437D02*
X230666000Y-85564000D01*
X236186000Y-81108437D02*
X236186000Y-85564000D01*
X236186000Y-85564000D02*
X234315000Y-85564000D01*
X230666000Y-85564000D02*
X232537000Y-85564000D01*
X236762000Y-85564000D02*
X238633000Y-85564000D01*
X242282000Y-85564000D02*
X240411000Y-85564000D01*
X242282000Y-81108437D02*
X242282000Y-85564000D01*
X236762000Y-81108437D02*
X236762000Y-85564000D01*
X237826437Y-80044000D02*
X238633000Y-80044000D01*
X241217563Y-80044000D02*
X240411000Y-80044000D01*
X241217563Y-80044000D02*
X242282000Y-81108437D01*
X237826437Y-80044000D02*
X236762000Y-81108437D01*
X243922437Y-80044000D02*
X242858000Y-81108437D01*
X247313563Y-80044000D02*
X248378000Y-81108437D01*
X247313563Y-80044000D02*
X246507000Y-80044000D01*
X243922437Y-80044000D02*
X244729000Y-80044000D01*
X242858000Y-81108437D02*
X242858000Y-85564000D01*
X248378000Y-81108437D02*
X248378000Y-85564000D01*
X248378000Y-85564000D02*
X246507000Y-85564000D01*
X242858000Y-85564000D02*
X244729000Y-85564000D01*
X220167200Y-73050400D02*
X216966000Y-73050400D01*
X226314000Y-73050400D02*
X229566000Y-73050400D01*
X226314000Y-85650400D02*
X229566000Y-85650400D01*
X220167200Y-85648800D02*
X216966000Y-85650400D01*
X229566000Y-73050400D02*
X229566000Y-85650400D01*
X216966000Y-73050400D02*
X216966000Y-85650400D01*
X145034000Y-163855400D02*
X115653000Y-163850000D01*
X145034000Y-163855400D02*
X145034000Y-153655400D01*
X145034000Y-153655400D02*
X115653000Y-153650000D01*
X115653000Y-163850000D02*
X115653000Y-153650000D01*
X145034000Y-138455400D02*
X115653000Y-138450000D01*
X145034000Y-138455400D02*
X145034000Y-128255400D01*
X145034000Y-128255400D02*
X115653000Y-128250000D01*
X115653000Y-138450000D02*
X115653000Y-128250000D01*
X144970500Y-112991900D02*
X115589500Y-112986500D01*
X144970500Y-112991900D02*
X144970500Y-102791900D01*
X144970500Y-102791900D02*
X115589500Y-102786500D01*
X115589500Y-112986500D02*
X115589500Y-102786500D01*
X145034000Y-87655400D02*
X115653000Y-87650000D01*
X145034000Y-87655400D02*
X145034000Y-77455400D01*
X145034000Y-77455400D02*
X115653000Y-77450000D01*
X115653000Y-87650000D02*
X115653000Y-77450000D01*
X199999600Y-123634500D02*
X201777600Y-123634500D01*
X199618600Y-123888500D02*
X201777600Y-123888500D01*
X199977810Y-123761500D02*
G75*
G03X199977810Y-123761500I-359210J0D01*
G01*
D13*
G36*
X199618600Y-123402290D02*
G01*
X199872600Y-123507500D01*
X199977810Y-123761500D01*
X199872600Y-124015500D01*
X199618600Y-124142500D01*
X199364600Y-124015500D01*
X199237600Y-123761500D01*
X199364600Y-123507500D01*
X199618600Y-123402290D01*
G37*
X199618600Y-123402290D02*
X199872600Y-123507500D01*
X199977810Y-123761500D01*
X199872600Y-124015500D01*
X199618600Y-124142500D01*
X199364600Y-124015500D01*
X199237600Y-123761500D01*
X199364600Y-123507500D01*
X199618600Y-123402290D01*
D12*
X201777600Y-123634500D02*
X202539600Y-123380500D01*
X201777600Y-123888500D02*
X202539600Y-124142500D01*
X201777600Y-112712500D02*
X202539600Y-112966500D01*
X201777600Y-112458500D02*
X202539600Y-112204500D01*
D13*
G36*
X199618600Y-112226290D02*
G01*
X199872600Y-112331500D01*
X199977810Y-112585500D01*
X199872600Y-112839500D01*
X199618600Y-112966500D01*
X199364600Y-112839500D01*
X199237600Y-112585500D01*
X199364600Y-112331500D01*
X199618600Y-112226290D01*
G37*
X199618600Y-112226290D02*
X199872600Y-112331500D01*
X199977810Y-112585500D01*
X199872600Y-112839500D01*
X199618600Y-112966500D01*
X199364600Y-112839500D01*
X199237600Y-112585500D01*
X199364600Y-112331500D01*
X199618600Y-112226290D01*
D12*
X199977810Y-112585500D02*
G75*
G03X199977810Y-112585500I-359210J0D01*
G01*
X199618600Y-112712500D02*
X201777600Y-112712500D01*
X199999600Y-112458500D02*
X201777600Y-112458500D01*
X201777600Y-118300500D02*
X202539600Y-118554500D01*
X201777600Y-118046500D02*
X202539600Y-117792500D01*
D13*
G36*
X199618600Y-117814290D02*
G01*
X199872600Y-117919500D01*
X199977810Y-118173500D01*
X199872600Y-118427500D01*
X199618600Y-118554500D01*
X199364600Y-118427500D01*
X199237600Y-118173500D01*
X199364600Y-117919500D01*
X199618600Y-117814290D01*
G37*
X199618600Y-117814290D02*
X199872600Y-117919500D01*
X199977810Y-118173500D01*
X199872600Y-118427500D01*
X199618600Y-118554500D01*
X199364600Y-118427500D01*
X199237600Y-118173500D01*
X199364600Y-117919500D01*
X199618600Y-117814290D01*
D12*
X199977810Y-118173500D02*
G75*
G03X199977810Y-118173500I-359210J0D01*
G01*
X199618600Y-118300500D02*
X201777600Y-118300500D01*
X199999600Y-118046500D02*
X201777600Y-118046500D01*
X199999600Y-106870500D02*
X201777600Y-106870500D01*
X199618600Y-107124500D02*
X201777600Y-107124500D01*
X199977810Y-106997500D02*
G75*
G03X199977810Y-106997500I-359210J0D01*
G01*
D13*
G36*
X199618600Y-106638290D02*
G01*
X199872600Y-106743500D01*
X199977810Y-106997500D01*
X199872600Y-107251500D01*
X199618600Y-107378500D01*
X199364600Y-107251500D01*
X199237600Y-106997500D01*
X199364600Y-106743500D01*
X199618600Y-106638290D01*
G37*
X199618600Y-106638290D02*
X199872600Y-106743500D01*
X199977810Y-106997500D01*
X199872600Y-107251500D01*
X199618600Y-107378500D01*
X199364600Y-107251500D01*
X199237600Y-106997500D01*
X199364600Y-106743500D01*
X199618600Y-106638290D01*
D12*
X201777600Y-106870500D02*
X202539600Y-106616500D01*
X201777600Y-107124500D02*
X202539600Y-107378500D01*
X211462000Y-174050000D02*
X211462000Y-181550000D01*
X201462000Y-174050000D02*
X201462000Y-181550000D01*
X201462000Y-174050000D02*
X211462000Y-174050000D01*
X201462000Y-181550000D02*
X211462000Y-181550000D01*
X201462000Y-179832000D02*
X211462000Y-179832000D01*
X206462000Y-179832000D02*
X206462000Y-181550000D01*
X215512000Y-67250000D02*
X215512000Y-59750000D01*
X225512000Y-67250000D02*
X225512000Y-59750000D01*
X225512000Y-67250000D02*
X215512000Y-67250000D01*
X225512000Y-59750000D02*
X215512000Y-59750000D01*
X225512000Y-61468000D02*
X215512000Y-61468000D01*
X220512000Y-61468000D02*
X220512000Y-59750000D01*
X239014000Y-143383000D02*
X240538000Y-143383000D01*
X238506000Y-143764000D02*
X239014000Y-143383000D01*
X238506000Y-143764000D02*
X237998000Y-143383000D01*
X241173000Y-143891000D02*
X240538000Y-143383000D01*
X236474000Y-143383000D02*
X237998000Y-143383000D01*
X233934000Y-143383000D02*
X235458000Y-143383000D01*
X233299000Y-143891000D02*
X233934000Y-143383000D01*
X233299000Y-143891000D02*
X233299000Y-148209000D01*
X235966000Y-143764000D02*
X235458000Y-143383000D01*
X235966000Y-143764000D02*
X236474000Y-143383000D01*
X241173000Y-143891000D02*
X241173000Y-148209000D01*
X238506000Y-148336000D02*
X237998000Y-148717000D01*
X235966000Y-148336000D02*
X235458000Y-148717000D01*
X241173000Y-148209000D02*
X240538000Y-148717000D01*
X235458000Y-148717000D02*
X233934000Y-148717000D01*
X240538000Y-148717000D02*
X239014000Y-148717000D01*
X237998000Y-148717000D02*
X236474000Y-148717000D01*
X238506000Y-148336000D02*
X239014000Y-148717000D01*
X233299000Y-148209000D02*
X233934000Y-148717000D01*
X235966000Y-148336000D02*
X236474000Y-148717000D01*
X264795000Y-92075000D02*
X263017000Y-92075000D01*
X264795000Y-102489000D02*
X263017000Y-102489000D01*
X264922000Y-99822000D02*
X265303000Y-99314000D01*
X264922000Y-97282000D02*
X265303000Y-97790000D01*
X264922000Y-99822000D02*
X265303000Y-100330000D01*
X264795000Y-102489000D02*
X265303000Y-101854000D01*
X264922000Y-97282000D02*
X265303000Y-96774000D01*
X264922000Y-94742000D02*
X265303000Y-95250000D01*
X264922000Y-94742000D02*
X265303000Y-94234000D01*
X264795000Y-92075000D02*
X265303000Y-92710000D01*
X265303000Y-92710000D02*
X265303000Y-94234000D01*
X265303000Y-95250000D02*
X265303000Y-96774000D01*
X265303000Y-97790000D02*
X265303000Y-99314000D01*
X265303000Y-100330000D02*
X265303000Y-101854000D01*
X263017000Y-92075000D02*
X262509000Y-92710000D01*
X262890000Y-94742000D02*
X262509000Y-94234000D01*
X262890000Y-94742000D02*
X262509000Y-95250000D01*
X262890000Y-97282000D02*
X262509000Y-96774000D01*
X262890000Y-97282000D02*
X262509000Y-97790000D01*
X262890000Y-99822000D02*
X262509000Y-99314000D01*
X262890000Y-99822000D02*
X262509000Y-100330000D01*
X263017000Y-102489000D02*
X262509000Y-101854000D01*
X262509000Y-100330000D02*
X262509000Y-101854000D01*
X262509000Y-97790000D02*
X262509000Y-99314000D01*
X262509000Y-95250000D02*
X262509000Y-96774000D01*
X262509000Y-92710000D02*
X262509000Y-94234000D01*
D14*
X203073000Y-143829000D02*
G75*
G03X203073000Y-143829000I-127000J0D01*
G01*
D13*
G36*
X202819000Y-143829000D02*
G01*
X202946000Y-143702000D01*
X203073000Y-143829000D01*
X202946000Y-143956000D01*
X202819000Y-143829000D01*
G37*
X202819000Y-143829000D02*
X202946000Y-143702000D01*
X203073000Y-143829000D01*
X202946000Y-143956000D01*
X202819000Y-143829000D01*
D12*
X202946000Y-139384000D02*
X203073000Y-139384000D01*
X208026000Y-139384000D02*
X207879000Y-139384000D01*
X208026000Y-143448000D02*
X207879000Y-143448000D01*
X202946000Y-143448000D02*
X203073000Y-143448000D01*
X208026000Y-139384000D02*
X208026000Y-143448000D01*
X202946000Y-143448000D02*
X202946000Y-139384000D01*
X202946000Y-93141800D02*
X202946000Y-89077800D01*
X208026000Y-89077800D02*
X208026000Y-93141800D01*
X202946000Y-93141800D02*
X203073000Y-93141800D01*
X208026000Y-93141800D02*
X207879000Y-93141800D01*
X208026000Y-89077800D02*
X207879000Y-89077800D01*
X202946000Y-89077800D02*
X203073000Y-89077800D01*
D13*
G36*
X202819000Y-93522800D02*
G01*
X202946000Y-93395800D01*
X203073000Y-93522800D01*
X202946000Y-93649800D01*
X202819000Y-93522800D01*
G37*
X202819000Y-93522800D02*
X202946000Y-93395800D01*
X203073000Y-93522800D01*
X202946000Y-93649800D01*
X202819000Y-93522800D01*
D14*
X203073000Y-93522800D02*
G75*
G03X203073000Y-93522800I-127000J0D01*
G01*
D10*
X195335714Y-169014857D02*
X196021428Y-169014857D01*
X195678571Y-170214857D02*
X195678571Y-169014857D01*
X196421428Y-170214857D02*
X196421428Y-169014857D01*
X196878571Y-169014857D01*
X196992857Y-169072000D01*
X197050000Y-169129142D01*
X197107142Y-169243428D01*
X197107142Y-169414857D01*
X197050000Y-169529142D01*
X196992857Y-169586285D01*
X196878571Y-169643428D01*
X196421428Y-169643428D01*
X198135714Y-169414857D02*
X198135714Y-170214857D01*
X197850000Y-168957714D02*
X197564285Y-169814857D01*
X198307142Y-169814857D01*
X258835714Y-71732857D02*
X259521428Y-71732857D01*
X259178571Y-72932857D02*
X259178571Y-71732857D01*
X259921428Y-72932857D02*
X259921428Y-71732857D01*
X260378571Y-71732857D01*
X260492857Y-71790000D01*
X260550000Y-71847142D01*
X260607142Y-71961428D01*
X260607142Y-72132857D01*
X260550000Y-72247142D01*
X260492857Y-72304285D01*
X260378571Y-72361428D01*
X259921428Y-72361428D01*
X261007142Y-71732857D02*
X261750000Y-71732857D01*
X261350000Y-72190000D01*
X261521428Y-72190000D01*
X261635714Y-72247142D01*
X261692857Y-72304285D01*
X261750000Y-72418571D01*
X261750000Y-72704285D01*
X261692857Y-72818571D01*
X261635714Y-72875714D01*
X261521428Y-72932857D01*
X261178571Y-72932857D01*
X261064285Y-72875714D01*
X261007142Y-72818571D01*
X213623714Y-80622857D02*
X214309428Y-80622857D01*
X213966571Y-81822857D02*
X213966571Y-80622857D01*
X214709428Y-81822857D02*
X214709428Y-80622857D01*
X215166571Y-80622857D01*
X215280857Y-80680000D01*
X215338000Y-80737142D01*
X215395142Y-80851428D01*
X215395142Y-81022857D01*
X215338000Y-81137142D01*
X215280857Y-81194285D01*
X215166571Y-81251428D01*
X214709428Y-81251428D01*
X215852285Y-80737142D02*
X215909428Y-80680000D01*
X216023714Y-80622857D01*
X216309428Y-80622857D01*
X216423714Y-80680000D01*
X216480857Y-80737142D01*
X216538000Y-80851428D01*
X216538000Y-80965714D01*
X216480857Y-81137142D01*
X215795142Y-81822857D01*
X216538000Y-81822857D01*
X235467714Y-60556857D02*
X236153428Y-60556857D01*
X235810571Y-61756857D02*
X235810571Y-60556857D01*
X236553428Y-61756857D02*
X236553428Y-60556857D01*
X237010571Y-60556857D01*
X237124857Y-60614000D01*
X237182000Y-60671142D01*
X237239142Y-60785428D01*
X237239142Y-60956857D01*
X237182000Y-61071142D01*
X237124857Y-61128285D01*
X237010571Y-61185428D01*
X236553428Y-61185428D01*
X238382000Y-61756857D02*
X237696285Y-61756857D01*
X238039142Y-61756857D02*
X238039142Y-60556857D01*
X237924857Y-60728285D01*
X237810571Y-60842571D01*
X237696285Y-60899714D01*
X201272857Y-161442285D02*
X202244285Y-161442285D01*
X202358571Y-161385142D01*
X202415714Y-161328000D01*
X202472857Y-161213714D01*
X202472857Y-160985142D01*
X202415714Y-160870857D01*
X202358571Y-160813714D01*
X202244285Y-160756571D01*
X201272857Y-160756571D01*
X201272857Y-159670857D02*
X201272857Y-159899428D01*
X201330000Y-160013714D01*
X201387142Y-160070857D01*
X201558571Y-160185142D01*
X201787142Y-160242285D01*
X202244285Y-160242285D01*
X202358571Y-160185142D01*
X202415714Y-160128000D01*
X202472857Y-160013714D01*
X202472857Y-159785142D01*
X202415714Y-159670857D01*
X202358571Y-159613714D01*
X202244285Y-159556571D01*
X201958571Y-159556571D01*
X201844285Y-159613714D01*
X201787142Y-159670857D01*
X201730000Y-159785142D01*
X201730000Y-160013714D01*
X201787142Y-160128000D01*
X201844285Y-160185142D01*
X201958571Y-160242285D01*
X192185857Y-129335428D02*
X191614428Y-129735428D01*
X192185857Y-130021142D02*
X190985857Y-130021142D01*
X190985857Y-129564000D01*
X191043000Y-129449714D01*
X191100142Y-129392571D01*
X191214428Y-129335428D01*
X191385857Y-129335428D01*
X191500142Y-129392571D01*
X191557285Y-129449714D01*
X191614428Y-129564000D01*
X191614428Y-130021142D01*
X190985857Y-128935428D02*
X190985857Y-128192571D01*
X191443000Y-128592571D01*
X191443000Y-128421142D01*
X191500142Y-128306857D01*
X191557285Y-128249714D01*
X191671571Y-128192571D01*
X191957285Y-128192571D01*
X192071571Y-128249714D01*
X192128714Y-128306857D01*
X192185857Y-128421142D01*
X192185857Y-128764000D01*
X192128714Y-128878285D01*
X192071571Y-128935428D01*
X190985857Y-127449714D02*
X190985857Y-127335428D01*
X191043000Y-127221142D01*
X191100142Y-127164000D01*
X191214428Y-127106857D01*
X191443000Y-127049714D01*
X191728714Y-127049714D01*
X191957285Y-127106857D01*
X192071571Y-127164000D01*
X192128714Y-127221142D01*
X192185857Y-127335428D01*
X192185857Y-127449714D01*
X192128714Y-127564000D01*
X192071571Y-127621142D01*
X191957285Y-127678285D01*
X191728714Y-127735428D01*
X191443000Y-127735428D01*
X191214428Y-127678285D01*
X191100142Y-127621142D01*
X191043000Y-127564000D01*
X190985857Y-127449714D01*
X240134857Y-107340285D02*
X241106285Y-107340285D01*
X241220571Y-107283142D01*
X241277714Y-107226000D01*
X241334857Y-107111714D01*
X241334857Y-106883142D01*
X241277714Y-106768857D01*
X241220571Y-106711714D01*
X241106285Y-106654571D01*
X240134857Y-106654571D01*
X240134857Y-105511714D02*
X240134857Y-106083142D01*
X240706285Y-106140285D01*
X240649142Y-106083142D01*
X240592000Y-105968857D01*
X240592000Y-105683142D01*
X240649142Y-105568857D01*
X240706285Y-105511714D01*
X240820571Y-105454571D01*
X241106285Y-105454571D01*
X241220571Y-105511714D01*
X241277714Y-105568857D01*
X241334857Y-105683142D01*
X241334857Y-105968857D01*
X241277714Y-106083142D01*
X241220571Y-106140285D01*
X192185857Y-155203428D02*
X191614428Y-155603428D01*
X192185857Y-155889142D02*
X190985857Y-155889142D01*
X190985857Y-155432000D01*
X191043000Y-155317714D01*
X191100142Y-155260571D01*
X191214428Y-155203428D01*
X191385857Y-155203428D01*
X191500142Y-155260571D01*
X191557285Y-155317714D01*
X191614428Y-155432000D01*
X191614428Y-155889142D01*
X191100142Y-154746285D02*
X191043000Y-154689142D01*
X190985857Y-154574857D01*
X190985857Y-154289142D01*
X191043000Y-154174857D01*
X191100142Y-154117714D01*
X191214428Y-154060571D01*
X191328714Y-154060571D01*
X191500142Y-154117714D01*
X192185857Y-154803428D01*
X192185857Y-154060571D01*
X192185857Y-153489142D02*
X192185857Y-153260571D01*
X192128714Y-153146285D01*
X192071571Y-153089142D01*
X191900142Y-152974857D01*
X191671571Y-152917714D01*
X191214428Y-152917714D01*
X191100142Y-152974857D01*
X191043000Y-153032000D01*
X190985857Y-153146285D01*
X190985857Y-153374857D01*
X191043000Y-153489142D01*
X191100142Y-153546285D01*
X191214428Y-153603428D01*
X191500142Y-153603428D01*
X191614428Y-153546285D01*
X191671571Y-153489142D01*
X191728714Y-153374857D01*
X191728714Y-153146285D01*
X191671571Y-153032000D01*
X191614428Y-152974857D01*
X191500142Y-152917714D01*
X239950571Y-77162000D02*
X240007714Y-77219142D01*
X240064857Y-77390571D01*
X240064857Y-77504857D01*
X240007714Y-77676285D01*
X239893428Y-77790571D01*
X239779142Y-77847714D01*
X239550571Y-77904857D01*
X239379142Y-77904857D01*
X239150571Y-77847714D01*
X239036285Y-77790571D01*
X238922000Y-77676285D01*
X238864857Y-77504857D01*
X238864857Y-77390571D01*
X238922000Y-77219142D01*
X238979142Y-77162000D01*
X238864857Y-76076285D02*
X238864857Y-76647714D01*
X239436285Y-76704857D01*
X239379142Y-76647714D01*
X239322000Y-76533428D01*
X239322000Y-76247714D01*
X239379142Y-76133428D01*
X239436285Y-76076285D01*
X239550571Y-76019142D01*
X239836285Y-76019142D01*
X239950571Y-76076285D01*
X240007714Y-76133428D01*
X240064857Y-76247714D01*
X240064857Y-76533428D01*
X240007714Y-76647714D01*
X239950571Y-76704857D01*
X250110571Y-77289000D02*
X250167714Y-77346142D01*
X250224857Y-77517571D01*
X250224857Y-77631857D01*
X250167714Y-77803285D01*
X250053428Y-77917571D01*
X249939142Y-77974714D01*
X249710571Y-78031857D01*
X249539142Y-78031857D01*
X249310571Y-77974714D01*
X249196285Y-77917571D01*
X249082000Y-77803285D01*
X249024857Y-77631857D01*
X249024857Y-77517571D01*
X249082000Y-77346142D01*
X249139142Y-77289000D01*
X249024857Y-76260428D02*
X249024857Y-76489000D01*
X249082000Y-76603285D01*
X249139142Y-76660428D01*
X249310571Y-76774714D01*
X249539142Y-76831857D01*
X249996285Y-76831857D01*
X250110571Y-76774714D01*
X250167714Y-76717571D01*
X250224857Y-76603285D01*
X250224857Y-76374714D01*
X250167714Y-76260428D01*
X250110571Y-76203285D01*
X249996285Y-76146142D01*
X249710571Y-76146142D01*
X249596285Y-76203285D01*
X249539142Y-76260428D01*
X249482000Y-76374714D01*
X249482000Y-76603285D01*
X249539142Y-76717571D01*
X249596285Y-76774714D01*
X249710571Y-76831857D01*
X252650571Y-77289000D02*
X252707714Y-77346142D01*
X252764857Y-77517571D01*
X252764857Y-77631857D01*
X252707714Y-77803285D01*
X252593428Y-77917571D01*
X252479142Y-77974714D01*
X252250571Y-78031857D01*
X252079142Y-78031857D01*
X251850571Y-77974714D01*
X251736285Y-77917571D01*
X251622000Y-77803285D01*
X251564857Y-77631857D01*
X251564857Y-77517571D01*
X251622000Y-77346142D01*
X251679142Y-77289000D01*
X251564857Y-76889000D02*
X251564857Y-76089000D01*
X252764857Y-76603285D01*
X233734000Y-116252571D02*
X233676857Y-116309714D01*
X233505428Y-116366857D01*
X233391142Y-116366857D01*
X233219714Y-116309714D01*
X233105428Y-116195428D01*
X233048285Y-116081142D01*
X232991142Y-115852571D01*
X232991142Y-115681142D01*
X233048285Y-115452571D01*
X233105428Y-115338285D01*
X233219714Y-115224000D01*
X233391142Y-115166857D01*
X233505428Y-115166857D01*
X233676857Y-115224000D01*
X233734000Y-115281142D01*
X234419714Y-115681142D02*
X234305428Y-115624000D01*
X234248285Y-115566857D01*
X234191142Y-115452571D01*
X234191142Y-115395428D01*
X234248285Y-115281142D01*
X234305428Y-115224000D01*
X234419714Y-115166857D01*
X234648285Y-115166857D01*
X234762571Y-115224000D01*
X234819714Y-115281142D01*
X234876857Y-115395428D01*
X234876857Y-115452571D01*
X234819714Y-115566857D01*
X234762571Y-115624000D01*
X234648285Y-115681142D01*
X234419714Y-115681142D01*
X234305428Y-115738285D01*
X234248285Y-115795428D01*
X234191142Y-115909714D01*
X234191142Y-116138285D01*
X234248285Y-116252571D01*
X234305428Y-116309714D01*
X234419714Y-116366857D01*
X234648285Y-116366857D01*
X234762571Y-116309714D01*
X234819714Y-116252571D01*
X234876857Y-116138285D01*
X234876857Y-115909714D01*
X234819714Y-115795428D01*
X234762571Y-115738285D01*
X234648285Y-115681142D01*
X229924000Y-116252571D02*
X229866857Y-116309714D01*
X229695428Y-116366857D01*
X229581142Y-116366857D01*
X229409714Y-116309714D01*
X229295428Y-116195428D01*
X229238285Y-116081142D01*
X229181142Y-115852571D01*
X229181142Y-115681142D01*
X229238285Y-115452571D01*
X229295428Y-115338285D01*
X229409714Y-115224000D01*
X229581142Y-115166857D01*
X229695428Y-115166857D01*
X229866857Y-115224000D01*
X229924000Y-115281142D01*
X230495428Y-116366857D02*
X230724000Y-116366857D01*
X230838285Y-116309714D01*
X230895428Y-116252571D01*
X231009714Y-116081142D01*
X231066857Y-115852571D01*
X231066857Y-115395428D01*
X231009714Y-115281142D01*
X230952571Y-115224000D01*
X230838285Y-115166857D01*
X230609714Y-115166857D01*
X230495428Y-115224000D01*
X230438285Y-115281142D01*
X230381142Y-115395428D01*
X230381142Y-115681142D01*
X230438285Y-115795428D01*
X230495428Y-115852571D01*
X230609714Y-115909714D01*
X230838285Y-115909714D01*
X230952571Y-115852571D01*
X231009714Y-115795428D01*
X231066857Y-115681142D01*
X240782571Y-119554571D02*
X240725428Y-119611714D01*
X240554000Y-119668857D01*
X240439714Y-119668857D01*
X240268285Y-119611714D01*
X240154000Y-119497428D01*
X240096857Y-119383142D01*
X240039714Y-119154571D01*
X240039714Y-118983142D01*
X240096857Y-118754571D01*
X240154000Y-118640285D01*
X240268285Y-118526000D01*
X240439714Y-118468857D01*
X240554000Y-118468857D01*
X240725428Y-118526000D01*
X240782571Y-118583142D01*
X241925428Y-119668857D02*
X241239714Y-119668857D01*
X241582571Y-119668857D02*
X241582571Y-118468857D01*
X241468285Y-118640285D01*
X241354000Y-118754571D01*
X241239714Y-118811714D01*
X242668285Y-118468857D02*
X242782571Y-118468857D01*
X242896857Y-118526000D01*
X242954000Y-118583142D01*
X243011142Y-118697428D01*
X243068285Y-118926000D01*
X243068285Y-119211714D01*
X243011142Y-119440285D01*
X242954000Y-119554571D01*
X242896857Y-119611714D01*
X242782571Y-119668857D01*
X242668285Y-119668857D01*
X242554000Y-119611714D01*
X242496857Y-119554571D01*
X242439714Y-119440285D01*
X242382571Y-119211714D01*
X242382571Y-118926000D01*
X242439714Y-118697428D01*
X242496857Y-118583142D01*
X242554000Y-118526000D01*
X242668285Y-118468857D01*
X240782571Y-121840571D02*
X240725428Y-121897714D01*
X240554000Y-121954857D01*
X240439714Y-121954857D01*
X240268285Y-121897714D01*
X240154000Y-121783428D01*
X240096857Y-121669142D01*
X240039714Y-121440571D01*
X240039714Y-121269142D01*
X240096857Y-121040571D01*
X240154000Y-120926285D01*
X240268285Y-120812000D01*
X240439714Y-120754857D01*
X240554000Y-120754857D01*
X240725428Y-120812000D01*
X240782571Y-120869142D01*
X241925428Y-121954857D02*
X241239714Y-121954857D01*
X241582571Y-121954857D02*
X241582571Y-120754857D01*
X241468285Y-120926285D01*
X241354000Y-121040571D01*
X241239714Y-121097714D01*
X243068285Y-121954857D02*
X242382571Y-121954857D01*
X242725428Y-121954857D02*
X242725428Y-120754857D01*
X242611142Y-120926285D01*
X242496857Y-121040571D01*
X242382571Y-121097714D01*
X240782571Y-124126571D02*
X240725428Y-124183714D01*
X240554000Y-124240857D01*
X240439714Y-124240857D01*
X240268285Y-124183714D01*
X240154000Y-124069428D01*
X240096857Y-123955142D01*
X240039714Y-123726571D01*
X240039714Y-123555142D01*
X240096857Y-123326571D01*
X240154000Y-123212285D01*
X240268285Y-123098000D01*
X240439714Y-123040857D01*
X240554000Y-123040857D01*
X240725428Y-123098000D01*
X240782571Y-123155142D01*
X241925428Y-124240857D02*
X241239714Y-124240857D01*
X241582571Y-124240857D02*
X241582571Y-123040857D01*
X241468285Y-123212285D01*
X241354000Y-123326571D01*
X241239714Y-123383714D01*
X242382571Y-123155142D02*
X242439714Y-123098000D01*
X242554000Y-123040857D01*
X242839714Y-123040857D01*
X242954000Y-123098000D01*
X243011142Y-123155142D01*
X243068285Y-123269428D01*
X243068285Y-123383714D01*
X243011142Y-123555142D01*
X242325428Y-124240857D01*
X243068285Y-124240857D01*
X220011571Y-117992428D02*
X220068714Y-118049571D01*
X220125857Y-118221000D01*
X220125857Y-118335285D01*
X220068714Y-118506714D01*
X219954428Y-118621000D01*
X219840142Y-118678142D01*
X219611571Y-118735285D01*
X219440142Y-118735285D01*
X219211571Y-118678142D01*
X219097285Y-118621000D01*
X218983000Y-118506714D01*
X218925857Y-118335285D01*
X218925857Y-118221000D01*
X218983000Y-118049571D01*
X219040142Y-117992428D01*
X220125857Y-116849571D02*
X220125857Y-117535285D01*
X220125857Y-117192428D02*
X218925857Y-117192428D01*
X219097285Y-117306714D01*
X219211571Y-117421000D01*
X219268714Y-117535285D01*
X218925857Y-116449571D02*
X218925857Y-115706714D01*
X219383000Y-116106714D01*
X219383000Y-115935285D01*
X219440142Y-115821000D01*
X219497285Y-115763857D01*
X219611571Y-115706714D01*
X219897285Y-115706714D01*
X220011571Y-115763857D01*
X220068714Y-115821000D01*
X220125857Y-115935285D01*
X220125857Y-116278142D01*
X220068714Y-116392428D01*
X220011571Y-116449571D01*
X220138571Y-160029428D02*
X220195714Y-160086571D01*
X220252857Y-160258000D01*
X220252857Y-160372285D01*
X220195714Y-160543714D01*
X220081428Y-160658000D01*
X219967142Y-160715142D01*
X219738571Y-160772285D01*
X219567142Y-160772285D01*
X219338571Y-160715142D01*
X219224285Y-160658000D01*
X219110000Y-160543714D01*
X219052857Y-160372285D01*
X219052857Y-160258000D01*
X219110000Y-160086571D01*
X219167142Y-160029428D01*
X220252857Y-158886571D02*
X220252857Y-159572285D01*
X220252857Y-159229428D02*
X219052857Y-159229428D01*
X219224285Y-159343714D01*
X219338571Y-159458000D01*
X219395714Y-159572285D01*
X219452857Y-157858000D02*
X220252857Y-157858000D01*
X218995714Y-158143714D02*
X219852857Y-158429428D01*
X219852857Y-157686571D01*
X238172571Y-108213428D02*
X238229714Y-108270571D01*
X238286857Y-108442000D01*
X238286857Y-108556285D01*
X238229714Y-108727714D01*
X238115428Y-108842000D01*
X238001142Y-108899142D01*
X237772571Y-108956285D01*
X237601142Y-108956285D01*
X237372571Y-108899142D01*
X237258285Y-108842000D01*
X237144000Y-108727714D01*
X237086857Y-108556285D01*
X237086857Y-108442000D01*
X237144000Y-108270571D01*
X237201142Y-108213428D01*
X238286857Y-107070571D02*
X238286857Y-107756285D01*
X238286857Y-107413428D02*
X237086857Y-107413428D01*
X237258285Y-107527714D01*
X237372571Y-107642000D01*
X237429714Y-107756285D01*
X237086857Y-105984857D02*
X237086857Y-106556285D01*
X237658285Y-106613428D01*
X237601142Y-106556285D01*
X237544000Y-106442000D01*
X237544000Y-106156285D01*
X237601142Y-106042000D01*
X237658285Y-105984857D01*
X237772571Y-105927714D01*
X238058285Y-105927714D01*
X238172571Y-105984857D01*
X238229714Y-106042000D01*
X238286857Y-106156285D01*
X238286857Y-106442000D01*
X238229714Y-106556285D01*
X238172571Y-106613428D01*
X235911971Y-108213428D02*
X235969114Y-108270571D01*
X236026257Y-108442000D01*
X236026257Y-108556285D01*
X235969114Y-108727714D01*
X235854828Y-108842000D01*
X235740542Y-108899142D01*
X235511971Y-108956285D01*
X235340542Y-108956285D01*
X235111971Y-108899142D01*
X234997685Y-108842000D01*
X234883400Y-108727714D01*
X234826257Y-108556285D01*
X234826257Y-108442000D01*
X234883400Y-108270571D01*
X234940542Y-108213428D01*
X236026257Y-107070571D02*
X236026257Y-107756285D01*
X236026257Y-107413428D02*
X234826257Y-107413428D01*
X234997685Y-107527714D01*
X235111971Y-107642000D01*
X235169114Y-107756285D01*
X234826257Y-106042000D02*
X234826257Y-106270571D01*
X234883400Y-106384857D01*
X234940542Y-106442000D01*
X235111971Y-106556285D01*
X235340542Y-106613428D01*
X235797685Y-106613428D01*
X235911971Y-106556285D01*
X235969114Y-106499142D01*
X236026257Y-106384857D01*
X236026257Y-106156285D01*
X235969114Y-106042000D01*
X235911971Y-105984857D01*
X235797685Y-105927714D01*
X235511971Y-105927714D01*
X235397685Y-105984857D01*
X235340542Y-106042000D01*
X235283400Y-106156285D01*
X235283400Y-106384857D01*
X235340542Y-106499142D01*
X235397685Y-106556285D01*
X235511971Y-106613428D01*
X208708571Y-155330428D02*
X208765714Y-155387571D01*
X208822857Y-155559000D01*
X208822857Y-155673285D01*
X208765714Y-155844714D01*
X208651428Y-155959000D01*
X208537142Y-156016142D01*
X208308571Y-156073285D01*
X208137142Y-156073285D01*
X207908571Y-156016142D01*
X207794285Y-155959000D01*
X207680000Y-155844714D01*
X207622857Y-155673285D01*
X207622857Y-155559000D01*
X207680000Y-155387571D01*
X207737142Y-155330428D01*
X208822857Y-154187571D02*
X208822857Y-154873285D01*
X208822857Y-154530428D02*
X207622857Y-154530428D01*
X207794285Y-154644714D01*
X207908571Y-154759000D01*
X207965714Y-154873285D01*
X207622857Y-153787571D02*
X207622857Y-152987571D01*
X208822857Y-153501857D01*
X201342571Y-94243428D02*
X201399714Y-94300571D01*
X201456857Y-94472000D01*
X201456857Y-94586285D01*
X201399714Y-94757714D01*
X201285428Y-94872000D01*
X201171142Y-94929142D01*
X200942571Y-94986285D01*
X200771142Y-94986285D01*
X200542571Y-94929142D01*
X200428285Y-94872000D01*
X200314000Y-94757714D01*
X200256857Y-94586285D01*
X200256857Y-94472000D01*
X200314000Y-94300571D01*
X200371142Y-94243428D01*
X201456857Y-93100571D02*
X201456857Y-93786285D01*
X201456857Y-93443428D02*
X200256857Y-93443428D01*
X200428285Y-93557714D01*
X200542571Y-93672000D01*
X200599714Y-93786285D01*
X201456857Y-92529142D02*
X201456857Y-92300571D01*
X201399714Y-92186285D01*
X201342571Y-92129142D01*
X201171142Y-92014857D01*
X200942571Y-91957714D01*
X200485428Y-91957714D01*
X200371142Y-92014857D01*
X200314000Y-92072000D01*
X200256857Y-92186285D01*
X200256857Y-92414857D01*
X200314000Y-92529142D01*
X200371142Y-92586285D01*
X200485428Y-92643428D01*
X200771142Y-92643428D01*
X200885428Y-92586285D01*
X200942571Y-92529142D01*
X200999714Y-92414857D01*
X200999714Y-92186285D01*
X200942571Y-92072000D01*
X200885428Y-92014857D01*
X200771142Y-91957714D01*
X201342571Y-144408428D02*
X201399714Y-144465571D01*
X201456857Y-144637000D01*
X201456857Y-144751285D01*
X201399714Y-144922714D01*
X201285428Y-145037000D01*
X201171142Y-145094142D01*
X200942571Y-145151285D01*
X200771142Y-145151285D01*
X200542571Y-145094142D01*
X200428285Y-145037000D01*
X200314000Y-144922714D01*
X200256857Y-144751285D01*
X200256857Y-144637000D01*
X200314000Y-144465571D01*
X200371142Y-144408428D01*
X201456857Y-143265571D02*
X201456857Y-143951285D01*
X201456857Y-143608428D02*
X200256857Y-143608428D01*
X200428285Y-143722714D01*
X200542571Y-143837000D01*
X200599714Y-143951285D01*
X200771142Y-142579857D02*
X200714000Y-142694142D01*
X200656857Y-142751285D01*
X200542571Y-142808428D01*
X200485428Y-142808428D01*
X200371142Y-142751285D01*
X200314000Y-142694142D01*
X200256857Y-142579857D01*
X200256857Y-142351285D01*
X200314000Y-142237000D01*
X200371142Y-142179857D01*
X200485428Y-142122714D01*
X200542571Y-142122714D01*
X200656857Y-142179857D01*
X200714000Y-142237000D01*
X200771142Y-142351285D01*
X200771142Y-142579857D01*
X200828285Y-142694142D01*
X200885428Y-142751285D01*
X200999714Y-142808428D01*
X201228285Y-142808428D01*
X201342571Y-142751285D01*
X201399714Y-142694142D01*
X201456857Y-142579857D01*
X201456857Y-142351285D01*
X201399714Y-142237000D01*
X201342571Y-142179857D01*
X201228285Y-142122714D01*
X200999714Y-142122714D01*
X200885428Y-142179857D01*
X200828285Y-142237000D01*
X200771142Y-142351285D01*
X207438571Y-151647428D02*
X207495714Y-151704571D01*
X207552857Y-151876000D01*
X207552857Y-151990285D01*
X207495714Y-152161714D01*
X207381428Y-152276000D01*
X207267142Y-152333142D01*
X207038571Y-152390285D01*
X206867142Y-152390285D01*
X206638571Y-152333142D01*
X206524285Y-152276000D01*
X206410000Y-152161714D01*
X206352857Y-151990285D01*
X206352857Y-151876000D01*
X206410000Y-151704571D01*
X206467142Y-151647428D01*
X206467142Y-151190285D02*
X206410000Y-151133142D01*
X206352857Y-151018857D01*
X206352857Y-150733142D01*
X206410000Y-150618857D01*
X206467142Y-150561714D01*
X206581428Y-150504571D01*
X206695714Y-150504571D01*
X206867142Y-150561714D01*
X207552857Y-151247428D01*
X207552857Y-150504571D01*
X206352857Y-149761714D02*
X206352857Y-149647428D01*
X206410000Y-149533142D01*
X206467142Y-149476000D01*
X206581428Y-149418857D01*
X206810000Y-149361714D01*
X207095714Y-149361714D01*
X207324285Y-149418857D01*
X207438571Y-149476000D01*
X207495714Y-149533142D01*
X207552857Y-149647428D01*
X207552857Y-149761714D01*
X207495714Y-149876000D01*
X207438571Y-149933142D01*
X207324285Y-149990285D01*
X207095714Y-150047428D01*
X206810000Y-150047428D01*
X206581428Y-149990285D01*
X206467142Y-149933142D01*
X206410000Y-149876000D01*
X206352857Y-149761714D01*
X250872571Y-144535428D02*
X250929714Y-144592571D01*
X250986857Y-144764000D01*
X250986857Y-144878285D01*
X250929714Y-145049714D01*
X250815428Y-145164000D01*
X250701142Y-145221142D01*
X250472571Y-145278285D01*
X250301142Y-145278285D01*
X250072571Y-145221142D01*
X249958285Y-145164000D01*
X249844000Y-145049714D01*
X249786857Y-144878285D01*
X249786857Y-144764000D01*
X249844000Y-144592571D01*
X249901142Y-144535428D01*
X249901142Y-144078285D02*
X249844000Y-144021142D01*
X249786857Y-143906857D01*
X249786857Y-143621142D01*
X249844000Y-143506857D01*
X249901142Y-143449714D01*
X250015428Y-143392571D01*
X250129714Y-143392571D01*
X250301142Y-143449714D01*
X250986857Y-144135428D01*
X250986857Y-143392571D01*
X250186857Y-142364000D02*
X250986857Y-142364000D01*
X249729714Y-142649714D02*
X250586857Y-142935428D01*
X250586857Y-142192571D01*
X242744571Y-140979428D02*
X242801714Y-141036571D01*
X242858857Y-141208000D01*
X242858857Y-141322285D01*
X242801714Y-141493714D01*
X242687428Y-141608000D01*
X242573142Y-141665142D01*
X242344571Y-141722285D01*
X242173142Y-141722285D01*
X241944571Y-141665142D01*
X241830285Y-141608000D01*
X241716000Y-141493714D01*
X241658857Y-141322285D01*
X241658857Y-141208000D01*
X241716000Y-141036571D01*
X241773142Y-140979428D01*
X241773142Y-140522285D02*
X241716000Y-140465142D01*
X241658857Y-140350857D01*
X241658857Y-140065142D01*
X241716000Y-139950857D01*
X241773142Y-139893714D01*
X241887428Y-139836571D01*
X242001714Y-139836571D01*
X242173142Y-139893714D01*
X242858857Y-140579428D01*
X242858857Y-139836571D01*
X241658857Y-138750857D02*
X241658857Y-139322285D01*
X242230285Y-139379428D01*
X242173142Y-139322285D01*
X242116000Y-139208000D01*
X242116000Y-138922285D01*
X242173142Y-138808000D01*
X242230285Y-138750857D01*
X242344571Y-138693714D01*
X242630285Y-138693714D01*
X242744571Y-138750857D01*
X242801714Y-138808000D01*
X242858857Y-138922285D01*
X242858857Y-139208000D01*
X242801714Y-139322285D01*
X242744571Y-139379428D01*
X228222285Y-69122857D02*
X228222285Y-67922857D01*
X228508000Y-67922857D01*
X228679428Y-67980000D01*
X228793714Y-68094285D01*
X228850857Y-68208571D01*
X228908000Y-68437142D01*
X228908000Y-68608571D01*
X228850857Y-68837142D01*
X228793714Y-68951428D01*
X228679428Y-69065714D01*
X228508000Y-69122857D01*
X228222285Y-69122857D01*
X230050857Y-69122857D02*
X229365142Y-69122857D01*
X229708000Y-69122857D02*
X229708000Y-67922857D01*
X229593714Y-68094285D01*
X229479428Y-68208571D01*
X229365142Y-68265714D01*
X255812857Y-70434000D02*
X254612857Y-70434000D01*
X254612857Y-69976857D01*
X254670000Y-69862571D01*
X254727142Y-69805428D01*
X254841428Y-69748285D01*
X255012857Y-69748285D01*
X255127142Y-69805428D01*
X255184285Y-69862571D01*
X255241428Y-69976857D01*
X255241428Y-70434000D01*
X254612857Y-69348285D02*
X255812857Y-69062571D01*
X254955714Y-68834000D01*
X255812857Y-68605428D01*
X254612857Y-68319714D01*
X255812857Y-67176857D02*
X255241428Y-67576857D01*
X255812857Y-67862571D02*
X254612857Y-67862571D01*
X254612857Y-67405428D01*
X254670000Y-67291142D01*
X254727142Y-67234000D01*
X254841428Y-67176857D01*
X255012857Y-67176857D01*
X255127142Y-67234000D01*
X255184285Y-67291142D01*
X255241428Y-67405428D01*
X255241428Y-67862571D01*
X245087714Y-152037857D02*
X245144857Y-151866428D01*
X245144857Y-151580714D01*
X245087714Y-151466428D01*
X245030571Y-151409285D01*
X244916285Y-151352142D01*
X244802000Y-151352142D01*
X244687714Y-151409285D01*
X244630571Y-151466428D01*
X244573428Y-151580714D01*
X244516285Y-151809285D01*
X244459142Y-151923571D01*
X244402000Y-151980714D01*
X244287714Y-152037857D01*
X244173428Y-152037857D01*
X244059142Y-151980714D01*
X244002000Y-151923571D01*
X243944857Y-151809285D01*
X243944857Y-151523571D01*
X244002000Y-151352142D01*
X245030571Y-150152142D02*
X245087714Y-150209285D01*
X245144857Y-150380714D01*
X245144857Y-150495000D01*
X245087714Y-150666428D01*
X244973428Y-150780714D01*
X244859142Y-150837857D01*
X244630571Y-150895000D01*
X244459142Y-150895000D01*
X244230571Y-150837857D01*
X244116285Y-150780714D01*
X244002000Y-150666428D01*
X243944857Y-150495000D01*
X243944857Y-150380714D01*
X244002000Y-150209285D01*
X244059142Y-150152142D01*
X245144857Y-149637857D02*
X243944857Y-149637857D01*
X245144857Y-148952142D02*
X244459142Y-149466428D01*
X243944857Y-148952142D02*
X244630571Y-149637857D01*
X174882285Y-155990857D02*
X174882285Y-154790857D01*
X175168000Y-154790857D01*
X175339428Y-154848000D01*
X175453714Y-154962285D01*
X175510857Y-155076571D01*
X175568000Y-155305142D01*
X175568000Y-155476571D01*
X175510857Y-155705142D01*
X175453714Y-155819428D01*
X175339428Y-155933714D01*
X175168000Y-155990857D01*
X174882285Y-155990857D01*
X176596571Y-155190857D02*
X176596571Y-155990857D01*
X176310857Y-154733714D02*
X176025142Y-155590857D01*
X176768000Y-155590857D01*
X174882285Y-130590857D02*
X174882285Y-129390857D01*
X175168000Y-129390857D01*
X175339428Y-129448000D01*
X175453714Y-129562285D01*
X175510857Y-129676571D01*
X175568000Y-129905142D01*
X175568000Y-130076571D01*
X175510857Y-130305142D01*
X175453714Y-130419428D01*
X175339428Y-130533714D01*
X175168000Y-130590857D01*
X174882285Y-130590857D01*
X176653714Y-129390857D02*
X176082285Y-129390857D01*
X176025142Y-129962285D01*
X176082285Y-129905142D01*
X176196571Y-129848000D01*
X176482285Y-129848000D01*
X176596571Y-129905142D01*
X176653714Y-129962285D01*
X176710857Y-130076571D01*
X176710857Y-130362285D01*
X176653714Y-130476571D01*
X176596571Y-130533714D01*
X176482285Y-130590857D01*
X176196571Y-130590857D01*
X176082285Y-130533714D01*
X176025142Y-130476571D01*
X174882285Y-105190857D02*
X174882285Y-103990857D01*
X175168000Y-103990857D01*
X175339428Y-104048000D01*
X175453714Y-104162285D01*
X175510857Y-104276571D01*
X175568000Y-104505142D01*
X175568000Y-104676571D01*
X175510857Y-104905142D01*
X175453714Y-105019428D01*
X175339428Y-105133714D01*
X175168000Y-105190857D01*
X174882285Y-105190857D01*
X176596571Y-103990857D02*
X176368000Y-103990857D01*
X176253714Y-104048000D01*
X176196571Y-104105142D01*
X176082285Y-104276571D01*
X176025142Y-104505142D01*
X176025142Y-104962285D01*
X176082285Y-105076571D01*
X176139428Y-105133714D01*
X176253714Y-105190857D01*
X176482285Y-105190857D01*
X176596571Y-105133714D01*
X176653714Y-105076571D01*
X176710857Y-104962285D01*
X176710857Y-104676571D01*
X176653714Y-104562285D01*
X176596571Y-104505142D01*
X176482285Y-104448000D01*
X176253714Y-104448000D01*
X176139428Y-104505142D01*
X176082285Y-104562285D01*
X176025142Y-104676571D01*
X174882285Y-79790857D02*
X174882285Y-78590857D01*
X175168000Y-78590857D01*
X175339428Y-78648000D01*
X175453714Y-78762285D01*
X175510857Y-78876571D01*
X175568000Y-79105142D01*
X175568000Y-79276571D01*
X175510857Y-79505142D01*
X175453714Y-79619428D01*
X175339428Y-79733714D01*
X175168000Y-79790857D01*
X174882285Y-79790857D01*
X175968000Y-78590857D02*
X176768000Y-78590857D01*
X176253714Y-79790857D01*
X221910285Y-118221000D02*
X221910285Y-118621000D01*
X222538857Y-118621000D02*
X221338857Y-118621000D01*
X221338857Y-118049571D01*
X221910285Y-117192428D02*
X221967428Y-117021000D01*
X222024571Y-116963857D01*
X222138857Y-116906714D01*
X222310285Y-116906714D01*
X222424571Y-116963857D01*
X222481714Y-117021000D01*
X222538857Y-117135285D01*
X222538857Y-117592428D01*
X221338857Y-117592428D01*
X221338857Y-117192428D01*
X221396000Y-117078142D01*
X221453142Y-117021000D01*
X221567428Y-116963857D01*
X221681714Y-116963857D01*
X221796000Y-117021000D01*
X221853142Y-117078142D01*
X221910285Y-117192428D01*
X221910285Y-117592428D01*
X222538857Y-115763857D02*
X222538857Y-116449571D01*
X222538857Y-116106714D02*
X221338857Y-116106714D01*
X221510285Y-116221000D01*
X221624571Y-116335285D01*
X221681714Y-116449571D01*
X222164285Y-160258000D02*
X222164285Y-160658000D01*
X222792857Y-160658000D02*
X221592857Y-160658000D01*
X221592857Y-160086571D01*
X222164285Y-159229428D02*
X222221428Y-159058000D01*
X222278571Y-159000857D01*
X222392857Y-158943714D01*
X222564285Y-158943714D01*
X222678571Y-159000857D01*
X222735714Y-159058000D01*
X222792857Y-159172285D01*
X222792857Y-159629428D01*
X221592857Y-159629428D01*
X221592857Y-159229428D01*
X221650000Y-159115142D01*
X221707142Y-159058000D01*
X221821428Y-159000857D01*
X221935714Y-159000857D01*
X222050000Y-159058000D01*
X222107142Y-159115142D01*
X222164285Y-159229428D01*
X222164285Y-159629428D01*
X221707142Y-158486571D02*
X221650000Y-158429428D01*
X221592857Y-158315142D01*
X221592857Y-158029428D01*
X221650000Y-157915142D01*
X221707142Y-157858000D01*
X221821428Y-157800857D01*
X221935714Y-157800857D01*
X222107142Y-157858000D01*
X222792857Y-158543714D01*
X222792857Y-157800857D01*
X233111685Y-108442000D02*
X233111685Y-108842000D01*
X233740257Y-108842000D02*
X232540257Y-108842000D01*
X232540257Y-108270571D01*
X233111685Y-107413428D02*
X233168828Y-107242000D01*
X233225971Y-107184857D01*
X233340257Y-107127714D01*
X233511685Y-107127714D01*
X233625971Y-107184857D01*
X233683114Y-107242000D01*
X233740257Y-107356285D01*
X233740257Y-107813428D01*
X232540257Y-107813428D01*
X232540257Y-107413428D01*
X232597400Y-107299142D01*
X232654542Y-107242000D01*
X232768828Y-107184857D01*
X232883114Y-107184857D01*
X232997400Y-107242000D01*
X233054542Y-107299142D01*
X233111685Y-107413428D01*
X233111685Y-107813428D01*
X232540257Y-106727714D02*
X232540257Y-105984857D01*
X232997400Y-106384857D01*
X232997400Y-106213428D01*
X233054542Y-106099142D01*
X233111685Y-106042000D01*
X233225971Y-105984857D01*
X233511685Y-105984857D01*
X233625971Y-106042000D01*
X233683114Y-106099142D01*
X233740257Y-106213428D01*
X233740257Y-106556285D01*
X233683114Y-106670571D01*
X233625971Y-106727714D01*
X210226285Y-155559000D02*
X210226285Y-155959000D01*
X210854857Y-155959000D02*
X209654857Y-155959000D01*
X209654857Y-155387571D01*
X210226285Y-154530428D02*
X210283428Y-154359000D01*
X210340571Y-154301857D01*
X210454857Y-154244714D01*
X210626285Y-154244714D01*
X210740571Y-154301857D01*
X210797714Y-154359000D01*
X210854857Y-154473285D01*
X210854857Y-154930428D01*
X209654857Y-154930428D01*
X209654857Y-154530428D01*
X209712000Y-154416142D01*
X209769142Y-154359000D01*
X209883428Y-154301857D01*
X209997714Y-154301857D01*
X210112000Y-154359000D01*
X210169142Y-154416142D01*
X210226285Y-154530428D01*
X210226285Y-154930428D01*
X210054857Y-153216142D02*
X210854857Y-153216142D01*
X209597714Y-153501857D02*
X210454857Y-153787571D01*
X210454857Y-153044714D01*
X198288285Y-94472000D02*
X198288285Y-94872000D01*
X198916857Y-94872000D02*
X197716857Y-94872000D01*
X197716857Y-94300571D01*
X198288285Y-93443428D02*
X198345428Y-93272000D01*
X198402571Y-93214857D01*
X198516857Y-93157714D01*
X198688285Y-93157714D01*
X198802571Y-93214857D01*
X198859714Y-93272000D01*
X198916857Y-93386285D01*
X198916857Y-93843428D01*
X197716857Y-93843428D01*
X197716857Y-93443428D01*
X197774000Y-93329142D01*
X197831142Y-93272000D01*
X197945428Y-93214857D01*
X198059714Y-93214857D01*
X198174000Y-93272000D01*
X198231142Y-93329142D01*
X198288285Y-93443428D01*
X198288285Y-93843428D01*
X197716857Y-92129142D02*
X197716857Y-92357714D01*
X197774000Y-92472000D01*
X197831142Y-92529142D01*
X198002571Y-92643428D01*
X198231142Y-92700571D01*
X198688285Y-92700571D01*
X198802571Y-92643428D01*
X198859714Y-92586285D01*
X198916857Y-92472000D01*
X198916857Y-92243428D01*
X198859714Y-92129142D01*
X198802571Y-92072000D01*
X198688285Y-92014857D01*
X198402571Y-92014857D01*
X198288285Y-92072000D01*
X198231142Y-92129142D01*
X198174000Y-92243428D01*
X198174000Y-92472000D01*
X198231142Y-92586285D01*
X198288285Y-92643428D01*
X198402571Y-92700571D01*
X198288285Y-144637000D02*
X198288285Y-145037000D01*
X198916857Y-145037000D02*
X197716857Y-145037000D01*
X197716857Y-144465571D01*
X198288285Y-143608428D02*
X198345428Y-143437000D01*
X198402571Y-143379857D01*
X198516857Y-143322714D01*
X198688285Y-143322714D01*
X198802571Y-143379857D01*
X198859714Y-143437000D01*
X198916857Y-143551285D01*
X198916857Y-144008428D01*
X197716857Y-144008428D01*
X197716857Y-143608428D01*
X197774000Y-143494142D01*
X197831142Y-143437000D01*
X197945428Y-143379857D01*
X198059714Y-143379857D01*
X198174000Y-143437000D01*
X198231142Y-143494142D01*
X198288285Y-143608428D01*
X198288285Y-144008428D01*
X197716857Y-142237000D02*
X197716857Y-142808428D01*
X198288285Y-142865571D01*
X198231142Y-142808428D01*
X198174000Y-142694142D01*
X198174000Y-142408428D01*
X198231142Y-142294142D01*
X198288285Y-142237000D01*
X198402571Y-142179857D01*
X198688285Y-142179857D01*
X198802571Y-142237000D01*
X198859714Y-142294142D01*
X198916857Y-142408428D01*
X198916857Y-142694142D01*
X198859714Y-142808428D01*
X198802571Y-142865571D01*
X202079142Y-150228285D02*
X202022000Y-150342571D01*
X201907714Y-150456857D01*
X201736285Y-150628285D01*
X201679142Y-150742571D01*
X201679142Y-150856857D01*
X201964857Y-150799714D02*
X201907714Y-150914000D01*
X201793428Y-151028285D01*
X201564857Y-151085428D01*
X201164857Y-151085428D01*
X200936285Y-151028285D01*
X200822000Y-150914000D01*
X200764857Y-150799714D01*
X200764857Y-150571142D01*
X200822000Y-150456857D01*
X200936285Y-150342571D01*
X201164857Y-150285428D01*
X201564857Y-150285428D01*
X201793428Y-150342571D01*
X201907714Y-150456857D01*
X201964857Y-150571142D01*
X201964857Y-150799714D01*
X201964857Y-149142571D02*
X201964857Y-149828285D01*
X201964857Y-149485428D02*
X200764857Y-149485428D01*
X200936285Y-149599714D01*
X201050571Y-149714000D01*
X201107714Y-149828285D01*
X202079142Y-132702285D02*
X202022000Y-132816571D01*
X201907714Y-132930857D01*
X201736285Y-133102285D01*
X201679142Y-133216571D01*
X201679142Y-133330857D01*
X201964857Y-133273714D02*
X201907714Y-133388000D01*
X201793428Y-133502285D01*
X201564857Y-133559428D01*
X201164857Y-133559428D01*
X200936285Y-133502285D01*
X200822000Y-133388000D01*
X200764857Y-133273714D01*
X200764857Y-133045142D01*
X200822000Y-132930857D01*
X200936285Y-132816571D01*
X201164857Y-132759428D01*
X201564857Y-132759428D01*
X201793428Y-132816571D01*
X201907714Y-132930857D01*
X201964857Y-133045142D01*
X201964857Y-133273714D01*
X200764857Y-132359428D02*
X200764857Y-131616571D01*
X201222000Y-132016571D01*
X201222000Y-131845142D01*
X201279142Y-131730857D01*
X201336285Y-131673714D01*
X201450571Y-131616571D01*
X201736285Y-131616571D01*
X201850571Y-131673714D01*
X201907714Y-131730857D01*
X201964857Y-131845142D01*
X201964857Y-132188000D01*
X201907714Y-132302285D01*
X201850571Y-132359428D01*
X202079142Y-100190285D02*
X202022000Y-100304571D01*
X201907714Y-100418857D01*
X201736285Y-100590285D01*
X201679142Y-100704571D01*
X201679142Y-100818857D01*
X201964857Y-100761714D02*
X201907714Y-100876000D01*
X201793428Y-100990285D01*
X201564857Y-101047428D01*
X201164857Y-101047428D01*
X200936285Y-100990285D01*
X200822000Y-100876000D01*
X200764857Y-100761714D01*
X200764857Y-100533142D01*
X200822000Y-100418857D01*
X200936285Y-100304571D01*
X201164857Y-100247428D01*
X201564857Y-100247428D01*
X201793428Y-100304571D01*
X201907714Y-100418857D01*
X201964857Y-100533142D01*
X201964857Y-100761714D01*
X200764857Y-99161714D02*
X200764857Y-99733142D01*
X201336285Y-99790285D01*
X201279142Y-99733142D01*
X201222000Y-99618857D01*
X201222000Y-99333142D01*
X201279142Y-99218857D01*
X201336285Y-99161714D01*
X201450571Y-99104571D01*
X201736285Y-99104571D01*
X201850571Y-99161714D01*
X201907714Y-99218857D01*
X201964857Y-99333142D01*
X201964857Y-99618857D01*
X201907714Y-99733142D01*
X201850571Y-99790285D01*
X202079142Y-82410285D02*
X202022000Y-82524571D01*
X201907714Y-82638857D01*
X201736285Y-82810285D01*
X201679142Y-82924571D01*
X201679142Y-83038857D01*
X201964857Y-82981714D02*
X201907714Y-83096000D01*
X201793428Y-83210285D01*
X201564857Y-83267428D01*
X201164857Y-83267428D01*
X200936285Y-83210285D01*
X200822000Y-83096000D01*
X200764857Y-82981714D01*
X200764857Y-82753142D01*
X200822000Y-82638857D01*
X200936285Y-82524571D01*
X201164857Y-82467428D01*
X201564857Y-82467428D01*
X201793428Y-82524571D01*
X201907714Y-82638857D01*
X201964857Y-82753142D01*
X201964857Y-82981714D01*
X200764857Y-82067428D02*
X200764857Y-81267428D01*
X201964857Y-81781714D01*
X253272857Y-68272000D02*
X252701428Y-68672000D01*
X253272857Y-68957714D02*
X252072857Y-68957714D01*
X252072857Y-68500571D01*
X252130000Y-68386285D01*
X252187142Y-68329142D01*
X252301428Y-68272000D01*
X252472857Y-68272000D01*
X252587142Y-68329142D01*
X252644285Y-68386285D01*
X252701428Y-68500571D01*
X252701428Y-68957714D01*
X253272857Y-67129142D02*
X253272857Y-67814857D01*
X253272857Y-67472000D02*
X252072857Y-67472000D01*
X252244285Y-67586285D01*
X252358571Y-67700571D01*
X252415714Y-67814857D01*
X247704000Y-126780857D02*
X247304000Y-126209428D01*
X247018285Y-126780857D02*
X247018285Y-125580857D01*
X247475428Y-125580857D01*
X247589714Y-125638000D01*
X247646857Y-125695142D01*
X247704000Y-125809428D01*
X247704000Y-125980857D01*
X247646857Y-126095142D01*
X247589714Y-126152285D01*
X247475428Y-126209428D01*
X247018285Y-126209428D01*
X248161142Y-125695142D02*
X248218285Y-125638000D01*
X248332571Y-125580857D01*
X248618285Y-125580857D01*
X248732571Y-125638000D01*
X248789714Y-125695142D01*
X248846857Y-125809428D01*
X248846857Y-125923714D01*
X248789714Y-126095142D01*
X248104000Y-126780857D01*
X248846857Y-126780857D01*
X229416000Y-124113857D02*
X229016000Y-123542428D01*
X228730285Y-124113857D02*
X228730285Y-122913857D01*
X229187428Y-122913857D01*
X229301714Y-122971000D01*
X229358857Y-123028142D01*
X229416000Y-123142428D01*
X229416000Y-123313857D01*
X229358857Y-123428142D01*
X229301714Y-123485285D01*
X229187428Y-123542428D01*
X228730285Y-123542428D01*
X229816000Y-122913857D02*
X230558857Y-122913857D01*
X230158857Y-123371000D01*
X230330285Y-123371000D01*
X230444571Y-123428142D01*
X230501714Y-123485285D01*
X230558857Y-123599571D01*
X230558857Y-123885285D01*
X230501714Y-123999571D01*
X230444571Y-124056714D01*
X230330285Y-124113857D01*
X229987428Y-124113857D01*
X229873142Y-124056714D01*
X229816000Y-123999571D01*
X242858857Y-150060000D02*
X242287428Y-150460000D01*
X242858857Y-150745714D02*
X241658857Y-150745714D01*
X241658857Y-150288571D01*
X241716000Y-150174285D01*
X241773142Y-150117142D01*
X241887428Y-150060000D01*
X242058857Y-150060000D01*
X242173142Y-150117142D01*
X242230285Y-150174285D01*
X242287428Y-150288571D01*
X242287428Y-150745714D01*
X242058857Y-149031428D02*
X242858857Y-149031428D01*
X241601714Y-149317142D02*
X242458857Y-149602857D01*
X242458857Y-148860000D01*
X227064436Y-131335279D02*
X226377532Y-131214061D01*
X226579563Y-131820152D02*
X225731035Y-130971624D01*
X226054284Y-130648375D01*
X226175502Y-130607969D01*
X226256314Y-130607969D01*
X226377532Y-130648375D01*
X226498751Y-130769593D01*
X226539157Y-130890812D01*
X226539157Y-130971624D01*
X226498751Y-131092842D01*
X226175502Y-131416091D01*
X226983624Y-129719035D02*
X226579563Y-130123096D01*
X226943218Y-130567563D01*
X226943218Y-130486751D01*
X226983624Y-130365532D01*
X227185654Y-130163502D01*
X227306873Y-130123096D01*
X227387685Y-130123096D01*
X227508903Y-130163502D01*
X227710934Y-130365532D01*
X227751340Y-130486751D01*
X227751340Y-130567563D01*
X227710934Y-130688781D01*
X227508903Y-130890812D01*
X227387685Y-130931218D01*
X227306873Y-130931218D01*
X247704000Y-129066857D02*
X247304000Y-128495428D01*
X247018285Y-129066857D02*
X247018285Y-127866857D01*
X247475428Y-127866857D01*
X247589714Y-127924000D01*
X247646857Y-127981142D01*
X247704000Y-128095428D01*
X247704000Y-128266857D01*
X247646857Y-128381142D01*
X247589714Y-128438285D01*
X247475428Y-128495428D01*
X247018285Y-128495428D01*
X248732571Y-127866857D02*
X248504000Y-127866857D01*
X248389714Y-127924000D01*
X248332571Y-127981142D01*
X248218285Y-128152571D01*
X248161142Y-128381142D01*
X248161142Y-128838285D01*
X248218285Y-128952571D01*
X248275428Y-129009714D01*
X248389714Y-129066857D01*
X248618285Y-129066857D01*
X248732571Y-129009714D01*
X248789714Y-128952571D01*
X248846857Y-128838285D01*
X248846857Y-128552571D01*
X248789714Y-128438285D01*
X248732571Y-128381142D01*
X248618285Y-128324000D01*
X248389714Y-128324000D01*
X248275428Y-128381142D01*
X248218285Y-128438285D01*
X248161142Y-128552571D01*
X247704000Y-131352857D02*
X247304000Y-130781428D01*
X247018285Y-131352857D02*
X247018285Y-130152857D01*
X247475428Y-130152857D01*
X247589714Y-130210000D01*
X247646857Y-130267142D01*
X247704000Y-130381428D01*
X247704000Y-130552857D01*
X247646857Y-130667142D01*
X247589714Y-130724285D01*
X247475428Y-130781428D01*
X247018285Y-130781428D01*
X248104000Y-130152857D02*
X248904000Y-130152857D01*
X248389714Y-131352857D01*
X247831000Y-119160857D02*
X247431000Y-118589428D01*
X247145285Y-119160857D02*
X247145285Y-117960857D01*
X247602428Y-117960857D01*
X247716714Y-118018000D01*
X247773857Y-118075142D01*
X247831000Y-118189428D01*
X247831000Y-118360857D01*
X247773857Y-118475142D01*
X247716714Y-118532285D01*
X247602428Y-118589428D01*
X247145285Y-118589428D01*
X248516714Y-118475142D02*
X248402428Y-118418000D01*
X248345285Y-118360857D01*
X248288142Y-118246571D01*
X248288142Y-118189428D01*
X248345285Y-118075142D01*
X248402428Y-118018000D01*
X248516714Y-117960857D01*
X248745285Y-117960857D01*
X248859571Y-118018000D01*
X248916714Y-118075142D01*
X248973857Y-118189428D01*
X248973857Y-118246571D01*
X248916714Y-118360857D01*
X248859571Y-118418000D01*
X248745285Y-118475142D01*
X248516714Y-118475142D01*
X248402428Y-118532285D01*
X248345285Y-118589428D01*
X248288142Y-118703714D01*
X248288142Y-118932285D01*
X248345285Y-119046571D01*
X248402428Y-119103714D01*
X248516714Y-119160857D01*
X248745285Y-119160857D01*
X248859571Y-119103714D01*
X248916714Y-119046571D01*
X248973857Y-118932285D01*
X248973857Y-118703714D01*
X248916714Y-118589428D01*
X248859571Y-118532285D01*
X248745285Y-118475142D01*
X247704000Y-121700857D02*
X247304000Y-121129428D01*
X247018285Y-121700857D02*
X247018285Y-120500857D01*
X247475428Y-120500857D01*
X247589714Y-120558000D01*
X247646857Y-120615142D01*
X247704000Y-120729428D01*
X247704000Y-120900857D01*
X247646857Y-121015142D01*
X247589714Y-121072285D01*
X247475428Y-121129428D01*
X247018285Y-121129428D01*
X248275428Y-121700857D02*
X248504000Y-121700857D01*
X248618285Y-121643714D01*
X248675428Y-121586571D01*
X248789714Y-121415142D01*
X248846857Y-121186571D01*
X248846857Y-120729428D01*
X248789714Y-120615142D01*
X248732571Y-120558000D01*
X248618285Y-120500857D01*
X248389714Y-120500857D01*
X248275428Y-120558000D01*
X248218285Y-120615142D01*
X248161142Y-120729428D01*
X248161142Y-121015142D01*
X248218285Y-121129428D01*
X248275428Y-121186571D01*
X248389714Y-121243714D01*
X248618285Y-121243714D01*
X248732571Y-121186571D01*
X248789714Y-121129428D01*
X248846857Y-121015142D01*
X247640571Y-116620857D02*
X247240571Y-116049428D01*
X246954857Y-116620857D02*
X246954857Y-115420857D01*
X247412000Y-115420857D01*
X247526285Y-115478000D01*
X247583428Y-115535142D01*
X247640571Y-115649428D01*
X247640571Y-115820857D01*
X247583428Y-115935142D01*
X247526285Y-115992285D01*
X247412000Y-116049428D01*
X246954857Y-116049428D01*
X248783428Y-116620857D02*
X248097714Y-116620857D01*
X248440571Y-116620857D02*
X248440571Y-115420857D01*
X248326285Y-115592285D01*
X248212000Y-115706571D01*
X248097714Y-115763714D01*
X249526285Y-115420857D02*
X249640571Y-115420857D01*
X249754857Y-115478000D01*
X249812000Y-115535142D01*
X249869142Y-115649428D01*
X249926285Y-115878000D01*
X249926285Y-116163714D01*
X249869142Y-116392285D01*
X249812000Y-116506571D01*
X249754857Y-116563714D01*
X249640571Y-116620857D01*
X249526285Y-116620857D01*
X249412000Y-116563714D01*
X249354857Y-116506571D01*
X249297714Y-116392285D01*
X249240571Y-116163714D01*
X249240571Y-115878000D01*
X249297714Y-115649428D01*
X249354857Y-115535142D01*
X249412000Y-115478000D01*
X249526285Y-115420857D01*
X214410857Y-122691428D02*
X213839428Y-123091428D01*
X214410857Y-123377142D02*
X213210857Y-123377142D01*
X213210857Y-122920000D01*
X213268000Y-122805714D01*
X213325142Y-122748571D01*
X213439428Y-122691428D01*
X213610857Y-122691428D01*
X213725142Y-122748571D01*
X213782285Y-122805714D01*
X213839428Y-122920000D01*
X213839428Y-123377142D01*
X214410857Y-121548571D02*
X214410857Y-122234285D01*
X214410857Y-121891428D02*
X213210857Y-121891428D01*
X213382285Y-122005714D01*
X213496571Y-122120000D01*
X213553714Y-122234285D01*
X214410857Y-120405714D02*
X214410857Y-121091428D01*
X214410857Y-120748571D02*
X213210857Y-120748571D01*
X213382285Y-120862857D01*
X213496571Y-120977142D01*
X213553714Y-121091428D01*
X214156857Y-160029428D02*
X213585428Y-160429428D01*
X214156857Y-160715142D02*
X212956857Y-160715142D01*
X212956857Y-160258000D01*
X213014000Y-160143714D01*
X213071142Y-160086571D01*
X213185428Y-160029428D01*
X213356857Y-160029428D01*
X213471142Y-160086571D01*
X213528285Y-160143714D01*
X213585428Y-160258000D01*
X213585428Y-160715142D01*
X214156857Y-158886571D02*
X214156857Y-159572285D01*
X214156857Y-159229428D02*
X212956857Y-159229428D01*
X213128285Y-159343714D01*
X213242571Y-159458000D01*
X213299714Y-159572285D01*
X213071142Y-158429428D02*
X213014000Y-158372285D01*
X212956857Y-158258000D01*
X212956857Y-157972285D01*
X213014000Y-157858000D01*
X213071142Y-157800857D01*
X213185428Y-157743714D01*
X213299714Y-157743714D01*
X213471142Y-157800857D01*
X214156857Y-158486571D01*
X214156857Y-157743714D01*
X204758857Y-170443428D02*
X204187428Y-170843428D01*
X204758857Y-171129142D02*
X203558857Y-171129142D01*
X203558857Y-170672000D01*
X203616000Y-170557714D01*
X203673142Y-170500571D01*
X203787428Y-170443428D01*
X203958857Y-170443428D01*
X204073142Y-170500571D01*
X204130285Y-170557714D01*
X204187428Y-170672000D01*
X204187428Y-171129142D01*
X204758857Y-169300571D02*
X204758857Y-169986285D01*
X204758857Y-169643428D02*
X203558857Y-169643428D01*
X203730285Y-169757714D01*
X203844571Y-169872000D01*
X203901714Y-169986285D01*
X203558857Y-168900571D02*
X203558857Y-168157714D01*
X204016000Y-168557714D01*
X204016000Y-168386285D01*
X204073142Y-168272000D01*
X204130285Y-168214857D01*
X204244571Y-168157714D01*
X204530285Y-168157714D01*
X204644571Y-168214857D01*
X204701714Y-168272000D01*
X204758857Y-168386285D01*
X204758857Y-168729142D01*
X204701714Y-168843428D01*
X204644571Y-168900571D01*
X207298857Y-170443428D02*
X206727428Y-170843428D01*
X207298857Y-171129142D02*
X206098857Y-171129142D01*
X206098857Y-170672000D01*
X206156000Y-170557714D01*
X206213142Y-170500571D01*
X206327428Y-170443428D01*
X206498857Y-170443428D01*
X206613142Y-170500571D01*
X206670285Y-170557714D01*
X206727428Y-170672000D01*
X206727428Y-171129142D01*
X207298857Y-169300571D02*
X207298857Y-169986285D01*
X207298857Y-169643428D02*
X206098857Y-169643428D01*
X206270285Y-169757714D01*
X206384571Y-169872000D01*
X206441714Y-169986285D01*
X206498857Y-168272000D02*
X207298857Y-168272000D01*
X206041714Y-168557714D02*
X206898857Y-168843428D01*
X206898857Y-168100571D01*
X209838857Y-170443428D02*
X209267428Y-170843428D01*
X209838857Y-171129142D02*
X208638857Y-171129142D01*
X208638857Y-170672000D01*
X208696000Y-170557714D01*
X208753142Y-170500571D01*
X208867428Y-170443428D01*
X209038857Y-170443428D01*
X209153142Y-170500571D01*
X209210285Y-170557714D01*
X209267428Y-170672000D01*
X209267428Y-171129142D01*
X209838857Y-169300571D02*
X209838857Y-169986285D01*
X209838857Y-169643428D02*
X208638857Y-169643428D01*
X208810285Y-169757714D01*
X208924571Y-169872000D01*
X208981714Y-169986285D01*
X208638857Y-168214857D02*
X208638857Y-168786285D01*
X209210285Y-168843428D01*
X209153142Y-168786285D01*
X209096000Y-168672000D01*
X209096000Y-168386285D01*
X209153142Y-168272000D01*
X209210285Y-168214857D01*
X209324571Y-168157714D01*
X209610285Y-168157714D01*
X209724571Y-168214857D01*
X209781714Y-168272000D01*
X209838857Y-168386285D01*
X209838857Y-168672000D01*
X209781714Y-168786285D01*
X209724571Y-168843428D01*
X202218857Y-170443428D02*
X201647428Y-170843428D01*
X202218857Y-171129142D02*
X201018857Y-171129142D01*
X201018857Y-170672000D01*
X201076000Y-170557714D01*
X201133142Y-170500571D01*
X201247428Y-170443428D01*
X201418857Y-170443428D01*
X201533142Y-170500571D01*
X201590285Y-170557714D01*
X201647428Y-170672000D01*
X201647428Y-171129142D01*
X202218857Y-169300571D02*
X202218857Y-169986285D01*
X202218857Y-169643428D02*
X201018857Y-169643428D01*
X201190285Y-169757714D01*
X201304571Y-169872000D01*
X201361714Y-169986285D01*
X201018857Y-168272000D02*
X201018857Y-168500571D01*
X201076000Y-168614857D01*
X201133142Y-168672000D01*
X201304571Y-168786285D01*
X201533142Y-168843428D01*
X201990285Y-168843428D01*
X202104571Y-168786285D01*
X202161714Y-168729142D01*
X202218857Y-168614857D01*
X202218857Y-168386285D01*
X202161714Y-168272000D01*
X202104571Y-168214857D01*
X201990285Y-168157714D01*
X201704571Y-168157714D01*
X201590285Y-168214857D01*
X201533142Y-168272000D01*
X201476000Y-168386285D01*
X201476000Y-168614857D01*
X201533142Y-168729142D01*
X201590285Y-168786285D01*
X201704571Y-168843428D01*
X205012857Y-151647428D02*
X204441428Y-152047428D01*
X205012857Y-152333142D02*
X203812857Y-152333142D01*
X203812857Y-151876000D01*
X203870000Y-151761714D01*
X203927142Y-151704571D01*
X204041428Y-151647428D01*
X204212857Y-151647428D01*
X204327142Y-151704571D01*
X204384285Y-151761714D01*
X204441428Y-151876000D01*
X204441428Y-152333142D01*
X205012857Y-150504571D02*
X205012857Y-151190285D01*
X205012857Y-150847428D02*
X203812857Y-150847428D01*
X203984285Y-150961714D01*
X204098571Y-151076000D01*
X204155714Y-151190285D01*
X203812857Y-150104571D02*
X203812857Y-149304571D01*
X205012857Y-149818857D01*
X205012857Y-132851428D02*
X204441428Y-133251428D01*
X205012857Y-133537142D02*
X203812857Y-133537142D01*
X203812857Y-133080000D01*
X203870000Y-132965714D01*
X203927142Y-132908571D01*
X204041428Y-132851428D01*
X204212857Y-132851428D01*
X204327142Y-132908571D01*
X204384285Y-132965714D01*
X204441428Y-133080000D01*
X204441428Y-133537142D01*
X205012857Y-131708571D02*
X205012857Y-132394285D01*
X205012857Y-132051428D02*
X203812857Y-132051428D01*
X203984285Y-132165714D01*
X204098571Y-132280000D01*
X204155714Y-132394285D01*
X205012857Y-131137142D02*
X205012857Y-130908571D01*
X204955714Y-130794285D01*
X204898571Y-130737142D01*
X204727142Y-130622857D01*
X204498571Y-130565714D01*
X204041428Y-130565714D01*
X203927142Y-130622857D01*
X203870000Y-130680000D01*
X203812857Y-130794285D01*
X203812857Y-131022857D01*
X203870000Y-131137142D01*
X203927142Y-131194285D01*
X204041428Y-131251428D01*
X204327142Y-131251428D01*
X204441428Y-131194285D01*
X204498571Y-131137142D01*
X204555714Y-131022857D01*
X204555714Y-130794285D01*
X204498571Y-130680000D01*
X204441428Y-130622857D01*
X204327142Y-130565714D01*
X205012857Y-101355428D02*
X204441428Y-101755428D01*
X205012857Y-102041142D02*
X203812857Y-102041142D01*
X203812857Y-101584000D01*
X203870000Y-101469714D01*
X203927142Y-101412571D01*
X204041428Y-101355428D01*
X204212857Y-101355428D01*
X204327142Y-101412571D01*
X204384285Y-101469714D01*
X204441428Y-101584000D01*
X204441428Y-102041142D01*
X203927142Y-100898285D02*
X203870000Y-100841142D01*
X203812857Y-100726857D01*
X203812857Y-100441142D01*
X203870000Y-100326857D01*
X203927142Y-100269714D01*
X204041428Y-100212571D01*
X204155714Y-100212571D01*
X204327142Y-100269714D01*
X205012857Y-100955428D01*
X205012857Y-100212571D01*
X205012857Y-99069714D02*
X205012857Y-99755428D01*
X205012857Y-99412571D02*
X203812857Y-99412571D01*
X203984285Y-99526857D01*
X204098571Y-99641142D01*
X204155714Y-99755428D01*
X205012857Y-82559428D02*
X204441428Y-82959428D01*
X205012857Y-83245142D02*
X203812857Y-83245142D01*
X203812857Y-82788000D01*
X203870000Y-82673714D01*
X203927142Y-82616571D01*
X204041428Y-82559428D01*
X204212857Y-82559428D01*
X204327142Y-82616571D01*
X204384285Y-82673714D01*
X204441428Y-82788000D01*
X204441428Y-83245142D01*
X203927142Y-82102285D02*
X203870000Y-82045142D01*
X203812857Y-81930857D01*
X203812857Y-81645142D01*
X203870000Y-81530857D01*
X203927142Y-81473714D01*
X204041428Y-81416571D01*
X204155714Y-81416571D01*
X204327142Y-81473714D01*
X205012857Y-82159428D01*
X205012857Y-81416571D01*
X203812857Y-81016571D02*
X203812857Y-80273714D01*
X204270000Y-80673714D01*
X204270000Y-80502285D01*
X204327142Y-80388000D01*
X204384285Y-80330857D01*
X204498571Y-80273714D01*
X204784285Y-80273714D01*
X204898571Y-80330857D01*
X204955714Y-80388000D01*
X205012857Y-80502285D01*
X205012857Y-80845142D01*
X204955714Y-80959428D01*
X204898571Y-81016571D01*
X253272857Y-144535428D02*
X252701428Y-144935428D01*
X253272857Y-145221142D02*
X252072857Y-145221142D01*
X252072857Y-144764000D01*
X252130000Y-144649714D01*
X252187142Y-144592571D01*
X252301428Y-144535428D01*
X252472857Y-144535428D01*
X252587142Y-144592571D01*
X252644285Y-144649714D01*
X252701428Y-144764000D01*
X252701428Y-145221142D01*
X252072857Y-144135428D02*
X252072857Y-143392571D01*
X252530000Y-143792571D01*
X252530000Y-143621142D01*
X252587142Y-143506857D01*
X252644285Y-143449714D01*
X252758571Y-143392571D01*
X253044285Y-143392571D01*
X253158571Y-143449714D01*
X253215714Y-143506857D01*
X253272857Y-143621142D01*
X253272857Y-143964000D01*
X253215714Y-144078285D01*
X253158571Y-144135428D01*
X252072857Y-142992571D02*
X252072857Y-142249714D01*
X252530000Y-142649714D01*
X252530000Y-142478285D01*
X252587142Y-142364000D01*
X252644285Y-142306857D01*
X252758571Y-142249714D01*
X253044285Y-142249714D01*
X253158571Y-142306857D01*
X253215714Y-142364000D01*
X253272857Y-142478285D01*
X253272857Y-142821142D01*
X253215714Y-142935428D01*
X253158571Y-142992571D01*
X246922857Y-144535428D02*
X246351428Y-144935428D01*
X246922857Y-145221142D02*
X245722857Y-145221142D01*
X245722857Y-144764000D01*
X245780000Y-144649714D01*
X245837142Y-144592571D01*
X245951428Y-144535428D01*
X246122857Y-144535428D01*
X246237142Y-144592571D01*
X246294285Y-144649714D01*
X246351428Y-144764000D01*
X246351428Y-145221142D01*
X245722857Y-144135428D02*
X245722857Y-143392571D01*
X246180000Y-143792571D01*
X246180000Y-143621142D01*
X246237142Y-143506857D01*
X246294285Y-143449714D01*
X246408571Y-143392571D01*
X246694285Y-143392571D01*
X246808571Y-143449714D01*
X246865714Y-143506857D01*
X246922857Y-143621142D01*
X246922857Y-143964000D01*
X246865714Y-144078285D01*
X246808571Y-144135428D01*
X246122857Y-142364000D02*
X246922857Y-142364000D01*
X245665714Y-142649714D02*
X246522857Y-142935428D01*
X246522857Y-142192571D01*
X233416571Y-137956857D02*
X233016571Y-137385428D01*
X232730857Y-137956857D02*
X232730857Y-136756857D01*
X233188000Y-136756857D01*
X233302285Y-136814000D01*
X233359428Y-136871142D01*
X233416571Y-136985428D01*
X233416571Y-137156857D01*
X233359428Y-137271142D01*
X233302285Y-137328285D01*
X233188000Y-137385428D01*
X232730857Y-137385428D01*
X233816571Y-136756857D02*
X234559428Y-136756857D01*
X234159428Y-137214000D01*
X234330857Y-137214000D01*
X234445142Y-137271142D01*
X234502285Y-137328285D01*
X234559428Y-137442571D01*
X234559428Y-137728285D01*
X234502285Y-137842571D01*
X234445142Y-137899714D01*
X234330857Y-137956857D01*
X233988000Y-137956857D01*
X233873714Y-137899714D01*
X233816571Y-137842571D01*
X235645142Y-136756857D02*
X235073714Y-136756857D01*
X235016571Y-137328285D01*
X235073714Y-137271142D01*
X235188000Y-137214000D01*
X235473714Y-137214000D01*
X235588000Y-137271142D01*
X235645142Y-137328285D01*
X235702285Y-137442571D01*
X235702285Y-137728285D01*
X235645142Y-137842571D01*
X235588000Y-137899714D01*
X235473714Y-137956857D01*
X235188000Y-137956857D01*
X235073714Y-137899714D01*
X235016571Y-137842571D01*
X249462857Y-113547428D02*
X248891428Y-113947428D01*
X249462857Y-114233142D02*
X248262857Y-114233142D01*
X248262857Y-113776000D01*
X248320000Y-113661714D01*
X248377142Y-113604571D01*
X248491428Y-113547428D01*
X248662857Y-113547428D01*
X248777142Y-113604571D01*
X248834285Y-113661714D01*
X248891428Y-113776000D01*
X248891428Y-114233142D01*
X248262857Y-113147428D02*
X248262857Y-112404571D01*
X248720000Y-112804571D01*
X248720000Y-112633142D01*
X248777142Y-112518857D01*
X248834285Y-112461714D01*
X248948571Y-112404571D01*
X249234285Y-112404571D01*
X249348571Y-112461714D01*
X249405714Y-112518857D01*
X249462857Y-112633142D01*
X249462857Y-112976000D01*
X249405714Y-113090285D01*
X249348571Y-113147428D01*
X248262857Y-111376000D02*
X248262857Y-111604571D01*
X248320000Y-111718857D01*
X248377142Y-111776000D01*
X248548571Y-111890285D01*
X248777142Y-111947428D01*
X249234285Y-111947428D01*
X249348571Y-111890285D01*
X249405714Y-111833142D01*
X249462857Y-111718857D01*
X249462857Y-111490285D01*
X249405714Y-111376000D01*
X249348571Y-111318857D01*
X249234285Y-111261714D01*
X248948571Y-111261714D01*
X248834285Y-111318857D01*
X248777142Y-111376000D01*
X248720000Y-111490285D01*
X248720000Y-111718857D01*
X248777142Y-111833142D01*
X248834285Y-111890285D01*
X248948571Y-111947428D01*
X211362857Y-124898928D02*
X210791428Y-125298928D01*
X211362857Y-125584642D02*
X210162857Y-125584642D01*
X210162857Y-125127500D01*
X210220000Y-125013214D01*
X210277142Y-124956071D01*
X210391428Y-124898928D01*
X210562857Y-124898928D01*
X210677142Y-124956071D01*
X210734285Y-125013214D01*
X210791428Y-125127500D01*
X210791428Y-125584642D01*
X210562857Y-123870357D02*
X211362857Y-123870357D01*
X210105714Y-124156071D02*
X210962857Y-124441785D01*
X210962857Y-123698928D01*
X210162857Y-123013214D02*
X210162857Y-122898928D01*
X210220000Y-122784642D01*
X210277142Y-122727500D01*
X210391428Y-122670357D01*
X210620000Y-122613214D01*
X210905714Y-122613214D01*
X211134285Y-122670357D01*
X211248571Y-122727500D01*
X211305714Y-122784642D01*
X211362857Y-122898928D01*
X211362857Y-123013214D01*
X211305714Y-123127500D01*
X211248571Y-123184642D01*
X211134285Y-123241785D01*
X210905714Y-123298928D01*
X210620000Y-123298928D01*
X210391428Y-123241785D01*
X210277142Y-123184642D01*
X210220000Y-123127500D01*
X210162857Y-123013214D01*
X211362857Y-113722928D02*
X210791428Y-114122928D01*
X211362857Y-114408642D02*
X210162857Y-114408642D01*
X210162857Y-113951500D01*
X210220000Y-113837214D01*
X210277142Y-113780071D01*
X210391428Y-113722928D01*
X210562857Y-113722928D01*
X210677142Y-113780071D01*
X210734285Y-113837214D01*
X210791428Y-113951500D01*
X210791428Y-114408642D01*
X210562857Y-112694357D02*
X211362857Y-112694357D01*
X210105714Y-112980071D02*
X210962857Y-113265785D01*
X210962857Y-112522928D01*
X211362857Y-111437214D02*
X211362857Y-112122928D01*
X211362857Y-111780071D02*
X210162857Y-111780071D01*
X210334285Y-111894357D01*
X210448571Y-112008642D01*
X210505714Y-112122928D01*
X211108857Y-119310928D02*
X210537428Y-119710928D01*
X211108857Y-119996642D02*
X209908857Y-119996642D01*
X209908857Y-119539500D01*
X209966000Y-119425214D01*
X210023142Y-119368071D01*
X210137428Y-119310928D01*
X210308857Y-119310928D01*
X210423142Y-119368071D01*
X210480285Y-119425214D01*
X210537428Y-119539500D01*
X210537428Y-119996642D01*
X210308857Y-118282357D02*
X211108857Y-118282357D01*
X209851714Y-118568071D02*
X210708857Y-118853785D01*
X210708857Y-118110928D01*
X210023142Y-117710928D02*
X209966000Y-117653785D01*
X209908857Y-117539500D01*
X209908857Y-117253785D01*
X209966000Y-117139500D01*
X210023142Y-117082357D01*
X210137428Y-117025214D01*
X210251714Y-117025214D01*
X210423142Y-117082357D01*
X211108857Y-117768071D01*
X211108857Y-117025214D01*
X211362857Y-108134928D02*
X210791428Y-108534928D01*
X211362857Y-108820642D02*
X210162857Y-108820642D01*
X210162857Y-108363500D01*
X210220000Y-108249214D01*
X210277142Y-108192071D01*
X210391428Y-108134928D01*
X210562857Y-108134928D01*
X210677142Y-108192071D01*
X210734285Y-108249214D01*
X210791428Y-108363500D01*
X210791428Y-108820642D01*
X210562857Y-107106357D02*
X211362857Y-107106357D01*
X210105714Y-107392071D02*
X210962857Y-107677785D01*
X210962857Y-106934928D01*
X210162857Y-106592071D02*
X210162857Y-105849214D01*
X210620000Y-106249214D01*
X210620000Y-106077785D01*
X210677142Y-105963500D01*
X210734285Y-105906357D01*
X210848571Y-105849214D01*
X211134285Y-105849214D01*
X211248571Y-105906357D01*
X211305714Y-105963500D01*
X211362857Y-106077785D01*
X211362857Y-106420642D01*
X211305714Y-106534928D01*
X211248571Y-106592071D01*
X245398857Y-109172285D02*
X244827428Y-109572285D01*
X245398857Y-109858000D02*
X244198857Y-109858000D01*
X244198857Y-109400857D01*
X244256000Y-109286571D01*
X244313142Y-109229428D01*
X244427428Y-109172285D01*
X244598857Y-109172285D01*
X244713142Y-109229428D01*
X244770285Y-109286571D01*
X244827428Y-109400857D01*
X244827428Y-109858000D01*
X244198857Y-108829428D02*
X245398857Y-108429428D01*
X244198857Y-108029428D01*
X244198857Y-107743714D02*
X244198857Y-107000857D01*
X244656000Y-107400857D01*
X244656000Y-107229428D01*
X244713142Y-107115142D01*
X244770285Y-107058000D01*
X244884571Y-107000857D01*
X245170285Y-107000857D01*
X245284571Y-107058000D01*
X245341714Y-107115142D01*
X245398857Y-107229428D01*
X245398857Y-107572285D01*
X245341714Y-107686571D01*
X245284571Y-107743714D01*
X248082000Y-124183714D02*
X248253428Y-124240857D01*
X248539142Y-124240857D01*
X248653428Y-124183714D01*
X248710571Y-124126571D01*
X248767714Y-124012285D01*
X248767714Y-123898000D01*
X248710571Y-123783714D01*
X248653428Y-123726571D01*
X248539142Y-123669428D01*
X248310571Y-123612285D01*
X248196285Y-123555142D01*
X248139142Y-123498000D01*
X248082000Y-123383714D01*
X248082000Y-123269428D01*
X248139142Y-123155142D01*
X248196285Y-123098000D01*
X248310571Y-123040857D01*
X248596285Y-123040857D01*
X248767714Y-123098000D01*
X249167714Y-123040857D02*
X249453428Y-124240857D01*
X249682000Y-123383714D01*
X249910571Y-124240857D01*
X250196285Y-123040857D01*
X251282000Y-124240857D02*
X250596285Y-124240857D01*
X250939142Y-124240857D02*
X250939142Y-123040857D01*
X250824857Y-123212285D01*
X250710571Y-123326571D01*
X250596285Y-123383714D01*
X239626857Y-70256285D02*
X240598285Y-70256285D01*
X240712571Y-70199142D01*
X240769714Y-70142000D01*
X240826857Y-70027714D01*
X240826857Y-69799142D01*
X240769714Y-69684857D01*
X240712571Y-69627714D01*
X240598285Y-69570571D01*
X239626857Y-69570571D01*
X240826857Y-68370571D02*
X240826857Y-69056285D01*
X240826857Y-68713428D02*
X239626857Y-68713428D01*
X239798285Y-68827714D01*
X239912571Y-68942000D01*
X239969714Y-69056285D01*
X216004857Y-121818285D02*
X216976285Y-121818285D01*
X217090571Y-121761142D01*
X217147714Y-121704000D01*
X217204857Y-121589714D01*
X217204857Y-121361142D01*
X217147714Y-121246857D01*
X217090571Y-121189714D01*
X216976285Y-121132571D01*
X216004857Y-121132571D01*
X216004857Y-120675428D02*
X216004857Y-119932571D01*
X216462000Y-120332571D01*
X216462000Y-120161142D01*
X216519142Y-120046857D01*
X216576285Y-119989714D01*
X216690571Y-119932571D01*
X216976285Y-119932571D01*
X217090571Y-119989714D01*
X217147714Y-120046857D01*
X217204857Y-120161142D01*
X217204857Y-120504000D01*
X217147714Y-120618285D01*
X217090571Y-120675428D01*
X216004857Y-161188285D02*
X216976285Y-161188285D01*
X217090571Y-161131142D01*
X217147714Y-161074000D01*
X217204857Y-160959714D01*
X217204857Y-160731142D01*
X217147714Y-160616857D01*
X217090571Y-160559714D01*
X216976285Y-160502571D01*
X216004857Y-160502571D01*
X216404857Y-159416857D02*
X217204857Y-159416857D01*
X215947714Y-159702571D02*
X216804857Y-159988285D01*
X216804857Y-159245428D01*
X248770857Y-137058285D02*
X249742285Y-137058285D01*
X249856571Y-137001142D01*
X249913714Y-136944000D01*
X249970857Y-136829714D01*
X249970857Y-136601142D01*
X249913714Y-136486857D01*
X249856571Y-136429714D01*
X249742285Y-136372571D01*
X248770857Y-136372571D01*
X249970857Y-135744000D02*
X249970857Y-135515428D01*
X249913714Y-135401142D01*
X249856571Y-135344000D01*
X249685142Y-135229714D01*
X249456571Y-135172571D01*
X248999428Y-135172571D01*
X248885142Y-135229714D01*
X248828000Y-135286857D01*
X248770857Y-135401142D01*
X248770857Y-135629714D01*
X248828000Y-135744000D01*
X248885142Y-135801142D01*
X248999428Y-135858285D01*
X249285142Y-135858285D01*
X249399428Y-135801142D01*
X249456571Y-135744000D01*
X249513714Y-135629714D01*
X249513714Y-135401142D01*
X249456571Y-135286857D01*
X249399428Y-135229714D01*
X249285142Y-135172571D01*
X242420857Y-137629714D02*
X243392285Y-137629714D01*
X243506571Y-137572571D01*
X243563714Y-137515428D01*
X243620857Y-137401142D01*
X243620857Y-137172571D01*
X243563714Y-137058285D01*
X243506571Y-137001142D01*
X243392285Y-136944000D01*
X242420857Y-136944000D01*
X243620857Y-135744000D02*
X243620857Y-136429714D01*
X243620857Y-136086857D02*
X242420857Y-136086857D01*
X242592285Y-136201142D01*
X242706571Y-136315428D01*
X242763714Y-136429714D01*
X242420857Y-135001142D02*
X242420857Y-134886857D01*
X242478000Y-134772571D01*
X242535142Y-134715428D01*
X242649428Y-134658285D01*
X242878000Y-134601142D01*
X243163714Y-134601142D01*
X243392285Y-134658285D01*
X243506571Y-134715428D01*
X243563714Y-134772571D01*
X243620857Y-134886857D01*
X243620857Y-135001142D01*
X243563714Y-135115428D01*
X243506571Y-135172571D01*
X243392285Y-135229714D01*
X243163714Y-135286857D01*
X242878000Y-135286857D01*
X242649428Y-135229714D01*
X242535142Y-135172571D01*
X242478000Y-135115428D01*
X242420857Y-135001142D01*
X226758571Y-120621428D02*
X226758571Y-121192857D01*
X226358571Y-119992857D02*
X226758571Y-120621428D01*
X227158571Y-119992857D01*
X228187142Y-121192857D02*
X227501428Y-121192857D01*
X227844285Y-121192857D02*
X227844285Y-119992857D01*
X227730000Y-120164285D01*
X227615714Y-120278571D01*
X227501428Y-120335714D01*
X192185857Y-103895428D02*
X191614428Y-104295428D01*
X192185857Y-104581142D02*
X190985857Y-104581142D01*
X190985857Y-104124000D01*
X191043000Y-104009714D01*
X191100142Y-103952571D01*
X191214428Y-103895428D01*
X191385857Y-103895428D01*
X191500142Y-103952571D01*
X191557285Y-104009714D01*
X191614428Y-104124000D01*
X191614428Y-104581142D01*
X190985857Y-103495428D02*
X190985857Y-102752571D01*
X191443000Y-103152571D01*
X191443000Y-102981142D01*
X191500142Y-102866857D01*
X191557285Y-102809714D01*
X191671571Y-102752571D01*
X191957285Y-102752571D01*
X192071571Y-102809714D01*
X192128714Y-102866857D01*
X192185857Y-102981142D01*
X192185857Y-103324000D01*
X192128714Y-103438285D01*
X192071571Y-103495428D01*
X192185857Y-101609714D02*
X192185857Y-102295428D01*
X192185857Y-101952571D02*
X190985857Y-101952571D01*
X191157285Y-102066857D01*
X191271571Y-102181142D01*
X191328714Y-102295428D01*
X192185857Y-78281428D02*
X191614428Y-78681428D01*
X192185857Y-78967142D02*
X190985857Y-78967142D01*
X190985857Y-78510000D01*
X191043000Y-78395714D01*
X191100142Y-78338571D01*
X191214428Y-78281428D01*
X191385857Y-78281428D01*
X191500142Y-78338571D01*
X191557285Y-78395714D01*
X191614428Y-78510000D01*
X191614428Y-78967142D01*
X190985857Y-77881428D02*
X190985857Y-77138571D01*
X191443000Y-77538571D01*
X191443000Y-77367142D01*
X191500142Y-77252857D01*
X191557285Y-77195714D01*
X191671571Y-77138571D01*
X191957285Y-77138571D01*
X192071571Y-77195714D01*
X192128714Y-77252857D01*
X192185857Y-77367142D01*
X192185857Y-77710000D01*
X192128714Y-77824285D01*
X192071571Y-77881428D01*
X191100142Y-76681428D02*
X191043000Y-76624285D01*
X190985857Y-76510000D01*
X190985857Y-76224285D01*
X191043000Y-76110000D01*
X191100142Y-76052857D01*
X191214428Y-75995714D01*
X191328714Y-75995714D01*
X191500142Y-76052857D01*
X192185857Y-76738571D01*
X192185857Y-75995714D01*
X207438571Y-132851428D02*
X207495714Y-132908571D01*
X207552857Y-133080000D01*
X207552857Y-133194285D01*
X207495714Y-133365714D01*
X207381428Y-133480000D01*
X207267142Y-133537142D01*
X207038571Y-133594285D01*
X206867142Y-133594285D01*
X206638571Y-133537142D01*
X206524285Y-133480000D01*
X206410000Y-133365714D01*
X206352857Y-133194285D01*
X206352857Y-133080000D01*
X206410000Y-132908571D01*
X206467142Y-132851428D01*
X206467142Y-132394285D02*
X206410000Y-132337142D01*
X206352857Y-132222857D01*
X206352857Y-131937142D01*
X206410000Y-131822857D01*
X206467142Y-131765714D01*
X206581428Y-131708571D01*
X206695714Y-131708571D01*
X206867142Y-131765714D01*
X207552857Y-132451428D01*
X207552857Y-131708571D01*
X207552857Y-130565714D02*
X207552857Y-131251428D01*
X207552857Y-130908571D02*
X206352857Y-130908571D01*
X206524285Y-131022857D01*
X206638571Y-131137142D01*
X206695714Y-131251428D01*
X207438571Y-101355428D02*
X207495714Y-101412571D01*
X207552857Y-101584000D01*
X207552857Y-101698285D01*
X207495714Y-101869714D01*
X207381428Y-101984000D01*
X207267142Y-102041142D01*
X207038571Y-102098285D01*
X206867142Y-102098285D01*
X206638571Y-102041142D01*
X206524285Y-101984000D01*
X206410000Y-101869714D01*
X206352857Y-101698285D01*
X206352857Y-101584000D01*
X206410000Y-101412571D01*
X206467142Y-101355428D01*
X206467142Y-100898285D02*
X206410000Y-100841142D01*
X206352857Y-100726857D01*
X206352857Y-100441142D01*
X206410000Y-100326857D01*
X206467142Y-100269714D01*
X206581428Y-100212571D01*
X206695714Y-100212571D01*
X206867142Y-100269714D01*
X207552857Y-100955428D01*
X207552857Y-100212571D01*
X206467142Y-99755428D02*
X206410000Y-99698285D01*
X206352857Y-99584000D01*
X206352857Y-99298285D01*
X206410000Y-99184000D01*
X206467142Y-99126857D01*
X206581428Y-99069714D01*
X206695714Y-99069714D01*
X206867142Y-99126857D01*
X207552857Y-99812571D01*
X207552857Y-99069714D01*
X207438571Y-82559428D02*
X207495714Y-82616571D01*
X207552857Y-82788000D01*
X207552857Y-82902285D01*
X207495714Y-83073714D01*
X207381428Y-83188000D01*
X207267142Y-83245142D01*
X207038571Y-83302285D01*
X206867142Y-83302285D01*
X206638571Y-83245142D01*
X206524285Y-83188000D01*
X206410000Y-83073714D01*
X206352857Y-82902285D01*
X206352857Y-82788000D01*
X206410000Y-82616571D01*
X206467142Y-82559428D01*
X206467142Y-82102285D02*
X206410000Y-82045142D01*
X206352857Y-81930857D01*
X206352857Y-81645142D01*
X206410000Y-81530857D01*
X206467142Y-81473714D01*
X206581428Y-81416571D01*
X206695714Y-81416571D01*
X206867142Y-81473714D01*
X207552857Y-82159428D01*
X207552857Y-81416571D01*
X206352857Y-81016571D02*
X206352857Y-80273714D01*
X206810000Y-80673714D01*
X206810000Y-80502285D01*
X206867142Y-80388000D01*
X206924285Y-80330857D01*
X207038571Y-80273714D01*
X207324285Y-80273714D01*
X207438571Y-80330857D01*
X207495714Y-80388000D01*
X207552857Y-80502285D01*
X207552857Y-80845142D01*
X207495714Y-80959428D01*
X207438571Y-81016571D01*
X185274000Y-173269285D02*
X184874000Y-173269285D01*
X184874000Y-173897857D02*
X184874000Y-172697857D01*
X185445428Y-172697857D01*
X186531142Y-173897857D02*
X185845428Y-173897857D01*
X186188285Y-173897857D02*
X186188285Y-172697857D01*
X186074000Y-172869285D01*
X185959714Y-172983571D01*
X185845428Y-173040714D01*
X215754000Y-171554857D02*
X215754000Y-172412000D01*
X215696857Y-172583428D01*
X215582571Y-172697714D01*
X215411142Y-172754857D01*
X215296857Y-172754857D01*
X216211142Y-171554857D02*
X217011142Y-171554857D01*
X216496857Y-172754857D01*
X255120857Y-149561428D02*
X255978000Y-149561428D01*
X256149428Y-149618571D01*
X256263714Y-149732857D01*
X256320857Y-149904285D01*
X256320857Y-150018571D01*
X256320857Y-148361428D02*
X256320857Y-149047142D01*
X256320857Y-148704285D02*
X255120857Y-148704285D01*
X255292285Y-148818571D01*
X255406571Y-148932857D01*
X255463714Y-149047142D01*
X255235142Y-147904285D02*
X255178000Y-147847142D01*
X255120857Y-147732857D01*
X255120857Y-147447142D01*
X255178000Y-147332857D01*
X255235142Y-147275714D01*
X255349428Y-147218571D01*
X255463714Y-147218571D01*
X255635142Y-147275714D01*
X256320857Y-147961428D01*
X256320857Y-147218571D01*
X255120857Y-136353428D02*
X255978000Y-136353428D01*
X256149428Y-136410571D01*
X256263714Y-136524857D01*
X256320857Y-136696285D01*
X256320857Y-136810571D01*
X256320857Y-135153428D02*
X256320857Y-135839142D01*
X256320857Y-135496285D02*
X255120857Y-135496285D01*
X255292285Y-135610571D01*
X255406571Y-135724857D01*
X255463714Y-135839142D01*
X255520857Y-134124857D02*
X256320857Y-134124857D01*
X255063714Y-134410571D02*
X255920857Y-134696285D01*
X255920857Y-133953428D01*
X255120857Y-122637428D02*
X255978000Y-122637428D01*
X256149428Y-122694571D01*
X256263714Y-122808857D01*
X256320857Y-122980285D01*
X256320857Y-123094571D01*
X256320857Y-121437428D02*
X256320857Y-122123142D01*
X256320857Y-121780285D02*
X255120857Y-121780285D01*
X255292285Y-121894571D01*
X255406571Y-122008857D01*
X255463714Y-122123142D01*
X255120857Y-120351714D02*
X255120857Y-120923142D01*
X255692285Y-120980285D01*
X255635142Y-120923142D01*
X255578000Y-120808857D01*
X255578000Y-120523142D01*
X255635142Y-120408857D01*
X255692285Y-120351714D01*
X255806571Y-120294571D01*
X256092285Y-120294571D01*
X256206571Y-120351714D01*
X256263714Y-120408857D01*
X256320857Y-120523142D01*
X256320857Y-120808857D01*
X256263714Y-120923142D01*
X256206571Y-120980285D01*
X255120857Y-163277428D02*
X255978000Y-163277428D01*
X256149428Y-163334571D01*
X256263714Y-163448857D01*
X256320857Y-163620285D01*
X256320857Y-163734571D01*
X256320857Y-162077428D02*
X256320857Y-162763142D01*
X256320857Y-162420285D02*
X255120857Y-162420285D01*
X255292285Y-162534571D01*
X255406571Y-162648857D01*
X255463714Y-162763142D01*
X255120857Y-161048857D02*
X255120857Y-161277428D01*
X255178000Y-161391714D01*
X255235142Y-161448857D01*
X255406571Y-161563142D01*
X255635142Y-161620285D01*
X256092285Y-161620285D01*
X256206571Y-161563142D01*
X256263714Y-161506000D01*
X256320857Y-161391714D01*
X256320857Y-161163142D01*
X256263714Y-161048857D01*
X256206571Y-160991714D01*
X256092285Y-160934571D01*
X255806571Y-160934571D01*
X255692285Y-160991714D01*
X255635142Y-161048857D01*
X255578000Y-161163142D01*
X255578000Y-161391714D01*
X255635142Y-161506000D01*
X255692285Y-161563142D01*
X255806571Y-161620285D01*
X199434571Y-68430857D02*
X199434571Y-69288000D01*
X199377428Y-69459428D01*
X199263142Y-69573714D01*
X199091714Y-69630857D01*
X198977428Y-69630857D01*
X200634571Y-69630857D02*
X199948857Y-69630857D01*
X200291714Y-69630857D02*
X200291714Y-68430857D01*
X200177428Y-68602285D01*
X200063142Y-68716571D01*
X199948857Y-68773714D01*
X201206000Y-69630857D02*
X201434571Y-69630857D01*
X201548857Y-69573714D01*
X201606000Y-69516571D01*
X201720285Y-69345142D01*
X201777428Y-69116571D01*
X201777428Y-68659428D01*
X201720285Y-68545142D01*
X201663142Y-68488000D01*
X201548857Y-68430857D01*
X201320285Y-68430857D01*
X201206000Y-68488000D01*
X201148857Y-68545142D01*
X201091714Y-68659428D01*
X201091714Y-68945142D01*
X201148857Y-69059428D01*
X201206000Y-69116571D01*
X201320285Y-69173714D01*
X201548857Y-69173714D01*
X201663142Y-69116571D01*
X201720285Y-69059428D01*
X201777428Y-68945142D01*
X223818571Y-171554857D02*
X223818571Y-172412000D01*
X223761428Y-172583428D01*
X223647142Y-172697714D01*
X223475714Y-172754857D01*
X223361428Y-172754857D01*
X224332857Y-171669142D02*
X224390000Y-171612000D01*
X224504285Y-171554857D01*
X224790000Y-171554857D01*
X224904285Y-171612000D01*
X224961428Y-171669142D01*
X225018571Y-171783428D01*
X225018571Y-171897714D01*
X224961428Y-172069142D01*
X224275714Y-172754857D01*
X225018571Y-172754857D01*
X225761428Y-171554857D02*
X225875714Y-171554857D01*
X225990000Y-171612000D01*
X226047142Y-171669142D01*
X226104285Y-171783428D01*
X226161428Y-172012000D01*
X226161428Y-172297714D01*
X226104285Y-172526285D01*
X226047142Y-172640571D01*
X225990000Y-172697714D01*
X225875714Y-172754857D01*
X225761428Y-172754857D01*
X225647142Y-172697714D01*
X225590000Y-172640571D01*
X225532857Y-172526285D01*
X225475714Y-172297714D01*
X225475714Y-172012000D01*
X225532857Y-171783428D01*
X225590000Y-171669142D01*
X225647142Y-171612000D01*
X225761428Y-171554857D01*
X234550000Y-171554857D02*
X234550000Y-172412000D01*
X234492857Y-172583428D01*
X234378571Y-172697714D01*
X234207142Y-172754857D01*
X234092857Y-172754857D01*
X235635714Y-171954857D02*
X235635714Y-172754857D01*
X235350000Y-171497714D02*
X235064285Y-172354857D01*
X235807142Y-172354857D01*
X244138571Y-171554857D02*
X244138571Y-172412000D01*
X244081428Y-172583428D01*
X243967142Y-172697714D01*
X243795714Y-172754857D01*
X243681428Y-172754857D01*
X244652857Y-171669142D02*
X244710000Y-171612000D01*
X244824285Y-171554857D01*
X245110000Y-171554857D01*
X245224285Y-171612000D01*
X245281428Y-171669142D01*
X245338571Y-171783428D01*
X245338571Y-171897714D01*
X245281428Y-172069142D01*
X244595714Y-172754857D01*
X245338571Y-172754857D01*
X245795714Y-171669142D02*
X245852857Y-171612000D01*
X245967142Y-171554857D01*
X246252857Y-171554857D01*
X246367142Y-171612000D01*
X246424285Y-171669142D01*
X246481428Y-171783428D01*
X246481428Y-171897714D01*
X246424285Y-172069142D01*
X245738571Y-172754857D01*
X246481428Y-172754857D01*
X198916857Y-151647428D02*
X198345428Y-152047428D01*
X198916857Y-152333142D02*
X197716857Y-152333142D01*
X197716857Y-151876000D01*
X197774000Y-151761714D01*
X197831142Y-151704571D01*
X197945428Y-151647428D01*
X198116857Y-151647428D01*
X198231142Y-151704571D01*
X198288285Y-151761714D01*
X198345428Y-151876000D01*
X198345428Y-152333142D01*
X197831142Y-151190285D02*
X197774000Y-151133142D01*
X197716857Y-151018857D01*
X197716857Y-150733142D01*
X197774000Y-150618857D01*
X197831142Y-150561714D01*
X197945428Y-150504571D01*
X198059714Y-150504571D01*
X198231142Y-150561714D01*
X198916857Y-151247428D01*
X198916857Y-150504571D01*
X197716857Y-149418857D02*
X197716857Y-149990285D01*
X198288285Y-150047428D01*
X198231142Y-149990285D01*
X198174000Y-149876000D01*
X198174000Y-149590285D01*
X198231142Y-149476000D01*
X198288285Y-149418857D01*
X198402571Y-149361714D01*
X198688285Y-149361714D01*
X198802571Y-149418857D01*
X198859714Y-149476000D01*
X198916857Y-149590285D01*
X198916857Y-149876000D01*
X198859714Y-149990285D01*
X198802571Y-150047428D01*
X198916857Y-132929928D02*
X198345428Y-133329928D01*
X198916857Y-133615642D02*
X197716857Y-133615642D01*
X197716857Y-133158500D01*
X197774000Y-133044214D01*
X197831142Y-132987071D01*
X197945428Y-132929928D01*
X198116857Y-132929928D01*
X198231142Y-132987071D01*
X198288285Y-133044214D01*
X198345428Y-133158500D01*
X198345428Y-133615642D01*
X197831142Y-132472785D02*
X197774000Y-132415642D01*
X197716857Y-132301357D01*
X197716857Y-132015642D01*
X197774000Y-131901357D01*
X197831142Y-131844214D01*
X197945428Y-131787071D01*
X198059714Y-131787071D01*
X198231142Y-131844214D01*
X198916857Y-132529928D01*
X198916857Y-131787071D01*
X197716857Y-130758500D02*
X197716857Y-130987071D01*
X197774000Y-131101357D01*
X197831142Y-131158500D01*
X198002571Y-131272785D01*
X198231142Y-131329928D01*
X198688285Y-131329928D01*
X198802571Y-131272785D01*
X198859714Y-131215642D01*
X198916857Y-131101357D01*
X198916857Y-130872785D01*
X198859714Y-130758500D01*
X198802571Y-130701357D01*
X198688285Y-130644214D01*
X198402571Y-130644214D01*
X198288285Y-130701357D01*
X198231142Y-130758500D01*
X198174000Y-130872785D01*
X198174000Y-131101357D01*
X198231142Y-131215642D01*
X198288285Y-131272785D01*
X198402571Y-131329928D01*
X198916857Y-101355428D02*
X198345428Y-101755428D01*
X198916857Y-102041142D02*
X197716857Y-102041142D01*
X197716857Y-101584000D01*
X197774000Y-101469714D01*
X197831142Y-101412571D01*
X197945428Y-101355428D01*
X198116857Y-101355428D01*
X198231142Y-101412571D01*
X198288285Y-101469714D01*
X198345428Y-101584000D01*
X198345428Y-102041142D01*
X197831142Y-100898285D02*
X197774000Y-100841142D01*
X197716857Y-100726857D01*
X197716857Y-100441142D01*
X197774000Y-100326857D01*
X197831142Y-100269714D01*
X197945428Y-100212571D01*
X198059714Y-100212571D01*
X198231142Y-100269714D01*
X198916857Y-100955428D01*
X198916857Y-100212571D01*
X197716857Y-99812571D02*
X197716857Y-99012571D01*
X198916857Y-99526857D01*
X198916857Y-82559428D02*
X198345428Y-82959428D01*
X198916857Y-83245142D02*
X197716857Y-83245142D01*
X197716857Y-82788000D01*
X197774000Y-82673714D01*
X197831142Y-82616571D01*
X197945428Y-82559428D01*
X198116857Y-82559428D01*
X198231142Y-82616571D01*
X198288285Y-82673714D01*
X198345428Y-82788000D01*
X198345428Y-83245142D01*
X197831142Y-82102285D02*
X197774000Y-82045142D01*
X197716857Y-81930857D01*
X197716857Y-81645142D01*
X197774000Y-81530857D01*
X197831142Y-81473714D01*
X197945428Y-81416571D01*
X198059714Y-81416571D01*
X198231142Y-81473714D01*
X198916857Y-82159428D01*
X198916857Y-81416571D01*
X198231142Y-80730857D02*
X198174000Y-80845142D01*
X198116857Y-80902285D01*
X198002571Y-80959428D01*
X197945428Y-80959428D01*
X197831142Y-80902285D01*
X197774000Y-80845142D01*
X197716857Y-80730857D01*
X197716857Y-80502285D01*
X197774000Y-80388000D01*
X197831142Y-80330857D01*
X197945428Y-80273714D01*
X198002571Y-80273714D01*
X198116857Y-80330857D01*
X198174000Y-80388000D01*
X198231142Y-80502285D01*
X198231142Y-80730857D01*
X198288285Y-80845142D01*
X198345428Y-80902285D01*
X198459714Y-80959428D01*
X198688285Y-80959428D01*
X198802571Y-80902285D01*
X198859714Y-80845142D01*
X198916857Y-80730857D01*
X198916857Y-80502285D01*
X198859714Y-80388000D01*
X198802571Y-80330857D01*
X198688285Y-80273714D01*
X198459714Y-80273714D01*
X198345428Y-80330857D01*
X198288285Y-80388000D01*
X198231142Y-80502285D01*
X240131714Y-125580857D02*
X240131714Y-126552285D01*
X240188857Y-126666571D01*
X240246000Y-126723714D01*
X240360285Y-126780857D01*
X240588857Y-126780857D01*
X240703142Y-126723714D01*
X240760285Y-126666571D01*
X240817428Y-126552285D01*
X240817428Y-125580857D01*
X241331714Y-125695142D02*
X241388857Y-125638000D01*
X241503142Y-125580857D01*
X241788857Y-125580857D01*
X241903142Y-125638000D01*
X241960285Y-125695142D01*
X242017428Y-125809428D01*
X242017428Y-125923714D01*
X241960285Y-126095142D01*
X241274571Y-126780857D01*
X242017428Y-126780857D01*
X220018000Y-70786571D02*
X219960857Y-70843714D01*
X219789428Y-70900857D01*
X219675142Y-70900857D01*
X219503714Y-70843714D01*
X219389428Y-70729428D01*
X219332285Y-70615142D01*
X219275142Y-70386571D01*
X219275142Y-70215142D01*
X219332285Y-69986571D01*
X219389428Y-69872285D01*
X219503714Y-69758000D01*
X219675142Y-69700857D01*
X219789428Y-69700857D01*
X219960857Y-69758000D01*
X220018000Y-69815142D01*
X221160857Y-70900857D02*
X220475142Y-70900857D01*
X220818000Y-70900857D02*
X220818000Y-69700857D01*
X220703714Y-69872285D01*
X220589428Y-69986571D01*
X220475142Y-70043714D01*
X233226000Y-88820571D02*
X233168857Y-88877714D01*
X232997428Y-88934857D01*
X232883142Y-88934857D01*
X232711714Y-88877714D01*
X232597428Y-88763428D01*
X232540285Y-88649142D01*
X232483142Y-88420571D01*
X232483142Y-88249142D01*
X232540285Y-88020571D01*
X232597428Y-87906285D01*
X232711714Y-87792000D01*
X232883142Y-87734857D01*
X232997428Y-87734857D01*
X233168857Y-87792000D01*
X233226000Y-87849142D01*
X233683142Y-87849142D02*
X233740285Y-87792000D01*
X233854571Y-87734857D01*
X234140285Y-87734857D01*
X234254571Y-87792000D01*
X234311714Y-87849142D01*
X234368857Y-87963428D01*
X234368857Y-88077714D01*
X234311714Y-88249142D01*
X233626000Y-88934857D01*
X234368857Y-88934857D01*
X239322000Y-88820571D02*
X239264857Y-88877714D01*
X239093428Y-88934857D01*
X238979142Y-88934857D01*
X238807714Y-88877714D01*
X238693428Y-88763428D01*
X238636285Y-88649142D01*
X238579142Y-88420571D01*
X238579142Y-88249142D01*
X238636285Y-88020571D01*
X238693428Y-87906285D01*
X238807714Y-87792000D01*
X238979142Y-87734857D01*
X239093428Y-87734857D01*
X239264857Y-87792000D01*
X239322000Y-87849142D01*
X239722000Y-87734857D02*
X240464857Y-87734857D01*
X240064857Y-88192000D01*
X240236285Y-88192000D01*
X240350571Y-88249142D01*
X240407714Y-88306285D01*
X240464857Y-88420571D01*
X240464857Y-88706285D01*
X240407714Y-88820571D01*
X240350571Y-88877714D01*
X240236285Y-88934857D01*
X239893428Y-88934857D01*
X239779142Y-88877714D01*
X239722000Y-88820571D01*
X245418000Y-88820571D02*
X245360857Y-88877714D01*
X245189428Y-88934857D01*
X245075142Y-88934857D01*
X244903714Y-88877714D01*
X244789428Y-88763428D01*
X244732285Y-88649142D01*
X244675142Y-88420571D01*
X244675142Y-88249142D01*
X244732285Y-88020571D01*
X244789428Y-87906285D01*
X244903714Y-87792000D01*
X245075142Y-87734857D01*
X245189428Y-87734857D01*
X245360857Y-87792000D01*
X245418000Y-87849142D01*
X246446571Y-88134857D02*
X246446571Y-88934857D01*
X246160857Y-87677714D02*
X245875142Y-88534857D01*
X246618000Y-88534857D01*
X223066000Y-88172857D02*
X222494571Y-88172857D01*
X222494571Y-86972857D01*
X224094571Y-88172857D02*
X223408857Y-88172857D01*
X223751714Y-88172857D02*
X223751714Y-86972857D01*
X223637428Y-87144285D01*
X223523142Y-87258571D01*
X223408857Y-87315714D01*
X147633428Y-159019857D02*
X147562000Y-159162714D01*
X147419142Y-159305571D01*
X147204857Y-159519857D01*
X147133428Y-159662714D01*
X147133428Y-159805571D01*
X147490571Y-159734142D02*
X147419142Y-159877000D01*
X147276285Y-160019857D01*
X146990571Y-160091285D01*
X146490571Y-160091285D01*
X146204857Y-160019857D01*
X146062000Y-159877000D01*
X145990571Y-159734142D01*
X145990571Y-159448428D01*
X146062000Y-159305571D01*
X146204857Y-159162714D01*
X146490571Y-159091285D01*
X146990571Y-159091285D01*
X147276285Y-159162714D01*
X147419142Y-159305571D01*
X147490571Y-159448428D01*
X147490571Y-159734142D01*
X146133428Y-158519857D02*
X146062000Y-158448428D01*
X145990571Y-158305571D01*
X145990571Y-157948428D01*
X146062000Y-157805571D01*
X146133428Y-157734142D01*
X146276285Y-157662714D01*
X146419142Y-157662714D01*
X146633428Y-157734142D01*
X147490571Y-158591285D01*
X147490571Y-157662714D01*
X147633428Y-133492857D02*
X147562000Y-133635714D01*
X147419142Y-133778571D01*
X147204857Y-133992857D01*
X147133428Y-134135714D01*
X147133428Y-134278571D01*
X147490571Y-134207142D02*
X147419142Y-134350000D01*
X147276285Y-134492857D01*
X146990571Y-134564285D01*
X146490571Y-134564285D01*
X146204857Y-134492857D01*
X146062000Y-134350000D01*
X145990571Y-134207142D01*
X145990571Y-133921428D01*
X146062000Y-133778571D01*
X146204857Y-133635714D01*
X146490571Y-133564285D01*
X146990571Y-133564285D01*
X147276285Y-133635714D01*
X147419142Y-133778571D01*
X147490571Y-133921428D01*
X147490571Y-134207142D01*
X146490571Y-132278571D02*
X147490571Y-132278571D01*
X145919142Y-132635714D02*
X146990571Y-132992857D01*
X146990571Y-132064285D01*
X147633428Y-108092857D02*
X147562000Y-108235714D01*
X147419142Y-108378571D01*
X147204857Y-108592857D01*
X147133428Y-108735714D01*
X147133428Y-108878571D01*
X147490571Y-108807142D02*
X147419142Y-108950000D01*
X147276285Y-109092857D01*
X146990571Y-109164285D01*
X146490571Y-109164285D01*
X146204857Y-109092857D01*
X146062000Y-108950000D01*
X145990571Y-108807142D01*
X145990571Y-108521428D01*
X146062000Y-108378571D01*
X146204857Y-108235714D01*
X146490571Y-108164285D01*
X146990571Y-108164285D01*
X147276285Y-108235714D01*
X147419142Y-108378571D01*
X147490571Y-108521428D01*
X147490571Y-108807142D01*
X145990571Y-106878571D02*
X145990571Y-107164285D01*
X146062000Y-107307142D01*
X146133428Y-107378571D01*
X146347714Y-107521428D01*
X146633428Y-107592857D01*
X147204857Y-107592857D01*
X147347714Y-107521428D01*
X147419142Y-107450000D01*
X147490571Y-107307142D01*
X147490571Y-107021428D01*
X147419142Y-106878571D01*
X147347714Y-106807142D01*
X147204857Y-106735714D01*
X146847714Y-106735714D01*
X146704857Y-106807142D01*
X146633428Y-106878571D01*
X146562000Y-107021428D01*
X146562000Y-107307142D01*
X146633428Y-107450000D01*
X146704857Y-107521428D01*
X146847714Y-107592857D01*
X147569928Y-82756357D02*
X147498500Y-82899214D01*
X147355642Y-83042071D01*
X147141357Y-83256357D01*
X147069928Y-83399214D01*
X147069928Y-83542071D01*
X147427071Y-83470642D02*
X147355642Y-83613500D01*
X147212785Y-83756357D01*
X146927071Y-83827785D01*
X146427071Y-83827785D01*
X146141357Y-83756357D01*
X145998500Y-83613500D01*
X145927071Y-83470642D01*
X145927071Y-83184928D01*
X145998500Y-83042071D01*
X146141357Y-82899214D01*
X146427071Y-82827785D01*
X146927071Y-82827785D01*
X147212785Y-82899214D01*
X147355642Y-83042071D01*
X147427071Y-83184928D01*
X147427071Y-83470642D01*
X146569928Y-81970642D02*
X146498500Y-82113500D01*
X146427071Y-82184928D01*
X146284214Y-82256357D01*
X146212785Y-82256357D01*
X146069928Y-82184928D01*
X145998500Y-82113500D01*
X145927071Y-81970642D01*
X145927071Y-81684928D01*
X145998500Y-81542071D01*
X146069928Y-81470642D01*
X146212785Y-81399214D01*
X146284214Y-81399214D01*
X146427071Y-81470642D01*
X146498500Y-81542071D01*
X146569928Y-81684928D01*
X146569928Y-81970642D01*
X146641357Y-82113500D01*
X146712785Y-82184928D01*
X146855642Y-82256357D01*
X147141357Y-82256357D01*
X147284214Y-82184928D01*
X147355642Y-82113500D01*
X147427071Y-81970642D01*
X147427071Y-81684928D01*
X147355642Y-81542071D01*
X147284214Y-81470642D01*
X147141357Y-81399214D01*
X146855642Y-81399214D01*
X146712785Y-81470642D01*
X146641357Y-81542071D01*
X146569928Y-81684928D01*
X203244571Y-120754857D02*
X203244571Y-121612000D01*
X203187428Y-121783428D01*
X203073142Y-121897714D01*
X202901714Y-121954857D01*
X202787428Y-121954857D01*
X203758857Y-120869142D02*
X203816000Y-120812000D01*
X203930285Y-120754857D01*
X204216000Y-120754857D01*
X204330285Y-120812000D01*
X204387428Y-120869142D01*
X204444571Y-120983428D01*
X204444571Y-121097714D01*
X204387428Y-121269142D01*
X203701714Y-121954857D01*
X204444571Y-121954857D01*
X205530285Y-120754857D02*
X204958857Y-120754857D01*
X204901714Y-121326285D01*
X204958857Y-121269142D01*
X205073142Y-121212000D01*
X205358857Y-121212000D01*
X205473142Y-121269142D01*
X205530285Y-121326285D01*
X205587428Y-121440571D01*
X205587428Y-121726285D01*
X205530285Y-121840571D01*
X205473142Y-121897714D01*
X205358857Y-121954857D01*
X205073142Y-121954857D01*
X204958857Y-121897714D01*
X204901714Y-121840571D01*
X203244571Y-109578857D02*
X203244571Y-110436000D01*
X203187428Y-110607428D01*
X203073142Y-110721714D01*
X202901714Y-110778857D01*
X202787428Y-110778857D01*
X203758857Y-109693142D02*
X203816000Y-109636000D01*
X203930285Y-109578857D01*
X204216000Y-109578857D01*
X204330285Y-109636000D01*
X204387428Y-109693142D01*
X204444571Y-109807428D01*
X204444571Y-109921714D01*
X204387428Y-110093142D01*
X203701714Y-110778857D01*
X204444571Y-110778857D01*
X205473142Y-109578857D02*
X205244571Y-109578857D01*
X205130285Y-109636000D01*
X205073142Y-109693142D01*
X204958857Y-109864571D01*
X204901714Y-110093142D01*
X204901714Y-110550285D01*
X204958857Y-110664571D01*
X205016000Y-110721714D01*
X205130285Y-110778857D01*
X205358857Y-110778857D01*
X205473142Y-110721714D01*
X205530285Y-110664571D01*
X205587428Y-110550285D01*
X205587428Y-110264571D01*
X205530285Y-110150285D01*
X205473142Y-110093142D01*
X205358857Y-110036000D01*
X205130285Y-110036000D01*
X205016000Y-110093142D01*
X204958857Y-110150285D01*
X204901714Y-110264571D01*
X203244571Y-115166857D02*
X203244571Y-116024000D01*
X203187428Y-116195428D01*
X203073142Y-116309714D01*
X202901714Y-116366857D01*
X202787428Y-116366857D01*
X203758857Y-115281142D02*
X203816000Y-115224000D01*
X203930285Y-115166857D01*
X204216000Y-115166857D01*
X204330285Y-115224000D01*
X204387428Y-115281142D01*
X204444571Y-115395428D01*
X204444571Y-115509714D01*
X204387428Y-115681142D01*
X203701714Y-116366857D01*
X204444571Y-116366857D01*
X205016000Y-116366857D02*
X205244571Y-116366857D01*
X205358857Y-116309714D01*
X205416000Y-116252571D01*
X205530285Y-116081142D01*
X205587428Y-115852571D01*
X205587428Y-115395428D01*
X205530285Y-115281142D01*
X205473142Y-115224000D01*
X205358857Y-115166857D01*
X205130285Y-115166857D01*
X205016000Y-115224000D01*
X204958857Y-115281142D01*
X204901714Y-115395428D01*
X204901714Y-115681142D01*
X204958857Y-115795428D01*
X205016000Y-115852571D01*
X205130285Y-115909714D01*
X205358857Y-115909714D01*
X205473142Y-115852571D01*
X205530285Y-115795428D01*
X205587428Y-115681142D01*
X203244571Y-103990857D02*
X203244571Y-104848000D01*
X203187428Y-105019428D01*
X203073142Y-105133714D01*
X202901714Y-105190857D01*
X202787428Y-105190857D01*
X203701714Y-103990857D02*
X204444571Y-103990857D01*
X204044571Y-104448000D01*
X204216000Y-104448000D01*
X204330285Y-104505142D01*
X204387428Y-104562285D01*
X204444571Y-104676571D01*
X204444571Y-104962285D01*
X204387428Y-105076571D01*
X204330285Y-105133714D01*
X204216000Y-105190857D01*
X203873142Y-105190857D01*
X203758857Y-105133714D01*
X203701714Y-105076571D01*
X205187428Y-103990857D02*
X205301714Y-103990857D01*
X205416000Y-104048000D01*
X205473142Y-104105142D01*
X205530285Y-104219428D01*
X205587428Y-104448000D01*
X205587428Y-104733714D01*
X205530285Y-104962285D01*
X205473142Y-105076571D01*
X205416000Y-105133714D01*
X205301714Y-105190857D01*
X205187428Y-105190857D01*
X205073142Y-105133714D01*
X205016000Y-105076571D01*
X204958857Y-104962285D01*
X204901714Y-104733714D01*
X204901714Y-104448000D01*
X204958857Y-104219428D01*
X205016000Y-104105142D01*
X205073142Y-104048000D01*
X205187428Y-103990857D01*
X206102000Y-172316857D02*
X206102000Y-173174000D01*
X206044857Y-173345428D01*
X205930571Y-173459714D01*
X205759142Y-173516857D01*
X205644857Y-173516857D01*
X206844857Y-172831142D02*
X206730571Y-172774000D01*
X206673428Y-172716857D01*
X206616285Y-172602571D01*
X206616285Y-172545428D01*
X206673428Y-172431142D01*
X206730571Y-172374000D01*
X206844857Y-172316857D01*
X207073428Y-172316857D01*
X207187714Y-172374000D01*
X207244857Y-172431142D01*
X207302000Y-172545428D01*
X207302000Y-172602571D01*
X207244857Y-172716857D01*
X207187714Y-172774000D01*
X207073428Y-172831142D01*
X206844857Y-172831142D01*
X206730571Y-172888285D01*
X206673428Y-172945428D01*
X206616285Y-173059714D01*
X206616285Y-173288285D01*
X206673428Y-173402571D01*
X206730571Y-173459714D01*
X206844857Y-173516857D01*
X207073428Y-173516857D01*
X207187714Y-173459714D01*
X207244857Y-173402571D01*
X207302000Y-173288285D01*
X207302000Y-173059714D01*
X207244857Y-172945428D01*
X207187714Y-172888285D01*
X207073428Y-172831142D01*
X213468000Y-62842857D02*
X213468000Y-63700000D01*
X213410857Y-63871428D01*
X213296571Y-63985714D01*
X213125142Y-64042857D01*
X213010857Y-64042857D01*
X214668000Y-64042857D02*
X213982285Y-64042857D01*
X214325142Y-64042857D02*
X214325142Y-62842857D01*
X214210857Y-63014285D01*
X214096571Y-63128571D01*
X213982285Y-63185714D01*
X231498857Y-146323000D02*
X232356000Y-146323000D01*
X232527428Y-146380142D01*
X232641714Y-146494428D01*
X232698857Y-146665857D01*
X232698857Y-146780142D01*
X231613142Y-145808714D02*
X231556000Y-145751571D01*
X231498857Y-145637285D01*
X231498857Y-145351571D01*
X231556000Y-145237285D01*
X231613142Y-145180142D01*
X231727428Y-145123000D01*
X231841714Y-145123000D01*
X232013142Y-145180142D01*
X232698857Y-145865857D01*
X232698857Y-145123000D01*
X263506000Y-90274857D02*
X263506000Y-91132000D01*
X263448857Y-91303428D01*
X263334571Y-91417714D01*
X263163142Y-91474857D01*
X263048857Y-91474857D01*
X263963142Y-90274857D02*
X264706000Y-90274857D01*
X264306000Y-90732000D01*
X264477428Y-90732000D01*
X264591714Y-90789142D01*
X264648857Y-90846285D01*
X264706000Y-90960571D01*
X264706000Y-91246285D01*
X264648857Y-91360571D01*
X264591714Y-91417714D01*
X264477428Y-91474857D01*
X264134571Y-91474857D01*
X264020285Y-91417714D01*
X263963142Y-91360571D01*
X208638857Y-142392285D02*
X209610285Y-142392285D01*
X209724571Y-142335142D01*
X209781714Y-142278000D01*
X209838857Y-142163714D01*
X209838857Y-141935142D01*
X209781714Y-141820857D01*
X209724571Y-141763714D01*
X209610285Y-141706571D01*
X208638857Y-141706571D01*
X208638857Y-141249428D02*
X208638857Y-140449428D01*
X209838857Y-140963714D01*
X208638857Y-92100285D02*
X209610285Y-92100285D01*
X209724571Y-92043142D01*
X209781714Y-91986000D01*
X209838857Y-91871714D01*
X209838857Y-91643142D01*
X209781714Y-91528857D01*
X209724571Y-91471714D01*
X209610285Y-91414571D01*
X208638857Y-91414571D01*
X209153142Y-90671714D02*
X209096000Y-90786000D01*
X209038857Y-90843142D01*
X208924571Y-90900285D01*
X208867428Y-90900285D01*
X208753142Y-90843142D01*
X208696000Y-90786000D01*
X208638857Y-90671714D01*
X208638857Y-90443142D01*
X208696000Y-90328857D01*
X208753142Y-90271714D01*
X208867428Y-90214571D01*
X208924571Y-90214571D01*
X209038857Y-90271714D01*
X209096000Y-90328857D01*
X209153142Y-90443142D01*
X209153142Y-90671714D01*
X209210285Y-90786000D01*
X209267428Y-90843142D01*
X209381714Y-90900285D01*
X209610285Y-90900285D01*
X209724571Y-90843142D01*
X209781714Y-90786000D01*
X209838857Y-90671714D01*
X209838857Y-90443142D01*
X209781714Y-90328857D01*
X209724571Y-90271714D01*
X209610285Y-90214571D01*
X209381714Y-90214571D01*
X209267428Y-90271714D01*
X209210285Y-90328857D01*
X209153142Y-90443142D01*
D16*
G36*
X262001000Y-101981000D02*
G01*
X258102452Y-101981000D01*
X257429000Y-101532032D01*
X257429000Y-100651968D01*
X258102452Y-100203000D01*
X262001000Y-100203000D01*
X262001000Y-101981000D01*
X262001000Y-101981000D01*
G37*
X262001000Y-101981000D02*
X258102452Y-101981000D01*
X257429000Y-101532032D01*
X257429000Y-100651968D01*
X258102452Y-100203000D01*
X262001000Y-100203000D01*
X262001000Y-101981000D01*
G36*
X262001000Y-99441000D02*
G01*
X258102452Y-99441000D01*
X257429000Y-98992032D01*
X257429000Y-98111968D01*
X258102452Y-97663000D01*
X262001000Y-97663000D01*
X262001000Y-99441000D01*
X262001000Y-99441000D01*
G37*
X262001000Y-99441000D02*
X258102452Y-99441000D01*
X257429000Y-98992032D01*
X257429000Y-98111968D01*
X258102452Y-97663000D01*
X262001000Y-97663000D01*
X262001000Y-99441000D01*
G36*
X262001000Y-94361000D02*
G01*
X258102452Y-94361000D01*
X257429000Y-93912032D01*
X257429000Y-93031968D01*
X258102452Y-92583000D01*
X262001000Y-92583000D01*
X262001000Y-94361000D01*
X262001000Y-94361000D01*
G37*
X262001000Y-94361000D02*
X258102452Y-94361000D01*
X257429000Y-93912032D01*
X257429000Y-93031968D01*
X258102452Y-92583000D01*
X262001000Y-92583000D01*
X262001000Y-94361000D01*
G36*
X262001000Y-96901000D02*
G01*
X258102452Y-96901000D01*
X257429000Y-96452032D01*
X257429000Y-95571968D01*
X258102452Y-95123000D01*
X262001000Y-95123000D01*
X262001000Y-96901000D01*
X262001000Y-96901000D01*
G37*
X262001000Y-96901000D02*
X258102452Y-96901000D01*
X257429000Y-96452032D01*
X257429000Y-95571968D01*
X258102452Y-95123000D01*
X262001000Y-95123000D01*
X262001000Y-96901000D01*
G36*
X240919000Y-159385000D02*
G01*
X233299000Y-159385000D01*
X233299000Y-149225000D01*
X240919000Y-149225000D01*
X240919000Y-159385000D01*
X240919000Y-159385000D01*
G37*
X240919000Y-159385000D02*
X233299000Y-159385000D01*
X233299000Y-149225000D01*
X240919000Y-149225000D01*
X240919000Y-159385000D01*
%LPC*%
D17*
X233172000Y-154432000D02*
X241046000Y-154432000D01*
X238506000Y-149098000D02*
X238506000Y-159512000D01*
X235966000Y-149098000D02*
X235966000Y-159512000D01*
X241046000Y-149098000D02*
X233172000Y-149098000D01*
X241046000Y-159512000D02*
X241046000Y-149098000D01*
X233172000Y-159512000D02*
X241046000Y-159512000D01*
X233172000Y-149098000D02*
X233172000Y-159512000D01*
D18*
X258496000Y-92814857D02*
X258896000Y-94014857D01*
X259296000Y-92814857D01*
X260381714Y-93900571D02*
X260324571Y-93957714D01*
X260153142Y-94014857D01*
X260038857Y-94014857D01*
X259867428Y-93957714D01*
X259753142Y-93843428D01*
X259696000Y-93729142D01*
X259638857Y-93500571D01*
X259638857Y-93329142D01*
X259696000Y-93100571D01*
X259753142Y-92986285D01*
X259867428Y-92872000D01*
X260038857Y-92814857D01*
X260153142Y-92814857D01*
X260324571Y-92872000D01*
X260381714Y-92929142D01*
X261581714Y-93900571D02*
X261524571Y-93957714D01*
X261353142Y-94014857D01*
X261238857Y-94014857D01*
X261067428Y-93957714D01*
X260953142Y-93843428D01*
X260896000Y-93729142D01*
X260838857Y-93500571D01*
X260838857Y-93329142D01*
X260896000Y-93100571D01*
X260953142Y-92986285D01*
X261067428Y-92872000D01*
X261238857Y-92814857D01*
X261353142Y-92814857D01*
X261524571Y-92872000D01*
X261581714Y-92929142D01*
X240318857Y-158156571D02*
X239747428Y-158556571D01*
X240318857Y-158842285D02*
X239118857Y-158842285D01*
X239118857Y-158385142D01*
X239176000Y-158270857D01*
X239233142Y-158213714D01*
X239347428Y-158156571D01*
X239518857Y-158156571D01*
X239633142Y-158213714D01*
X239690285Y-158270857D01*
X239747428Y-158385142D01*
X239747428Y-158842285D01*
X240261714Y-157699428D02*
X240318857Y-157528000D01*
X240318857Y-157242285D01*
X240261714Y-157128000D01*
X240204571Y-157070857D01*
X240090285Y-157013714D01*
X239976000Y-157013714D01*
X239861714Y-157070857D01*
X239804571Y-157128000D01*
X239747428Y-157242285D01*
X239690285Y-157470857D01*
X239633142Y-157585142D01*
X239576000Y-157642285D01*
X239461714Y-157699428D01*
X239347428Y-157699428D01*
X239233142Y-157642285D01*
X239176000Y-157585142D01*
X239118857Y-157470857D01*
X239118857Y-157185142D01*
X239176000Y-157013714D01*
X239118857Y-156670857D02*
X239118857Y-155985142D01*
X240318857Y-156328000D02*
X239118857Y-156328000D01*
X237721714Y-158899428D02*
X237778857Y-158728000D01*
X237778857Y-158442285D01*
X237721714Y-158328000D01*
X237664571Y-158270857D01*
X237550285Y-158213714D01*
X237436000Y-158213714D01*
X237321714Y-158270857D01*
X237264571Y-158328000D01*
X237207428Y-158442285D01*
X237150285Y-158670857D01*
X237093142Y-158785142D01*
X237036000Y-158842285D01*
X236921714Y-158899428D01*
X236807428Y-158899428D01*
X236693142Y-158842285D01*
X236636000Y-158785142D01*
X236578857Y-158670857D01*
X236578857Y-158385142D01*
X236636000Y-158213714D01*
X237664571Y-157013714D02*
X237721714Y-157070857D01*
X237778857Y-157242285D01*
X237778857Y-157356571D01*
X237721714Y-157528000D01*
X237607428Y-157642285D01*
X237493142Y-157699428D01*
X237264571Y-157756571D01*
X237093142Y-157756571D01*
X236864571Y-157699428D01*
X236750285Y-157642285D01*
X236636000Y-157528000D01*
X236578857Y-157356571D01*
X236578857Y-157242285D01*
X236636000Y-157070857D01*
X236693142Y-157013714D01*
X237778857Y-156499428D02*
X236578857Y-156499428D01*
X237778857Y-155813714D02*
X237093142Y-156328000D01*
X236578857Y-155813714D02*
X237264571Y-156499428D01*
X235238857Y-158842285D02*
X234038857Y-158842285D01*
X234896000Y-158442285D01*
X234038857Y-158042285D01*
X235238857Y-158042285D01*
X235238857Y-157470857D02*
X234038857Y-157470857D01*
X235181714Y-156956571D02*
X235238857Y-156785142D01*
X235238857Y-156499428D01*
X235181714Y-156385142D01*
X235124571Y-156328000D01*
X235010285Y-156270857D01*
X234896000Y-156270857D01*
X234781714Y-156328000D01*
X234724571Y-156385142D01*
X234667428Y-156499428D01*
X234610285Y-156728000D01*
X234553142Y-156842285D01*
X234496000Y-156899428D01*
X234381714Y-156956571D01*
X234267428Y-156956571D01*
X234153142Y-156899428D01*
X234096000Y-156842285D01*
X234038857Y-156728000D01*
X234038857Y-156442285D01*
X234096000Y-156270857D01*
X234038857Y-155528000D02*
X234038857Y-155299428D01*
X234096000Y-155185142D01*
X234210285Y-155070857D01*
X234438857Y-155013714D01*
X234838857Y-155013714D01*
X235067428Y-155070857D01*
X235181714Y-155185142D01*
X235238857Y-155299428D01*
X235238857Y-155528000D01*
X235181714Y-155642285D01*
X235067428Y-155756571D01*
X234838857Y-155813714D01*
X234438857Y-155813714D01*
X234210285Y-155756571D01*
X234096000Y-155642285D01*
X234038857Y-155528000D01*
X239176000Y-152879714D02*
X239118857Y-152994000D01*
X239118857Y-153165428D01*
X239176000Y-153336857D01*
X239290285Y-153451142D01*
X239404571Y-153508285D01*
X239633142Y-153565428D01*
X239804571Y-153565428D01*
X240033142Y-153508285D01*
X240147428Y-153451142D01*
X240261714Y-153336857D01*
X240318857Y-153165428D01*
X240318857Y-153051142D01*
X240261714Y-152879714D01*
X240204571Y-152822571D01*
X239804571Y-152822571D01*
X239804571Y-153051142D01*
X240318857Y-152308285D02*
X239118857Y-152308285D01*
X240318857Y-151622571D01*
X239118857Y-151622571D01*
X240318857Y-151051142D02*
X239118857Y-151051142D01*
X239118857Y-150765428D01*
X239176000Y-150594000D01*
X239290285Y-150479714D01*
X239404571Y-150422571D01*
X239633142Y-150365428D01*
X239804571Y-150365428D01*
X240033142Y-150422571D01*
X240147428Y-150479714D01*
X240261714Y-150594000D01*
X240318857Y-150765428D01*
X240318857Y-151051142D01*
X237778857Y-153508285D02*
X236578857Y-153508285D01*
X237436000Y-153108285D01*
X236578857Y-152708285D01*
X237778857Y-152708285D01*
X236578857Y-151908285D02*
X236578857Y-151679714D01*
X236636000Y-151565428D01*
X236750285Y-151451142D01*
X236978857Y-151394000D01*
X237378857Y-151394000D01*
X237607428Y-151451142D01*
X237721714Y-151565428D01*
X237778857Y-151679714D01*
X237778857Y-151908285D01*
X237721714Y-152022571D01*
X237607428Y-152136857D01*
X237378857Y-152194000D01*
X236978857Y-152194000D01*
X236750285Y-152136857D01*
X236636000Y-152022571D01*
X236578857Y-151908285D01*
X237721714Y-150936857D02*
X237778857Y-150765428D01*
X237778857Y-150479714D01*
X237721714Y-150365428D01*
X237664571Y-150308285D01*
X237550285Y-150251142D01*
X237436000Y-150251142D01*
X237321714Y-150308285D01*
X237264571Y-150365428D01*
X237207428Y-150479714D01*
X237150285Y-150708285D01*
X237093142Y-150822571D01*
X237036000Y-150879714D01*
X236921714Y-150936857D01*
X236807428Y-150936857D01*
X236693142Y-150879714D01*
X236636000Y-150822571D01*
X236578857Y-150708285D01*
X236578857Y-150422571D01*
X236636000Y-150251142D01*
X237778857Y-149736857D02*
X236578857Y-149736857D01*
X234038857Y-153679714D02*
X235238857Y-153279714D01*
X234038857Y-152879714D01*
X235124571Y-151794000D02*
X235181714Y-151851142D01*
X235238857Y-152022571D01*
X235238857Y-152136857D01*
X235181714Y-152308285D01*
X235067428Y-152422571D01*
X234953142Y-152479714D01*
X234724571Y-152536857D01*
X234553142Y-152536857D01*
X234324571Y-152479714D01*
X234210285Y-152422571D01*
X234096000Y-152308285D01*
X234038857Y-152136857D01*
X234038857Y-152022571D01*
X234096000Y-151851142D01*
X234153142Y-151794000D01*
X235124571Y-150594000D02*
X235181714Y-150651142D01*
X235238857Y-150822571D01*
X235238857Y-150936857D01*
X235181714Y-151108285D01*
X235067428Y-151222571D01*
X234953142Y-151279714D01*
X234724571Y-151336857D01*
X234553142Y-151336857D01*
X234324571Y-151279714D01*
X234210285Y-151222571D01*
X234096000Y-151108285D01*
X234038857Y-150936857D01*
X234038857Y-150822571D01*
X234096000Y-150651142D01*
X234153142Y-150594000D01*
X259181714Y-95412000D02*
X259067428Y-95354857D01*
X258896000Y-95354857D01*
X258724571Y-95412000D01*
X258610285Y-95526285D01*
X258553142Y-95640571D01*
X258496000Y-95869142D01*
X258496000Y-96040571D01*
X258553142Y-96269142D01*
X258610285Y-96383428D01*
X258724571Y-96497714D01*
X258896000Y-96554857D01*
X259010285Y-96554857D01*
X259181714Y-96497714D01*
X259238857Y-96440571D01*
X259238857Y-96040571D01*
X259010285Y-96040571D01*
X259753142Y-96554857D02*
X259753142Y-95354857D01*
X260438857Y-96554857D01*
X260438857Y-95354857D01*
X261010285Y-96554857D02*
X261010285Y-95354857D01*
X261296000Y-95354857D01*
X261467428Y-95412000D01*
X261581714Y-95526285D01*
X261638857Y-95640571D01*
X261696000Y-95869142D01*
X261696000Y-96040571D01*
X261638857Y-96269142D01*
X261581714Y-96383428D01*
X261467428Y-96497714D01*
X261296000Y-96554857D01*
X261010285Y-96554857D01*
X259388000Y-99094857D02*
X258988000Y-98523428D01*
X258702285Y-99094857D02*
X258702285Y-97894857D01*
X259159428Y-97894857D01*
X259273714Y-97952000D01*
X259330857Y-98009142D01*
X259388000Y-98123428D01*
X259388000Y-98294857D01*
X259330857Y-98409142D01*
X259273714Y-98466285D01*
X259159428Y-98523428D01*
X258702285Y-98523428D01*
X259788000Y-97894857D02*
X260588000Y-99094857D01*
X260588000Y-97894857D02*
X259788000Y-99094857D01*
X258673714Y-100434857D02*
X259359428Y-100434857D01*
X259016571Y-101634857D02*
X259016571Y-100434857D01*
X259645142Y-100434857D02*
X260445142Y-101634857D01*
X260445142Y-100434857D02*
X259645142Y-101634857D01*
M02*
