G04 #@! TF.GenerationSoftware,KiCad,Pcbnew,(5.1.4)-1*
G04 #@! TF.CreationDate,2020-09-06T16:49:47-04:00*
G04 #@! TF.ProjectId,DC_LOAD_V02,44435f4c-4f41-4445-9f56-30322e6b6963,rev?*
G04 #@! TF.SameCoordinates,Original*
G04 #@! TF.FileFunction,Legend,Bot*
G04 #@! TF.FilePolarity,Positive*
%FSLAX46Y46*%
G04 Gerber Fmt 4.6, Leading zero omitted, Abs format (unit mm)*
G04 Created by KiCad (PCBNEW (5.1.4)-1) date 2020-09-06 16:49:47*
%MOMM*%
%LPD*%
G04 APERTURE LIST*
%ADD10C,0.150000*%
%ADD11C,0.200000*%
G04 APERTURE END LIST*
D10*
X233299000Y-148209000D02*
X233299000Y-143891000D01*
X233934000Y-148717000D02*
X233299000Y-148209000D01*
X235458000Y-148717000D02*
X233934000Y-148717000D01*
X235966000Y-148336000D02*
X235458000Y-148717000D01*
X236474000Y-148717000D02*
X235966000Y-148336000D01*
X237998000Y-148717000D02*
X236474000Y-148717000D01*
X238506000Y-148336000D02*
X237998000Y-148717000D01*
X239014000Y-148717000D02*
X238506000Y-148336000D01*
X240538000Y-148717000D02*
X239014000Y-148717000D01*
X241173000Y-148209000D02*
X240538000Y-148717000D01*
X241173000Y-143891000D02*
X241173000Y-148209000D01*
X240538000Y-143383000D02*
X241173000Y-143891000D01*
X239014000Y-143383000D02*
X240538000Y-143383000D01*
X238506000Y-143764000D02*
X239014000Y-143383000D01*
X237998000Y-143383000D02*
X238506000Y-143764000D01*
X236474000Y-143383000D02*
X237998000Y-143383000D01*
X235966000Y-143764000D02*
X236474000Y-143383000D01*
X235458000Y-143383000D02*
X235966000Y-143764000D01*
X233934000Y-143383000D02*
X235458000Y-143383000D01*
X233299000Y-143891000D02*
X233934000Y-143383000D01*
X262509000Y-92710000D02*
X263017000Y-92075000D01*
X262509000Y-94234000D02*
X262509000Y-92710000D01*
X262890000Y-94742000D02*
X262509000Y-94234000D01*
X262509000Y-95250000D02*
X262890000Y-94742000D01*
X262509000Y-96774000D02*
X262509000Y-95250000D01*
X262890000Y-97282000D02*
X262509000Y-96774000D01*
X262509000Y-97790000D02*
X262890000Y-97282000D01*
X262509000Y-99314000D02*
X262509000Y-97790000D01*
X262890000Y-99822000D02*
X262509000Y-99314000D01*
X262509000Y-100330000D02*
X262890000Y-99822000D01*
X262509000Y-101854000D02*
X262509000Y-100330000D01*
X263017000Y-102489000D02*
X262509000Y-101854000D01*
X264795000Y-102489000D02*
X263017000Y-102489000D01*
X265303000Y-101854000D02*
X264795000Y-102489000D01*
X265303000Y-100330000D02*
X265303000Y-101854000D01*
X264922000Y-99822000D02*
X265303000Y-100330000D01*
X265303000Y-99314000D02*
X264922000Y-99822000D01*
X265303000Y-97790000D02*
X265303000Y-99314000D01*
X264922000Y-97282000D02*
X265303000Y-97790000D01*
X265303000Y-96774000D02*
X264922000Y-97282000D01*
X265303000Y-95250000D02*
X265303000Y-96774000D01*
X264922000Y-94742000D02*
X265303000Y-95250000D01*
X265303000Y-94234000D02*
X264922000Y-94742000D01*
X265303000Y-92710000D02*
X265303000Y-94234000D01*
X264795000Y-92075000D02*
X265303000Y-92710000D01*
X263017000Y-92075000D02*
X264795000Y-92075000D01*
D11*
X236836000Y-150263142D02*
X236836000Y-149406000D01*
X236778857Y-149234571D01*
X236664571Y-149120285D01*
X236493142Y-149063142D01*
X236378857Y-149063142D01*
X237350285Y-150148857D02*
X237407428Y-150206000D01*
X237521714Y-150263142D01*
X237807428Y-150263142D01*
X237921714Y-150206000D01*
X237978857Y-150148857D01*
X238036000Y-150034571D01*
X238036000Y-149920285D01*
X237978857Y-149748857D01*
X237293142Y-149063142D01*
X238036000Y-149063142D01*
X249729714Y-111217142D02*
X249329714Y-111788571D01*
X249044000Y-111217142D02*
X249044000Y-112417142D01*
X249501142Y-112417142D01*
X249615428Y-112360000D01*
X249672571Y-112302857D01*
X249729714Y-112188571D01*
X249729714Y-112017142D01*
X249672571Y-111902857D01*
X249615428Y-111845714D01*
X249501142Y-111788571D01*
X249044000Y-111788571D01*
X250072571Y-112417142D02*
X250472571Y-111217142D01*
X250872571Y-112417142D01*
X251158285Y-112417142D02*
X251901142Y-112417142D01*
X251501142Y-111960000D01*
X251672571Y-111960000D01*
X251786857Y-111902857D01*
X251844000Y-111845714D01*
X251901142Y-111731428D01*
X251901142Y-111445714D01*
X251844000Y-111331428D01*
X251786857Y-111274285D01*
X251672571Y-111217142D01*
X251329714Y-111217142D01*
X251215428Y-111274285D01*
X251158285Y-111331428D01*
X263506000Y-104162142D02*
X263506000Y-103305000D01*
X263448857Y-103133571D01*
X263334571Y-103019285D01*
X263163142Y-102962142D01*
X263048857Y-102962142D01*
X263963142Y-104162142D02*
X264706000Y-104162142D01*
X264306000Y-103705000D01*
X264477428Y-103705000D01*
X264591714Y-103647857D01*
X264648857Y-103590714D01*
X264706000Y-103476428D01*
X264706000Y-103190714D01*
X264648857Y-103076428D01*
X264591714Y-103019285D01*
X264477428Y-102962142D01*
X264134571Y-102962142D01*
X264020285Y-103019285D01*
X263963142Y-103076428D01*
X220072000Y-68983142D02*
X220072000Y-68126000D01*
X220014857Y-67954571D01*
X219900571Y-67840285D01*
X219729142Y-67783142D01*
X219614857Y-67783142D01*
X221272000Y-67783142D02*
X220586285Y-67783142D01*
X220929142Y-67783142D02*
X220929142Y-68983142D01*
X220814857Y-68811714D01*
X220700571Y-68697428D01*
X220586285Y-68640285D01*
X206102000Y-173631142D02*
X206102000Y-172774000D01*
X206044857Y-172602571D01*
X205930571Y-172488285D01*
X205759142Y-172431142D01*
X205644857Y-172431142D01*
X206844857Y-173116857D02*
X206730571Y-173174000D01*
X206673428Y-173231142D01*
X206616285Y-173345428D01*
X206616285Y-173402571D01*
X206673428Y-173516857D01*
X206730571Y-173574000D01*
X206844857Y-173631142D01*
X207073428Y-173631142D01*
X207187714Y-173574000D01*
X207244857Y-173516857D01*
X207302000Y-173402571D01*
X207302000Y-173345428D01*
X207244857Y-173231142D01*
X207187714Y-173174000D01*
X207073428Y-173116857D01*
X206844857Y-173116857D01*
X206730571Y-173059714D01*
X206673428Y-173002571D01*
X206616285Y-172888285D01*
X206616285Y-172659714D01*
X206673428Y-172545428D01*
X206730571Y-172488285D01*
X206844857Y-172431142D01*
X207073428Y-172431142D01*
X207187714Y-172488285D01*
X207244857Y-172545428D01*
X207302000Y-172659714D01*
X207302000Y-172888285D01*
X207244857Y-173002571D01*
X207187714Y-173059714D01*
X207073428Y-173116857D01*
X218693904Y-66182857D02*
X217170095Y-66182857D01*
X222250095Y-66182857D02*
X223773904Y-66182857D01*
X223012000Y-66944761D02*
X223012000Y-65420952D01*
D10*
X220522800Y-59766200D02*
X220522800Y-61391800D01*
X215519000Y-61468000D02*
X225475800Y-61468000D01*
X225501200Y-59766200D02*
X215519000Y-59766200D01*
X225501200Y-67233800D02*
X225501200Y-59766200D01*
X215519000Y-67233800D02*
X225501200Y-67233800D01*
X215519000Y-59766200D02*
X215519000Y-67233800D01*
X254355600Y-110261400D02*
X255168400Y-109448600D01*
X255408578Y-109850619D02*
G75*
G03X255408578Y-109850619I-646578J0D01*
G01*
X255651000Y-106222800D02*
X245745000Y-106222800D01*
X255651000Y-110693200D02*
X255651000Y-106222800D01*
X245745000Y-110693200D02*
X255651000Y-110693200D01*
X245745000Y-106222800D02*
X245745000Y-110693200D01*
X206451200Y-179882800D02*
X206451200Y-181533800D01*
X201498200Y-179832000D02*
X211480400Y-179832000D01*
D11*
X204723904Y-175148857D02*
X203200095Y-175148857D01*
X203962000Y-175910761D02*
X203962000Y-174386952D01*
X208280095Y-175148857D02*
X209803904Y-175148857D01*
D10*
X211480400Y-174040800D02*
X201447400Y-174040800D01*
X211480400Y-181559200D02*
X211480400Y-174040800D01*
X201447400Y-181559200D02*
X211480400Y-181559200D01*
X201447400Y-174040800D02*
X201447400Y-181559200D01*
D11*
X185274000Y-179028714D02*
X184874000Y-179028714D01*
X184874000Y-178400142D02*
X184874000Y-179600142D01*
X185445428Y-179600142D01*
X186531142Y-178400142D02*
X185845428Y-178400142D01*
X186188285Y-178400142D02*
X186188285Y-179600142D01*
X186074000Y-179428714D01*
X185959714Y-179314428D01*
X185845428Y-179257285D01*
D10*
X180467000Y-177800000D02*
X190881000Y-177800000D01*
X190881000Y-180213000D02*
X180467000Y-180213000D01*
X190881000Y-177800000D02*
X190881000Y-180213000D01*
X180467000Y-180213000D02*
X180467000Y-177800000D01*
X190881000Y-175387000D02*
X190881000Y-177800000D01*
X180467000Y-175387000D02*
X190881000Y-175387000D01*
X180467000Y-177800000D02*
X180467000Y-175387000D01*
X194691000Y-177800000D02*
X190881000Y-177800000D01*
X176657000Y-177800000D02*
X180467000Y-177800000D01*
D11*
X189010857Y-76825571D02*
X188439428Y-76425571D01*
X189010857Y-76139857D02*
X187810857Y-76139857D01*
X187810857Y-76597000D01*
X187868000Y-76711285D01*
X187925142Y-76768428D01*
X188039428Y-76825571D01*
X188210857Y-76825571D01*
X188325142Y-76768428D01*
X188382285Y-76711285D01*
X188439428Y-76597000D01*
X188439428Y-76139857D01*
X187810857Y-77225571D02*
X187810857Y-77968428D01*
X188268000Y-77568428D01*
X188268000Y-77739857D01*
X188325142Y-77854142D01*
X188382285Y-77911285D01*
X188496571Y-77968428D01*
X188782285Y-77968428D01*
X188896571Y-77911285D01*
X188953714Y-77854142D01*
X189010857Y-77739857D01*
X189010857Y-77397000D01*
X188953714Y-77282714D01*
X188896571Y-77225571D01*
X187925142Y-78425571D02*
X187868000Y-78482714D01*
X187810857Y-78597000D01*
X187810857Y-78882714D01*
X187868000Y-78997000D01*
X187925142Y-79054142D01*
X188039428Y-79111285D01*
X188153714Y-79111285D01*
X188325142Y-79054142D01*
X189010857Y-78368428D01*
X189010857Y-79111285D01*
D10*
X188468000Y-73533000D02*
X187198000Y-73533000D01*
X188468000Y-83439000D02*
X188468000Y-81407000D01*
X188468000Y-73533000D02*
X189738000Y-73533000D01*
X188468000Y-81407000D02*
X189738000Y-81407000D01*
X188468000Y-81407000D02*
X187198000Y-81407000D01*
X189738000Y-73533000D02*
X189738000Y-81407000D01*
X188468000Y-73533000D02*
X188468000Y-71501000D01*
X187198000Y-81407000D02*
X187198000Y-73533000D01*
D11*
X189010857Y-153025571D02*
X188439428Y-152625571D01*
X189010857Y-152339857D02*
X187810857Y-152339857D01*
X187810857Y-152797000D01*
X187868000Y-152911285D01*
X187925142Y-152968428D01*
X188039428Y-153025571D01*
X188210857Y-153025571D01*
X188325142Y-152968428D01*
X188382285Y-152911285D01*
X188439428Y-152797000D01*
X188439428Y-152339857D01*
X187925142Y-153482714D02*
X187868000Y-153539857D01*
X187810857Y-153654142D01*
X187810857Y-153939857D01*
X187868000Y-154054142D01*
X187925142Y-154111285D01*
X188039428Y-154168428D01*
X188153714Y-154168428D01*
X188325142Y-154111285D01*
X189010857Y-153425571D01*
X189010857Y-154168428D01*
X189010857Y-154739857D02*
X189010857Y-154968428D01*
X188953714Y-155082714D01*
X188896571Y-155139857D01*
X188725142Y-155254142D01*
X188496571Y-155311285D01*
X188039428Y-155311285D01*
X187925142Y-155254142D01*
X187868000Y-155197000D01*
X187810857Y-155082714D01*
X187810857Y-154854142D01*
X187868000Y-154739857D01*
X187925142Y-154682714D01*
X188039428Y-154625571D01*
X188325142Y-154625571D01*
X188439428Y-154682714D01*
X188496571Y-154739857D01*
X188553714Y-154854142D01*
X188553714Y-155082714D01*
X188496571Y-155197000D01*
X188439428Y-155254142D01*
X188325142Y-155311285D01*
D10*
X188468000Y-149733000D02*
X187198000Y-149733000D01*
X188468000Y-159639000D02*
X188468000Y-157607000D01*
X188468000Y-149733000D02*
X189738000Y-149733000D01*
X188468000Y-157607000D02*
X189738000Y-157607000D01*
X188468000Y-157607000D02*
X187198000Y-157607000D01*
X189738000Y-149733000D02*
X189738000Y-157607000D01*
X188468000Y-149733000D02*
X188468000Y-147701000D01*
X187198000Y-157607000D02*
X187198000Y-149733000D01*
D11*
X189010857Y-127625571D02*
X188439428Y-127225571D01*
X189010857Y-126939857D02*
X187810857Y-126939857D01*
X187810857Y-127397000D01*
X187868000Y-127511285D01*
X187925142Y-127568428D01*
X188039428Y-127625571D01*
X188210857Y-127625571D01*
X188325142Y-127568428D01*
X188382285Y-127511285D01*
X188439428Y-127397000D01*
X188439428Y-126939857D01*
X187810857Y-128025571D02*
X187810857Y-128768428D01*
X188268000Y-128368428D01*
X188268000Y-128539857D01*
X188325142Y-128654142D01*
X188382285Y-128711285D01*
X188496571Y-128768428D01*
X188782285Y-128768428D01*
X188896571Y-128711285D01*
X188953714Y-128654142D01*
X189010857Y-128539857D01*
X189010857Y-128197000D01*
X188953714Y-128082714D01*
X188896571Y-128025571D01*
X187810857Y-129511285D02*
X187810857Y-129625571D01*
X187868000Y-129739857D01*
X187925142Y-129797000D01*
X188039428Y-129854142D01*
X188268000Y-129911285D01*
X188553714Y-129911285D01*
X188782285Y-129854142D01*
X188896571Y-129797000D01*
X188953714Y-129739857D01*
X189010857Y-129625571D01*
X189010857Y-129511285D01*
X188953714Y-129397000D01*
X188896571Y-129339857D01*
X188782285Y-129282714D01*
X188553714Y-129225571D01*
X188268000Y-129225571D01*
X188039428Y-129282714D01*
X187925142Y-129339857D01*
X187868000Y-129397000D01*
X187810857Y-129511285D01*
D10*
X188468000Y-124333000D02*
X187198000Y-124333000D01*
X188468000Y-134239000D02*
X188468000Y-132207000D01*
X188468000Y-124333000D02*
X189738000Y-124333000D01*
X188468000Y-132207000D02*
X189738000Y-132207000D01*
X188468000Y-132207000D02*
X187198000Y-132207000D01*
X189738000Y-124333000D02*
X189738000Y-132207000D01*
X188468000Y-124333000D02*
X188468000Y-122301000D01*
X187198000Y-132207000D02*
X187198000Y-124333000D01*
D11*
X189010857Y-102225571D02*
X188439428Y-101825571D01*
X189010857Y-101539857D02*
X187810857Y-101539857D01*
X187810857Y-101997000D01*
X187868000Y-102111285D01*
X187925142Y-102168428D01*
X188039428Y-102225571D01*
X188210857Y-102225571D01*
X188325142Y-102168428D01*
X188382285Y-102111285D01*
X188439428Y-101997000D01*
X188439428Y-101539857D01*
X187810857Y-102625571D02*
X187810857Y-103368428D01*
X188268000Y-102968428D01*
X188268000Y-103139857D01*
X188325142Y-103254142D01*
X188382285Y-103311285D01*
X188496571Y-103368428D01*
X188782285Y-103368428D01*
X188896571Y-103311285D01*
X188953714Y-103254142D01*
X189010857Y-103139857D01*
X189010857Y-102797000D01*
X188953714Y-102682714D01*
X188896571Y-102625571D01*
X189010857Y-104511285D02*
X189010857Y-103825571D01*
X189010857Y-104168428D02*
X187810857Y-104168428D01*
X187982285Y-104054142D01*
X188096571Y-103939857D01*
X188153714Y-103825571D01*
D10*
X188468000Y-106807000D02*
X187198000Y-106807000D01*
X188468000Y-98933000D02*
X187198000Y-98933000D01*
X187198000Y-106807000D02*
X187198000Y-98933000D01*
X188468000Y-106807000D02*
X189738000Y-106807000D01*
X189738000Y-98933000D02*
X189738000Y-106807000D01*
X188468000Y-98933000D02*
X189738000Y-98933000D01*
X188468000Y-98933000D02*
X188468000Y-96901000D01*
X188468000Y-108839000D02*
X188468000Y-106807000D01*
X230142051Y-114076815D02*
X227807185Y-111741949D01*
X228884815Y-115334051D02*
X230142051Y-114076815D01*
X226549949Y-112999185D02*
X228884815Y-115334051D01*
X227807185Y-111741949D02*
X226549949Y-112999185D01*
X228327949Y-111221185D02*
X230662815Y-113556051D01*
X229585185Y-109963949D02*
X228327949Y-111221185D01*
X231920051Y-112298815D02*
X229585185Y-109963949D01*
X230662815Y-113556051D02*
X231920051Y-112298815D01*
X232440815Y-111778051D02*
X233698051Y-110520815D01*
X233698051Y-110520815D02*
X231363185Y-108185949D01*
X231363185Y-108185949D02*
X230105949Y-109443185D01*
X230105949Y-109443185D02*
X232440815Y-111778051D01*
X234218815Y-110000051D02*
X235476051Y-108742815D01*
X235476051Y-108742815D02*
X233141185Y-106407949D01*
X233141185Y-106407949D02*
X231883949Y-107665185D01*
X231883949Y-107665185D02*
X234218815Y-110000051D01*
D11*
X225644375Y-110068659D02*
X224957471Y-110189877D01*
X225159502Y-109583786D02*
X224310974Y-110432314D01*
X224634223Y-110755563D01*
X224755441Y-110795969D01*
X224836253Y-110795969D01*
X224957471Y-110755563D01*
X225078690Y-110634345D01*
X225119096Y-110513126D01*
X225119096Y-110432314D01*
X225078690Y-110311096D01*
X224755441Y-109987847D01*
X226452497Y-110876781D02*
X225967624Y-110391908D01*
X226210061Y-110634345D02*
X225361532Y-111482873D01*
X225401938Y-111280842D01*
X225401938Y-111119218D01*
X225361532Y-110997999D01*
X226452497Y-111846528D02*
X226331279Y-111806122D01*
X226250467Y-111806122D01*
X226129248Y-111846528D01*
X226088842Y-111886934D01*
X226048436Y-112008152D01*
X226048436Y-112088964D01*
X226088842Y-112210183D01*
X226250467Y-112371807D01*
X226371685Y-112412213D01*
X226452497Y-112412213D01*
X226573715Y-112371807D01*
X226614122Y-112331401D01*
X226654528Y-112210183D01*
X226654528Y-112129370D01*
X226614122Y-112008152D01*
X226452497Y-111846528D01*
X226412091Y-111725309D01*
X226412091Y-111644497D01*
X226452497Y-111523279D01*
X226614122Y-111361654D01*
X226735340Y-111321248D01*
X226816152Y-111321248D01*
X226937370Y-111361654D01*
X227098995Y-111523279D01*
X227139401Y-111644497D01*
X227139401Y-111725309D01*
X227098995Y-111846528D01*
X226937370Y-112008152D01*
X226816152Y-112048558D01*
X226735340Y-112048558D01*
X226614122Y-112008152D01*
X227422375Y-108290659D02*
X226735471Y-108411877D01*
X226937502Y-107805786D02*
X226088974Y-108654314D01*
X226412223Y-108977563D01*
X226533441Y-109017969D01*
X226614253Y-109017969D01*
X226735471Y-108977563D01*
X226856690Y-108856345D01*
X226897096Y-108735126D01*
X226897096Y-108654314D01*
X226856690Y-108533096D01*
X226533441Y-108209847D01*
X226977908Y-109381624D02*
X226977908Y-109462436D01*
X227018314Y-109583654D01*
X227220345Y-109785685D01*
X227341563Y-109826091D01*
X227422375Y-109826091D01*
X227543593Y-109785685D01*
X227624406Y-109704873D01*
X227705218Y-109543248D01*
X227705218Y-108573502D01*
X228230497Y-109098781D01*
X227907248Y-110472589D02*
X227988061Y-110553401D01*
X228109279Y-110593807D01*
X228190091Y-110593807D01*
X228311309Y-110553401D01*
X228513340Y-110432183D01*
X228715370Y-110230152D01*
X228836589Y-110028122D01*
X228876995Y-109906903D01*
X228876995Y-109826091D01*
X228836589Y-109704873D01*
X228755776Y-109624061D01*
X228634558Y-109583654D01*
X228553746Y-109583654D01*
X228432528Y-109624061D01*
X228230497Y-109745279D01*
X228028467Y-109947309D01*
X227907248Y-110149340D01*
X227866842Y-110270558D01*
X227866842Y-110351370D01*
X227907248Y-110472589D01*
X229073375Y-106512659D02*
X228386471Y-106633877D01*
X228588502Y-106027786D02*
X227739974Y-106876314D01*
X228063223Y-107199563D01*
X228184441Y-107239969D01*
X228265253Y-107239969D01*
X228386471Y-107199563D01*
X228507690Y-107078345D01*
X228548096Y-106957126D01*
X228548096Y-106876314D01*
X228507690Y-106755096D01*
X228184441Y-106431847D01*
X228628908Y-107603624D02*
X228628908Y-107684436D01*
X228669314Y-107805654D01*
X228871345Y-108007685D01*
X228992563Y-108048091D01*
X229073375Y-108048091D01*
X229194593Y-108007685D01*
X229275406Y-107926873D01*
X229356218Y-107765248D01*
X229356218Y-106795502D01*
X229881497Y-107320781D01*
X229437030Y-108411746D02*
X229437030Y-108492558D01*
X229477436Y-108613776D01*
X229679467Y-108815807D01*
X229800685Y-108856213D01*
X229881497Y-108856213D01*
X230002715Y-108815807D01*
X230083528Y-108734995D01*
X230164340Y-108573370D01*
X230164340Y-107603624D01*
X230689619Y-108128903D01*
X230724375Y-104734659D02*
X230037471Y-104855877D01*
X230239502Y-104249786D02*
X229390974Y-105098314D01*
X229714223Y-105421563D01*
X229835441Y-105461969D01*
X229916253Y-105461969D01*
X230037471Y-105421563D01*
X230158690Y-105300345D01*
X230199096Y-105179126D01*
X230199096Y-105098314D01*
X230158690Y-104977096D01*
X229835441Y-104653847D01*
X230279908Y-105825624D02*
X230279908Y-105906436D01*
X230320314Y-106027654D01*
X230522345Y-106229685D01*
X230643563Y-106270091D01*
X230724375Y-106270091D01*
X230845593Y-106229685D01*
X230926406Y-106148873D01*
X231007218Y-105987248D01*
X231007218Y-105017502D01*
X231532497Y-105542781D01*
X231694122Y-106835776D02*
X232259807Y-106270091D01*
X231168842Y-106956995D02*
X231572903Y-106148873D01*
X232098183Y-106674152D01*
M02*
