G04 #@! TF.GenerationSoftware,KiCad,Pcbnew,(5.1.4)-1*
G04 #@! TF.CreationDate,2020-09-06T16:49:47-04:00*
G04 #@! TF.ProjectId,DC_LOAD_V02,44435f4c-4f41-4445-9f56-30322e6b6963,rev?*
G04 #@! TF.SameCoordinates,Original*
G04 #@! TF.FileFunction,Paste,Bot*
G04 #@! TF.FilePolarity,Positive*
%FSLAX46Y46*%
G04 Gerber Fmt 4.6, Leading zero omitted, Abs format (unit mm)*
G04 Created by KiCad (PCBNEW (5.1.4)-1) date 2020-09-06 16:49:47*
%MOMM*%
%LPD*%
G04 APERTURE LIST*
%ADD10C,0.100000*%
%ADD11C,1.000000*%
G04 APERTURE END LIST*
D10*
G36*
X229174838Y-113457142D02*
G01*
X229199107Y-113460742D01*
X229222905Y-113466703D01*
X229246005Y-113474968D01*
X229268183Y-113485458D01*
X229289227Y-113498071D01*
X229308932Y-113512685D01*
X229327111Y-113529161D01*
X229680665Y-113882715D01*
X229697141Y-113900894D01*
X229711755Y-113920599D01*
X229724368Y-113941643D01*
X229734858Y-113963821D01*
X229743123Y-113986921D01*
X229749084Y-114010719D01*
X229752684Y-114034988D01*
X229753888Y-114059492D01*
X229752684Y-114083996D01*
X229749084Y-114108265D01*
X229743123Y-114132063D01*
X229734858Y-114155163D01*
X229724368Y-114177341D01*
X229711755Y-114198385D01*
X229697141Y-114218090D01*
X229680665Y-114236269D01*
X229044269Y-114872665D01*
X229026090Y-114889141D01*
X229006385Y-114903755D01*
X228985341Y-114916368D01*
X228963163Y-114926858D01*
X228940063Y-114935123D01*
X228916265Y-114941084D01*
X228891996Y-114944684D01*
X228867492Y-114945888D01*
X228842988Y-114944684D01*
X228818719Y-114941084D01*
X228794921Y-114935123D01*
X228771821Y-114926858D01*
X228749643Y-114916368D01*
X228728599Y-114903755D01*
X228708894Y-114889141D01*
X228690715Y-114872665D01*
X228337161Y-114519111D01*
X228320685Y-114500932D01*
X228306071Y-114481227D01*
X228293458Y-114460183D01*
X228282968Y-114438005D01*
X228274703Y-114414905D01*
X228268742Y-114391107D01*
X228265142Y-114366838D01*
X228263938Y-114342334D01*
X228265142Y-114317830D01*
X228268742Y-114293561D01*
X228274703Y-114269763D01*
X228282968Y-114246663D01*
X228293458Y-114224485D01*
X228306071Y-114203441D01*
X228320685Y-114183736D01*
X228337161Y-114165557D01*
X228973557Y-113529161D01*
X228991736Y-113512685D01*
X229011441Y-113498071D01*
X229032485Y-113485458D01*
X229054663Y-113474968D01*
X229077763Y-113466703D01*
X229101561Y-113460742D01*
X229125830Y-113457142D01*
X229150334Y-113455938D01*
X229174838Y-113457142D01*
X229174838Y-113457142D01*
G37*
D11*
X229008913Y-114200913D03*
D10*
G36*
X227849012Y-112131316D02*
G01*
X227873281Y-112134916D01*
X227897079Y-112140877D01*
X227920179Y-112149142D01*
X227942357Y-112159632D01*
X227963401Y-112172245D01*
X227983106Y-112186859D01*
X228001285Y-112203335D01*
X228354839Y-112556889D01*
X228371315Y-112575068D01*
X228385929Y-112594773D01*
X228398542Y-112615817D01*
X228409032Y-112637995D01*
X228417297Y-112661095D01*
X228423258Y-112684893D01*
X228426858Y-112709162D01*
X228428062Y-112733666D01*
X228426858Y-112758170D01*
X228423258Y-112782439D01*
X228417297Y-112806237D01*
X228409032Y-112829337D01*
X228398542Y-112851515D01*
X228385929Y-112872559D01*
X228371315Y-112892264D01*
X228354839Y-112910443D01*
X227718443Y-113546839D01*
X227700264Y-113563315D01*
X227680559Y-113577929D01*
X227659515Y-113590542D01*
X227637337Y-113601032D01*
X227614237Y-113609297D01*
X227590439Y-113615258D01*
X227566170Y-113618858D01*
X227541666Y-113620062D01*
X227517162Y-113618858D01*
X227492893Y-113615258D01*
X227469095Y-113609297D01*
X227445995Y-113601032D01*
X227423817Y-113590542D01*
X227402773Y-113577929D01*
X227383068Y-113563315D01*
X227364889Y-113546839D01*
X227011335Y-113193285D01*
X226994859Y-113175106D01*
X226980245Y-113155401D01*
X226967632Y-113134357D01*
X226957142Y-113112179D01*
X226948877Y-113089079D01*
X226942916Y-113065281D01*
X226939316Y-113041012D01*
X226938112Y-113016508D01*
X226939316Y-112992004D01*
X226942916Y-112967735D01*
X226948877Y-112943937D01*
X226957142Y-112920837D01*
X226967632Y-112898659D01*
X226980245Y-112877615D01*
X226994859Y-112857910D01*
X227011335Y-112839731D01*
X227647731Y-112203335D01*
X227665910Y-112186859D01*
X227685615Y-112172245D01*
X227706659Y-112159632D01*
X227728837Y-112149142D01*
X227751937Y-112140877D01*
X227775735Y-112134916D01*
X227800004Y-112131316D01*
X227824508Y-112130112D01*
X227849012Y-112131316D01*
X227849012Y-112131316D01*
G37*
D11*
X227683087Y-112875087D03*
D10*
G36*
X229627012Y-110353316D02*
G01*
X229651281Y-110356916D01*
X229675079Y-110362877D01*
X229698179Y-110371142D01*
X229720357Y-110381632D01*
X229741401Y-110394245D01*
X229761106Y-110408859D01*
X229779285Y-110425335D01*
X230132839Y-110778889D01*
X230149315Y-110797068D01*
X230163929Y-110816773D01*
X230176542Y-110837817D01*
X230187032Y-110859995D01*
X230195297Y-110883095D01*
X230201258Y-110906893D01*
X230204858Y-110931162D01*
X230206062Y-110955666D01*
X230204858Y-110980170D01*
X230201258Y-111004439D01*
X230195297Y-111028237D01*
X230187032Y-111051337D01*
X230176542Y-111073515D01*
X230163929Y-111094559D01*
X230149315Y-111114264D01*
X230132839Y-111132443D01*
X229496443Y-111768839D01*
X229478264Y-111785315D01*
X229458559Y-111799929D01*
X229437515Y-111812542D01*
X229415337Y-111823032D01*
X229392237Y-111831297D01*
X229368439Y-111837258D01*
X229344170Y-111840858D01*
X229319666Y-111842062D01*
X229295162Y-111840858D01*
X229270893Y-111837258D01*
X229247095Y-111831297D01*
X229223995Y-111823032D01*
X229201817Y-111812542D01*
X229180773Y-111799929D01*
X229161068Y-111785315D01*
X229142889Y-111768839D01*
X228789335Y-111415285D01*
X228772859Y-111397106D01*
X228758245Y-111377401D01*
X228745632Y-111356357D01*
X228735142Y-111334179D01*
X228726877Y-111311079D01*
X228720916Y-111287281D01*
X228717316Y-111263012D01*
X228716112Y-111238508D01*
X228717316Y-111214004D01*
X228720916Y-111189735D01*
X228726877Y-111165937D01*
X228735142Y-111142837D01*
X228745632Y-111120659D01*
X228758245Y-111099615D01*
X228772859Y-111079910D01*
X228789335Y-111061731D01*
X229425731Y-110425335D01*
X229443910Y-110408859D01*
X229463615Y-110394245D01*
X229484659Y-110381632D01*
X229506837Y-110371142D01*
X229529937Y-110362877D01*
X229553735Y-110356916D01*
X229578004Y-110353316D01*
X229602508Y-110352112D01*
X229627012Y-110353316D01*
X229627012Y-110353316D01*
G37*
D11*
X229461087Y-111097087D03*
D10*
G36*
X230952838Y-111679142D02*
G01*
X230977107Y-111682742D01*
X231000905Y-111688703D01*
X231024005Y-111696968D01*
X231046183Y-111707458D01*
X231067227Y-111720071D01*
X231086932Y-111734685D01*
X231105111Y-111751161D01*
X231458665Y-112104715D01*
X231475141Y-112122894D01*
X231489755Y-112142599D01*
X231502368Y-112163643D01*
X231512858Y-112185821D01*
X231521123Y-112208921D01*
X231527084Y-112232719D01*
X231530684Y-112256988D01*
X231531888Y-112281492D01*
X231530684Y-112305996D01*
X231527084Y-112330265D01*
X231521123Y-112354063D01*
X231512858Y-112377163D01*
X231502368Y-112399341D01*
X231489755Y-112420385D01*
X231475141Y-112440090D01*
X231458665Y-112458269D01*
X230822269Y-113094665D01*
X230804090Y-113111141D01*
X230784385Y-113125755D01*
X230763341Y-113138368D01*
X230741163Y-113148858D01*
X230718063Y-113157123D01*
X230694265Y-113163084D01*
X230669996Y-113166684D01*
X230645492Y-113167888D01*
X230620988Y-113166684D01*
X230596719Y-113163084D01*
X230572921Y-113157123D01*
X230549821Y-113148858D01*
X230527643Y-113138368D01*
X230506599Y-113125755D01*
X230486894Y-113111141D01*
X230468715Y-113094665D01*
X230115161Y-112741111D01*
X230098685Y-112722932D01*
X230084071Y-112703227D01*
X230071458Y-112682183D01*
X230060968Y-112660005D01*
X230052703Y-112636905D01*
X230046742Y-112613107D01*
X230043142Y-112588838D01*
X230041938Y-112564334D01*
X230043142Y-112539830D01*
X230046742Y-112515561D01*
X230052703Y-112491763D01*
X230060968Y-112468663D01*
X230071458Y-112446485D01*
X230084071Y-112425441D01*
X230098685Y-112405736D01*
X230115161Y-112387557D01*
X230751557Y-111751161D01*
X230769736Y-111734685D01*
X230789441Y-111720071D01*
X230810485Y-111707458D01*
X230832663Y-111696968D01*
X230855763Y-111688703D01*
X230879561Y-111682742D01*
X230903830Y-111679142D01*
X230928334Y-111677938D01*
X230952838Y-111679142D01*
X230952838Y-111679142D01*
G37*
D11*
X230786913Y-112422913D03*
D10*
G36*
X232730838Y-109901142D02*
G01*
X232755107Y-109904742D01*
X232778905Y-109910703D01*
X232802005Y-109918968D01*
X232824183Y-109929458D01*
X232845227Y-109942071D01*
X232864932Y-109956685D01*
X232883111Y-109973161D01*
X233236665Y-110326715D01*
X233253141Y-110344894D01*
X233267755Y-110364599D01*
X233280368Y-110385643D01*
X233290858Y-110407821D01*
X233299123Y-110430921D01*
X233305084Y-110454719D01*
X233308684Y-110478988D01*
X233309888Y-110503492D01*
X233308684Y-110527996D01*
X233305084Y-110552265D01*
X233299123Y-110576063D01*
X233290858Y-110599163D01*
X233280368Y-110621341D01*
X233267755Y-110642385D01*
X233253141Y-110662090D01*
X233236665Y-110680269D01*
X232600269Y-111316665D01*
X232582090Y-111333141D01*
X232562385Y-111347755D01*
X232541341Y-111360368D01*
X232519163Y-111370858D01*
X232496063Y-111379123D01*
X232472265Y-111385084D01*
X232447996Y-111388684D01*
X232423492Y-111389888D01*
X232398988Y-111388684D01*
X232374719Y-111385084D01*
X232350921Y-111379123D01*
X232327821Y-111370858D01*
X232305643Y-111360368D01*
X232284599Y-111347755D01*
X232264894Y-111333141D01*
X232246715Y-111316665D01*
X231893161Y-110963111D01*
X231876685Y-110944932D01*
X231862071Y-110925227D01*
X231849458Y-110904183D01*
X231838968Y-110882005D01*
X231830703Y-110858905D01*
X231824742Y-110835107D01*
X231821142Y-110810838D01*
X231819938Y-110786334D01*
X231821142Y-110761830D01*
X231824742Y-110737561D01*
X231830703Y-110713763D01*
X231838968Y-110690663D01*
X231849458Y-110668485D01*
X231862071Y-110647441D01*
X231876685Y-110627736D01*
X231893161Y-110609557D01*
X232529557Y-109973161D01*
X232547736Y-109956685D01*
X232567441Y-109942071D01*
X232588485Y-109929458D01*
X232610663Y-109918968D01*
X232633763Y-109910703D01*
X232657561Y-109904742D01*
X232681830Y-109901142D01*
X232706334Y-109899938D01*
X232730838Y-109901142D01*
X232730838Y-109901142D01*
G37*
D11*
X232564913Y-110644913D03*
D10*
G36*
X231405012Y-108575316D02*
G01*
X231429281Y-108578916D01*
X231453079Y-108584877D01*
X231476179Y-108593142D01*
X231498357Y-108603632D01*
X231519401Y-108616245D01*
X231539106Y-108630859D01*
X231557285Y-108647335D01*
X231910839Y-109000889D01*
X231927315Y-109019068D01*
X231941929Y-109038773D01*
X231954542Y-109059817D01*
X231965032Y-109081995D01*
X231973297Y-109105095D01*
X231979258Y-109128893D01*
X231982858Y-109153162D01*
X231984062Y-109177666D01*
X231982858Y-109202170D01*
X231979258Y-109226439D01*
X231973297Y-109250237D01*
X231965032Y-109273337D01*
X231954542Y-109295515D01*
X231941929Y-109316559D01*
X231927315Y-109336264D01*
X231910839Y-109354443D01*
X231274443Y-109990839D01*
X231256264Y-110007315D01*
X231236559Y-110021929D01*
X231215515Y-110034542D01*
X231193337Y-110045032D01*
X231170237Y-110053297D01*
X231146439Y-110059258D01*
X231122170Y-110062858D01*
X231097666Y-110064062D01*
X231073162Y-110062858D01*
X231048893Y-110059258D01*
X231025095Y-110053297D01*
X231001995Y-110045032D01*
X230979817Y-110034542D01*
X230958773Y-110021929D01*
X230939068Y-110007315D01*
X230920889Y-109990839D01*
X230567335Y-109637285D01*
X230550859Y-109619106D01*
X230536245Y-109599401D01*
X230523632Y-109578357D01*
X230513142Y-109556179D01*
X230504877Y-109533079D01*
X230498916Y-109509281D01*
X230495316Y-109485012D01*
X230494112Y-109460508D01*
X230495316Y-109436004D01*
X230498916Y-109411735D01*
X230504877Y-109387937D01*
X230513142Y-109364837D01*
X230523632Y-109342659D01*
X230536245Y-109321615D01*
X230550859Y-109301910D01*
X230567335Y-109283731D01*
X231203731Y-108647335D01*
X231221910Y-108630859D01*
X231241615Y-108616245D01*
X231262659Y-108603632D01*
X231284837Y-108593142D01*
X231307937Y-108584877D01*
X231331735Y-108578916D01*
X231356004Y-108575316D01*
X231380508Y-108574112D01*
X231405012Y-108575316D01*
X231405012Y-108575316D01*
G37*
D11*
X231239087Y-109319087D03*
D10*
G36*
X234508838Y-108123142D02*
G01*
X234533107Y-108126742D01*
X234556905Y-108132703D01*
X234580005Y-108140968D01*
X234602183Y-108151458D01*
X234623227Y-108164071D01*
X234642932Y-108178685D01*
X234661111Y-108195161D01*
X235014665Y-108548715D01*
X235031141Y-108566894D01*
X235045755Y-108586599D01*
X235058368Y-108607643D01*
X235068858Y-108629821D01*
X235077123Y-108652921D01*
X235083084Y-108676719D01*
X235086684Y-108700988D01*
X235087888Y-108725492D01*
X235086684Y-108749996D01*
X235083084Y-108774265D01*
X235077123Y-108798063D01*
X235068858Y-108821163D01*
X235058368Y-108843341D01*
X235045755Y-108864385D01*
X235031141Y-108884090D01*
X235014665Y-108902269D01*
X234378269Y-109538665D01*
X234360090Y-109555141D01*
X234340385Y-109569755D01*
X234319341Y-109582368D01*
X234297163Y-109592858D01*
X234274063Y-109601123D01*
X234250265Y-109607084D01*
X234225996Y-109610684D01*
X234201492Y-109611888D01*
X234176988Y-109610684D01*
X234152719Y-109607084D01*
X234128921Y-109601123D01*
X234105821Y-109592858D01*
X234083643Y-109582368D01*
X234062599Y-109569755D01*
X234042894Y-109555141D01*
X234024715Y-109538665D01*
X233671161Y-109185111D01*
X233654685Y-109166932D01*
X233640071Y-109147227D01*
X233627458Y-109126183D01*
X233616968Y-109104005D01*
X233608703Y-109080905D01*
X233602742Y-109057107D01*
X233599142Y-109032838D01*
X233597938Y-109008334D01*
X233599142Y-108983830D01*
X233602742Y-108959561D01*
X233608703Y-108935763D01*
X233616968Y-108912663D01*
X233627458Y-108890485D01*
X233640071Y-108869441D01*
X233654685Y-108849736D01*
X233671161Y-108831557D01*
X234307557Y-108195161D01*
X234325736Y-108178685D01*
X234345441Y-108164071D01*
X234366485Y-108151458D01*
X234388663Y-108140968D01*
X234411763Y-108132703D01*
X234435561Y-108126742D01*
X234459830Y-108123142D01*
X234484334Y-108121938D01*
X234508838Y-108123142D01*
X234508838Y-108123142D01*
G37*
D11*
X234342913Y-108866913D03*
D10*
G36*
X233183012Y-106797316D02*
G01*
X233207281Y-106800916D01*
X233231079Y-106806877D01*
X233254179Y-106815142D01*
X233276357Y-106825632D01*
X233297401Y-106838245D01*
X233317106Y-106852859D01*
X233335285Y-106869335D01*
X233688839Y-107222889D01*
X233705315Y-107241068D01*
X233719929Y-107260773D01*
X233732542Y-107281817D01*
X233743032Y-107303995D01*
X233751297Y-107327095D01*
X233757258Y-107350893D01*
X233760858Y-107375162D01*
X233762062Y-107399666D01*
X233760858Y-107424170D01*
X233757258Y-107448439D01*
X233751297Y-107472237D01*
X233743032Y-107495337D01*
X233732542Y-107517515D01*
X233719929Y-107538559D01*
X233705315Y-107558264D01*
X233688839Y-107576443D01*
X233052443Y-108212839D01*
X233034264Y-108229315D01*
X233014559Y-108243929D01*
X232993515Y-108256542D01*
X232971337Y-108267032D01*
X232948237Y-108275297D01*
X232924439Y-108281258D01*
X232900170Y-108284858D01*
X232875666Y-108286062D01*
X232851162Y-108284858D01*
X232826893Y-108281258D01*
X232803095Y-108275297D01*
X232779995Y-108267032D01*
X232757817Y-108256542D01*
X232736773Y-108243929D01*
X232717068Y-108229315D01*
X232698889Y-108212839D01*
X232345335Y-107859285D01*
X232328859Y-107841106D01*
X232314245Y-107821401D01*
X232301632Y-107800357D01*
X232291142Y-107778179D01*
X232282877Y-107755079D01*
X232276916Y-107731281D01*
X232273316Y-107707012D01*
X232272112Y-107682508D01*
X232273316Y-107658004D01*
X232276916Y-107633735D01*
X232282877Y-107609937D01*
X232291142Y-107586837D01*
X232301632Y-107564659D01*
X232314245Y-107543615D01*
X232328859Y-107523910D01*
X232345335Y-107505731D01*
X232981731Y-106869335D01*
X232999910Y-106852859D01*
X233019615Y-106838245D01*
X233040659Y-106825632D01*
X233062837Y-106815142D01*
X233085937Y-106806877D01*
X233109735Y-106800916D01*
X233134004Y-106797316D01*
X233158508Y-106796112D01*
X233183012Y-106797316D01*
X233183012Y-106797316D01*
G37*
D11*
X233017087Y-107541087D03*
M02*
