M48
; DRILL file {KiCad (5.1.4)-1} date 9/6/2020 4:49:50 PM
; FORMAT={-:-/ absolute / metric / decimal}
; #@! TF.CreationDate,2020-09-06T16:49:50-04:00
; #@! TF.GenerationSoftware,Kicad,Pcbnew,(5.1.4)-1
FMAT,2
METRIC
T1C0.300
T2C0.400
T3C0.600
T4C0.850
T5C1.000
T6C1.250
T7C2.000
T8C3.200
%
G90
G05
T1
X180.594Y-77.47
X180.594Y-81.28
X180.594Y-85.09
X180.594Y-88.9
X180.594Y-102.87
X180.594Y-106.68
X180.594Y-110.49
X180.594Y-114.3
X180.594Y-128.27
X180.594Y-132.08
X180.594Y-135.89
X180.594Y-139.7
X180.594Y-153.924
X180.594Y-157.734
X180.594Y-161.544
X180.594Y-165.354
X182.626Y-79.248
X182.626Y-83.058
X182.626Y-86.868
X182.626Y-104.648
X182.626Y-108.458
X182.626Y-112.268
X182.626Y-130.048
X182.626Y-133.858
X182.626Y-137.668
X182.626Y-155.702
X182.626Y-159.512
X182.626Y-163.322
X198.374Y-87.376
X198.374Y-91.948
X198.374Y-94.996
X198.374Y-137.668
X198.374Y-145.288
X198.387Y-142.126
X200.406Y-87.249
X200.406Y-98.933
X200.419Y-133.769
X200.421Y-137.683
X200.421Y-149.202
X200.914Y-91.951
X200.914Y-142.113
X201.676Y-84.328
X201.676Y-96.012
X201.676Y-146.304
X202.692Y-68.072
X203.713Y-152.408
X204.511Y-91.338
X205.643Y-91.161
X205.994Y-107.569
X205.994Y-118.745
X205.994Y-124.333
X206.045Y-113.157
X206.235Y-152.387
X206.629Y-142.367
X206.629Y-140.424
X207.01Y-83.312
X207.01Y-99.06
X207.01Y-133.604
X207.01Y-149.352
X207.391Y-141.981
X207.391Y-161.163
X208.295Y-87.198
X208.534Y-116.459
X208.788Y-110.719
X208.788Y-105.156
X208.813Y-121.945
X209.299Y-168.148
X210.2Y-119.477
X210.205Y-113.894
X210.21Y-108.301
X210.21Y-125.065
X212.573Y-119.304
X216.205Y-119.913
X216.362Y-159.386
X216.916Y-151.892
X218.694Y-110.744
X219.583Y-111.633
X219.705Y-157.724
X220.98Y-116.038
X221.234Y-70.358
X221.996Y-111.633
X222.28Y-157.731
X222.528Y-173.331
X223.774Y-145.288
X224.028Y-173.355
X224.464Y-117.53
X226.568Y-151.13
X227.076Y-134.112
X231.064Y-116.383
X232.41Y-136.55
X232.664Y-108.966
X232.967Y-132.302
X232.994Y-116.383
X233.025Y-128.962
X233.107Y-129.758
X233.426Y-87.122
X233.48Y-130.466
X233.542Y-128.27
X233.972Y-133.566
X235.141Y-105.499
X235.56Y-133.604
X235.572Y-127.94
X235.712Y-173.228
X236.096Y-108.567
X236.36Y-133.617
X236.868Y-117.716
X237.172Y-127.94
X237.236Y-173.228
X237.249Y-129.403
X237.767Y-108.946
X238.811Y-129.591
X238.902Y-128.565
X239.512Y-124.904
X239.522Y-71.882
X239.522Y-77.724
X239.522Y-87.122
X239.776Y-109.982
X240.284Y-119.126
X240.284Y-121.412
X240.284Y-123.698
X241.656Y-130.124
X242.062Y-126.746
X242.214Y-121.158
X242.316Y-64.008
X242.341Y-118.618
X244.094Y-142.24
X244.602Y-64.008
X244.602Y-74.168
X244.602Y-148.844
X244.673Y-135.809
X245.618Y-77.724
X245.618Y-87.122
X245.793Y-114.886
X246.126Y-123.698
X246.568Y-133.64
X246.583Y-136.246
X246.888Y-64.008
X247.015Y-126.238
X247.396Y-173.228
X247.645Y-139.273
X249.682Y-71.628
X249.682Y-75.946
X250.444Y-142.24
X250.947Y-135.799
X251.968Y-71.628
X252.222Y-75.946
X252.819Y-133.312
X253.721Y-137.312
X254.0Y-139.273
X255.27Y-67.056
X256.794Y-147.574
X256.794Y-161.29
X256.794Y-162.814
X256.832Y-136.881
X256.85Y-123.165
T2
X130.175Y-71.755
X107.95Y-106.68
X88.9Y-144.78
X120.65Y-119.38
X114.3Y-151.13
X92.075Y-173.355
X95.25Y-144.78
X76.2Y-88.265
X104.775Y-91.44
X104.775Y-78.105
X120.65Y-125.73
X130.175Y-91.44
X111.125Y-91.44
X95.25Y-62.23
X114.3Y-144.78
X85.725Y-160.655
X88.9Y-81.28
X104.775Y-109.855
X117.475Y-122.555
X133.35Y-74.93
X133.35Y-176.53
X85.725Y-84.455
X101.6Y-119.38
X76.2Y-81.28
X98.425Y-71.755
X111.125Y-71.755
X130.175Y-97.155
X111.125Y-128.905
X79.375Y-160.655
X82.55Y-81.28
X85.725Y-167.005
X88.9Y-100.33
X92.075Y-91.44
X114.3Y-100.33
X107.95Y-157.48
X92.075Y-135.255
X101.6Y-74.93
X76.2Y-170.18
X98.425Y-84.455
X136.525Y-154.305
X111.125Y-97.155
X120.65Y-62.23
X107.95Y-113.03
X79.375Y-97.155
X88.9Y-106.68
X92.075Y-97.155
X107.95Y-93.98
X95.25Y-100.33
X130.175Y-116.205
X120.65Y-68.58
X95.25Y-176.53
X79.375Y-147.955
X88.9Y-163.83
X98.425Y-78.105
X127.0Y-176.53
X101.6Y-88.265
X76.2Y-125.73
X136.525Y-109.855
X133.35Y-62.23
X92.075Y-109.855
X82.55Y-106.68
X98.425Y-91.44
X101.6Y-176.53
X101.6Y-100.33
X136.525Y-122.555
X130.175Y-141.605
X114.3Y-74.93
X92.075Y-160.655
X95.25Y-81.28
X88.9Y-170.18
X98.425Y-109.855
X82.55Y-176.53
X107.95Y-163.83
X136.525Y-84.455
X79.375Y-65.405
X117.475Y-167.005
X114.3Y-68.58
X92.075Y-154.305
X95.25Y-132.08
X82.55Y-132.08
X98.425Y-116.205
X120.65Y-144.78
X95.25Y-88.265
X130.175Y-122.555
X136.525Y-71.755
X111.125Y-64.77
X123.825Y-141.605
X79.375Y-122.555
X92.075Y-84.455
X101.6Y-68.58
X88.9Y-88.265
X104.775Y-103.505
X114.3Y-125.73
X136.525Y-103.505
X107.95Y-74.93
X95.25Y-68.58
X117.475Y-173.355
X104.775Y-65.405
X127.0Y-93.98
X85.725Y-103.505
X88.9Y-74.93
X76.2Y-68.58
X104.775Y-84.455
X111.125Y-173.355
X133.35Y-100.33
X123.825Y-71.755
X133.35Y-93.98
X107.95Y-125.73
X88.9Y-125.73
X98.425Y-128.905
X114.3Y-119.38
X79.375Y-141.605
X85.725Y-91.44
X95.25Y-119.38
X82.55Y-170.18
X104.775Y-167.005
X111.125Y-160.655
X133.35Y-125.73
X117.475Y-97.155
X111.125Y-78.105
X120.65Y-151.13
X107.95Y-88.265
X85.725Y-78.105
X88.9Y-151.13
X98.425Y-173.355
X79.375Y-71.755
X120.65Y-176.53
X85.725Y-154.305
X101.6Y-138.43
X76.2Y-100.33
X98.425Y-141.605
X111.125Y-122.555
X133.35Y-151.13
X136.525Y-167.005
X130.175Y-64.77
X111.125Y-135.255
X114.3Y-93.98
X107.95Y-132.08
X85.725Y-173.355
X88.9Y-93.98
X104.775Y-154.305
X127.0Y-68.58
X107.95Y-68.58
X85.725Y-97.155
X101.6Y-157.48
X98.425Y-167.005
X127.0Y-100.33
X136.525Y-147.955
X111.125Y-147.955
X88.9Y-62.23
X107.95Y-119.38
X85.725Y-147.955
X88.9Y-132.08
X104.775Y-128.905
X133.35Y-170.18
X95.25Y-138.43
X136.525Y-128.905
X101.6Y-62.23
X79.375Y-109.855
X82.55Y-100.33
X104.775Y-116.205
X120.65Y-170.18
X101.6Y-144.78
X79.375Y-154.305
X92.075Y-103.505
X82.55Y-119.38
X76.2Y-157.48
X104.775Y-141.605
X136.525Y-135.255
X114.3Y-170.18
X101.6Y-113.03
X136.525Y-97.155
X117.475Y-147.955
X79.375Y-167.005
X92.075Y-128.905
X95.25Y-170.18
X82.55Y-125.73
X104.775Y-71.755
X114.3Y-176.53
X101.6Y-151.13
X136.525Y-78.105
X117.475Y-71.755
X130.175Y-147.955
X79.375Y-135.255
X85.725Y-128.905
X101.6Y-132.08
X82.55Y-138.43
X98.425Y-122.555
X130.175Y-167.005
X136.525Y-173.355
X82.55Y-74.93
X95.25Y-125.73
X133.35Y-119.38
X136.525Y-64.77
X92.075Y-65.405
X123.825Y-147.955
X79.375Y-103.505
X85.725Y-116.205
X95.25Y-106.68
X82.55Y-113.03
X104.775Y-122.555
X111.125Y-84.455
X123.825Y-97.155
X107.95Y-176.53
X95.25Y-151.13
X127.0Y-119.38
X85.725Y-65.405
X82.55Y-62.23
X92.075Y-167.005
X101.6Y-106.68
X76.2Y-74.93
X104.775Y-135.255
X111.125Y-167.005
X127.0Y-125.73
X123.825Y-91.44
X114.3Y-62.23
X127.0Y-144.78
X92.075Y-116.205
X88.9Y-138.43
X98.425Y-154.305
X123.825Y-122.555
X79.375Y-173.355
X85.725Y-135.255
X95.25Y-93.98
X76.2Y-93.98
X76.2Y-138.43
X104.775Y-173.355
X111.125Y-141.605
X117.475Y-91.44
X111.125Y-103.505
X79.375Y-116.205
X107.95Y-100.33
X85.725Y-71.755
X82.55Y-157.48
X92.075Y-78.105
X120.65Y-74.93
X82.55Y-88.265
X79.375Y-91.44
X107.95Y-151.13
X76.2Y-106.68
X76.2Y-132.08
X98.425Y-103.505
X120.65Y-100.33
X136.525Y-160.655
X111.125Y-116.205
X127.0Y-62.23
X107.95Y-144.78
X79.375Y-78.105
X88.9Y-68.58
X104.775Y-147.955
X107.95Y-81.28
X85.725Y-141.605
X101.6Y-163.83
X76.2Y-151.13
X127.0Y-151.13
X136.525Y-141.605
X111.125Y-109.855
X127.0Y-74.93
X107.95Y-138.43
X92.075Y-122.555
X88.9Y-157.48
X104.775Y-97.155
X88.9Y-176.53
X95.25Y-74.93
X123.825Y-116.205
X136.525Y-115.57
X79.375Y-84.455
X92.075Y-147.955
X82.55Y-144.78
X98.425Y-97.155
X82.55Y-68.58
X101.6Y-125.73
X117.475Y-141.605
X120.65Y-93.98
X92.075Y-141.605
X95.25Y-157.48
X88.9Y-119.38
X76.2Y-144.78
X98.425Y-147.955
X127.0Y-170.18
X101.6Y-81.28
X136.525Y-91.44
X98.425Y-65.405
X130.175Y-173.355
X79.375Y-128.905
X85.725Y-109.855
X101.6Y-93.98
X88.9Y-113.03
X76.2Y-119.38
X98.425Y-135.255
X133.35Y-144.78
X101.6Y-170.18
X123.825Y-64.77
X123.825Y-167.005
X107.95Y-62.23
X92.075Y-71.755
X107.95Y-170.18
X82.55Y-163.83
X76.2Y-113.03
X98.425Y-160.655
X117.475Y-116.205
X82.55Y-93.98
X95.25Y-113.03
X123.825Y-173.355
X117.475Y-64.77
X133.35Y-68.58
X85.725Y-122.555
X95.25Y-163.83
X82.55Y-151.13
X76.2Y-163.83
X104.775Y-160.655
X111.125Y-154.305
T3
X248.158Y-108.458
X250.698Y-108.458
X253.238Y-108.458
T4
X263.906Y-93.472
X263.906Y-96.012
X263.906Y-98.552
X263.906Y-101.092
X234.696Y-144.78
X234.696Y-147.32
X237.236Y-144.78
X237.236Y-147.32
X239.776Y-144.78
X239.776Y-147.32
T5
X203.962Y-177.8
X208.962Y-177.8
X218.012Y-63.5
X223.012Y-63.5
T6
X188.468Y-69.89
X188.468Y-85.09
X188.468Y-95.29
X188.468Y-110.49
X188.468Y-146.05
X188.468Y-161.25
X188.468Y-120.69
X188.468Y-135.89
T7
X174.244Y-177.8
X197.144Y-177.8
T8
X74.545Y-63.365
X74.545Y-177.935
X258.15Y-190.3
X216.408Y-133.121
X258.15Y-50.8
X167.025Y-63.365
X77.57Y-50.8
X77.57Y-190.3
X167.025Y-177.935
T0
M30
