G04 #@! TF.GenerationSoftware,KiCad,Pcbnew,(5.1.4)-1*
G04 #@! TF.CreationDate,2020-09-06T16:49:47-04:00*
G04 #@! TF.ProjectId,DC_LOAD_V02,44435f4c-4f41-4445-9f56-30322e6b6963,rev?*
G04 #@! TF.SameCoordinates,Original*
G04 #@! TF.FileFunction,Other,ECO1*
%FSLAX46Y46*%
G04 Gerber Fmt 4.6, Leading zero omitted, Abs format (unit mm)*
G04 Created by KiCad (PCBNEW (5.1.4)-1) date 2020-09-06 16:49:47*
%MOMM*%
%LPD*%
G04 APERTURE LIST*
%ADD10C,0.150000*%
%ADD11C,0.200000*%
G04 APERTURE END LIST*
D10*
X233172000Y-154432000D02*
X241046000Y-154432000D01*
X238506000Y-149098000D02*
X238506000Y-159512000D01*
X235966000Y-149098000D02*
X235966000Y-159512000D01*
X241046000Y-149098000D02*
X233172000Y-149098000D01*
X241046000Y-159512000D02*
X241046000Y-149098000D01*
X233172000Y-159512000D02*
X241046000Y-159512000D01*
X233172000Y-149098000D02*
X233172000Y-159512000D01*
D11*
X258496000Y-92814857D02*
X258896000Y-94014857D01*
X259296000Y-92814857D01*
X260381714Y-93900571D02*
X260324571Y-93957714D01*
X260153142Y-94014857D01*
X260038857Y-94014857D01*
X259867428Y-93957714D01*
X259753142Y-93843428D01*
X259696000Y-93729142D01*
X259638857Y-93500571D01*
X259638857Y-93329142D01*
X259696000Y-93100571D01*
X259753142Y-92986285D01*
X259867428Y-92872000D01*
X260038857Y-92814857D01*
X260153142Y-92814857D01*
X260324571Y-92872000D01*
X260381714Y-92929142D01*
X261581714Y-93900571D02*
X261524571Y-93957714D01*
X261353142Y-94014857D01*
X261238857Y-94014857D01*
X261067428Y-93957714D01*
X260953142Y-93843428D01*
X260896000Y-93729142D01*
X260838857Y-93500571D01*
X260838857Y-93329142D01*
X260896000Y-93100571D01*
X260953142Y-92986285D01*
X261067428Y-92872000D01*
X261238857Y-92814857D01*
X261353142Y-92814857D01*
X261524571Y-92872000D01*
X261581714Y-92929142D01*
X240318857Y-158156571D02*
X239747428Y-158556571D01*
X240318857Y-158842285D02*
X239118857Y-158842285D01*
X239118857Y-158385142D01*
X239176000Y-158270857D01*
X239233142Y-158213714D01*
X239347428Y-158156571D01*
X239518857Y-158156571D01*
X239633142Y-158213714D01*
X239690285Y-158270857D01*
X239747428Y-158385142D01*
X239747428Y-158842285D01*
X240261714Y-157699428D02*
X240318857Y-157528000D01*
X240318857Y-157242285D01*
X240261714Y-157128000D01*
X240204571Y-157070857D01*
X240090285Y-157013714D01*
X239976000Y-157013714D01*
X239861714Y-157070857D01*
X239804571Y-157128000D01*
X239747428Y-157242285D01*
X239690285Y-157470857D01*
X239633142Y-157585142D01*
X239576000Y-157642285D01*
X239461714Y-157699428D01*
X239347428Y-157699428D01*
X239233142Y-157642285D01*
X239176000Y-157585142D01*
X239118857Y-157470857D01*
X239118857Y-157185142D01*
X239176000Y-157013714D01*
X239118857Y-156670857D02*
X239118857Y-155985142D01*
X240318857Y-156328000D02*
X239118857Y-156328000D01*
X237721714Y-158899428D02*
X237778857Y-158728000D01*
X237778857Y-158442285D01*
X237721714Y-158328000D01*
X237664571Y-158270857D01*
X237550285Y-158213714D01*
X237436000Y-158213714D01*
X237321714Y-158270857D01*
X237264571Y-158328000D01*
X237207428Y-158442285D01*
X237150285Y-158670857D01*
X237093142Y-158785142D01*
X237036000Y-158842285D01*
X236921714Y-158899428D01*
X236807428Y-158899428D01*
X236693142Y-158842285D01*
X236636000Y-158785142D01*
X236578857Y-158670857D01*
X236578857Y-158385142D01*
X236636000Y-158213714D01*
X237664571Y-157013714D02*
X237721714Y-157070857D01*
X237778857Y-157242285D01*
X237778857Y-157356571D01*
X237721714Y-157528000D01*
X237607428Y-157642285D01*
X237493142Y-157699428D01*
X237264571Y-157756571D01*
X237093142Y-157756571D01*
X236864571Y-157699428D01*
X236750285Y-157642285D01*
X236636000Y-157528000D01*
X236578857Y-157356571D01*
X236578857Y-157242285D01*
X236636000Y-157070857D01*
X236693142Y-157013714D01*
X237778857Y-156499428D02*
X236578857Y-156499428D01*
X237778857Y-155813714D02*
X237093142Y-156328000D01*
X236578857Y-155813714D02*
X237264571Y-156499428D01*
X235238857Y-158842285D02*
X234038857Y-158842285D01*
X234896000Y-158442285D01*
X234038857Y-158042285D01*
X235238857Y-158042285D01*
X235238857Y-157470857D02*
X234038857Y-157470857D01*
X235181714Y-156956571D02*
X235238857Y-156785142D01*
X235238857Y-156499428D01*
X235181714Y-156385142D01*
X235124571Y-156328000D01*
X235010285Y-156270857D01*
X234896000Y-156270857D01*
X234781714Y-156328000D01*
X234724571Y-156385142D01*
X234667428Y-156499428D01*
X234610285Y-156728000D01*
X234553142Y-156842285D01*
X234496000Y-156899428D01*
X234381714Y-156956571D01*
X234267428Y-156956571D01*
X234153142Y-156899428D01*
X234096000Y-156842285D01*
X234038857Y-156728000D01*
X234038857Y-156442285D01*
X234096000Y-156270857D01*
X234038857Y-155528000D02*
X234038857Y-155299428D01*
X234096000Y-155185142D01*
X234210285Y-155070857D01*
X234438857Y-155013714D01*
X234838857Y-155013714D01*
X235067428Y-155070857D01*
X235181714Y-155185142D01*
X235238857Y-155299428D01*
X235238857Y-155528000D01*
X235181714Y-155642285D01*
X235067428Y-155756571D01*
X234838857Y-155813714D01*
X234438857Y-155813714D01*
X234210285Y-155756571D01*
X234096000Y-155642285D01*
X234038857Y-155528000D01*
X239176000Y-152879714D02*
X239118857Y-152994000D01*
X239118857Y-153165428D01*
X239176000Y-153336857D01*
X239290285Y-153451142D01*
X239404571Y-153508285D01*
X239633142Y-153565428D01*
X239804571Y-153565428D01*
X240033142Y-153508285D01*
X240147428Y-153451142D01*
X240261714Y-153336857D01*
X240318857Y-153165428D01*
X240318857Y-153051142D01*
X240261714Y-152879714D01*
X240204571Y-152822571D01*
X239804571Y-152822571D01*
X239804571Y-153051142D01*
X240318857Y-152308285D02*
X239118857Y-152308285D01*
X240318857Y-151622571D01*
X239118857Y-151622571D01*
X240318857Y-151051142D02*
X239118857Y-151051142D01*
X239118857Y-150765428D01*
X239176000Y-150594000D01*
X239290285Y-150479714D01*
X239404571Y-150422571D01*
X239633142Y-150365428D01*
X239804571Y-150365428D01*
X240033142Y-150422571D01*
X240147428Y-150479714D01*
X240261714Y-150594000D01*
X240318857Y-150765428D01*
X240318857Y-151051142D01*
X237778857Y-153508285D02*
X236578857Y-153508285D01*
X237436000Y-153108285D01*
X236578857Y-152708285D01*
X237778857Y-152708285D01*
X236578857Y-151908285D02*
X236578857Y-151679714D01*
X236636000Y-151565428D01*
X236750285Y-151451142D01*
X236978857Y-151394000D01*
X237378857Y-151394000D01*
X237607428Y-151451142D01*
X237721714Y-151565428D01*
X237778857Y-151679714D01*
X237778857Y-151908285D01*
X237721714Y-152022571D01*
X237607428Y-152136857D01*
X237378857Y-152194000D01*
X236978857Y-152194000D01*
X236750285Y-152136857D01*
X236636000Y-152022571D01*
X236578857Y-151908285D01*
X237721714Y-150936857D02*
X237778857Y-150765428D01*
X237778857Y-150479714D01*
X237721714Y-150365428D01*
X237664571Y-150308285D01*
X237550285Y-150251142D01*
X237436000Y-150251142D01*
X237321714Y-150308285D01*
X237264571Y-150365428D01*
X237207428Y-150479714D01*
X237150285Y-150708285D01*
X237093142Y-150822571D01*
X237036000Y-150879714D01*
X236921714Y-150936857D01*
X236807428Y-150936857D01*
X236693142Y-150879714D01*
X236636000Y-150822571D01*
X236578857Y-150708285D01*
X236578857Y-150422571D01*
X236636000Y-150251142D01*
X237778857Y-149736857D02*
X236578857Y-149736857D01*
X234038857Y-153679714D02*
X235238857Y-153279714D01*
X234038857Y-152879714D01*
X235124571Y-151794000D02*
X235181714Y-151851142D01*
X235238857Y-152022571D01*
X235238857Y-152136857D01*
X235181714Y-152308285D01*
X235067428Y-152422571D01*
X234953142Y-152479714D01*
X234724571Y-152536857D01*
X234553142Y-152536857D01*
X234324571Y-152479714D01*
X234210285Y-152422571D01*
X234096000Y-152308285D01*
X234038857Y-152136857D01*
X234038857Y-152022571D01*
X234096000Y-151851142D01*
X234153142Y-151794000D01*
X235124571Y-150594000D02*
X235181714Y-150651142D01*
X235238857Y-150822571D01*
X235238857Y-150936857D01*
X235181714Y-151108285D01*
X235067428Y-151222571D01*
X234953142Y-151279714D01*
X234724571Y-151336857D01*
X234553142Y-151336857D01*
X234324571Y-151279714D01*
X234210285Y-151222571D01*
X234096000Y-151108285D01*
X234038857Y-150936857D01*
X234038857Y-150822571D01*
X234096000Y-150651142D01*
X234153142Y-150594000D01*
X259181714Y-95412000D02*
X259067428Y-95354857D01*
X258896000Y-95354857D01*
X258724571Y-95412000D01*
X258610285Y-95526285D01*
X258553142Y-95640571D01*
X258496000Y-95869142D01*
X258496000Y-96040571D01*
X258553142Y-96269142D01*
X258610285Y-96383428D01*
X258724571Y-96497714D01*
X258896000Y-96554857D01*
X259010285Y-96554857D01*
X259181714Y-96497714D01*
X259238857Y-96440571D01*
X259238857Y-96040571D01*
X259010285Y-96040571D01*
X259753142Y-96554857D02*
X259753142Y-95354857D01*
X260438857Y-96554857D01*
X260438857Y-95354857D01*
X261010285Y-96554857D02*
X261010285Y-95354857D01*
X261296000Y-95354857D01*
X261467428Y-95412000D01*
X261581714Y-95526285D01*
X261638857Y-95640571D01*
X261696000Y-95869142D01*
X261696000Y-96040571D01*
X261638857Y-96269142D01*
X261581714Y-96383428D01*
X261467428Y-96497714D01*
X261296000Y-96554857D01*
X261010285Y-96554857D01*
X259388000Y-99094857D02*
X258988000Y-98523428D01*
X258702285Y-99094857D02*
X258702285Y-97894857D01*
X259159428Y-97894857D01*
X259273714Y-97952000D01*
X259330857Y-98009142D01*
X259388000Y-98123428D01*
X259388000Y-98294857D01*
X259330857Y-98409142D01*
X259273714Y-98466285D01*
X259159428Y-98523428D01*
X258702285Y-98523428D01*
X259788000Y-97894857D02*
X260588000Y-99094857D01*
X260588000Y-97894857D02*
X259788000Y-99094857D01*
X258673714Y-100434857D02*
X259359428Y-100434857D01*
X259016571Y-101634857D02*
X259016571Y-100434857D01*
X259645142Y-100434857D02*
X260445142Y-101634857D01*
X260445142Y-100434857D02*
X259645142Y-101634857D01*
M02*
